<?xml version="1.0" encoding="utf-8"?>
<!-- Generator: Adobe Illustrator 24.3.0, SVG Export Plug-In . SVG Version: 6.00 Build 0)  -->
<svg version="1.1" id="Layer_2" xmlns="http://www.w3.org/2000/svg" xmlns:xlink="http://www.w3.org/1999/xlink" x="0px" y="0px"
	 viewBox="0 0 3000 2340.87" style="enable-background:new 0 0 3000 2340.87;" xml:space="preserve">
<style type="text/css">
	.st0{fill:#955C28;}
</style>
<g>
	<polygon class="st0" points="1570.87,2267.43 76.98,2267.43 76.98,73.44 1570.87,73.44 1570.87,379.91 1618.8,379.91 1618.8,25.5 
		29.04,25.5 29.04,2315.37 1618.8,2315.37 1618.8,1960.81 1570.87,1960.81 	"/>
	<path class="st0" d="M1405.99,1821.84c0-12.92-4.09-23.07-12.25-30.47c-8.17-7.53-19.01-11.3-32.53-11.3h-63.66v133.58h15.06
		v-51.25h46.19l32.13,51.25h17.87l-34.94-53.88c3.75-0.81,7.56-2.08,11.45-3.83C1399.1,1849.89,1405.99,1838.52,1405.99,1821.84z
		 M1358.6,1848.07h-45.99v-53.68h46.79c9.5,0,17.14,2.46,22.89,7.37c5.75,4.91,8.64,11.6,8.64,20.08c0,5.25-1,9.55-3.01,12.91
		C1382.56,1843.63,1372.79,1848.07,1358.6,1848.07z"/>
	<polygon class="st0" points="1559.22,1794.6 1559.22,1780.07 1461.42,1780.07 1461.42,1913.66 1559.22,1913.66 1559.22,1899.13 
		1476.48,1899.13 1476.48,1854.13 1550.38,1854.13 1550.38,1839.4 1476.48,1839.4 1476.48,1794.6 	"/>
	<path class="st0" d="M1653.8,1780.07l-56.43,133.58h16.67l16.27-38.74h65.87l16.27,38.74h16.67l-56.43-133.58H1653.8z
		 M1636.13,1860.99l27.11-65.18l27.11,65.18H1636.13z"/>
	<path class="st0" d="M1854.42,1784.61c-7.36-3.03-15-4.54-22.89-4.54h-56.03v133.58h56.03c7.9,0,15.53-1.51,22.89-4.54
		c7.36-3.03,13.86-7.43,19.48-13.22c12.45-12.78,18.68-29.12,18.68-49.03c0-19.91-6.22-36.25-18.68-49.04
		C1868.28,1792.05,1861.79,1787.64,1854.42,1784.61z M1864.87,1883.79c-8.7,10.36-20.02,15.54-33.94,15.54h-40.37V1794.4h40.37
		c13.92,0,25.23,5.18,33.94,15.54c8.43,9.96,12.65,22.27,12.65,36.93C1877.52,1861.53,1873.3,1873.84,1864.87,1883.79z"/>
	<path class="st0" d="M2970.13,899.32l-11.14-12.82c-1.81-2.08-4.45-3.26-7.21-3.22l-508.06,7.93c1.57-22.37,3.05-40.59,4.26-51.76
		c5.63-51.89,16.73-149.9-3.91-153.65c-20.63-3.75-25.32,34.23-31.42,60.96c-4.62,20.28-25.71,93.98-41.35,145.58l-196.39,3.06
		c0,0-79.72-3.28-77.37,7.03c2.34,10.32,53.46,31.42,57.21,30.48c2.65-0.66-0.09-10.23-1.92-15.78c-0.64-1.94,0.8-3.94,2.84-3.96
		l209.9-2.15c-2.63,8.45-4.96,15.76-6.84,21.42c-13.13,39.39-55.8,130.36-89.1,178.66c-33.29,48.3-67.53,60.02-90.5,29.54
		c-22.98-30.48-29.54-52.99-41.27-64.71c-11.72-11.72-39.39-8.44-54.86,9.38c0,0-23.45-50.18-78.78-47.83
		c-55.33,2.34-90.5,55.33-96.13,67.53c0,0-37.05,45.02-105.98,65.42s-122.39,4.92-120.04-46.66c0,0,49.71,21.57,90.97,16.41
		c41.27-5.16,59.55-38.92,30.95-67.53s-94.25-40.8-131.77-6.1c-37.51,34.7-50.64,77.37-93.32,88.16
		c-42.67,10.79-49.24-21.1-51.11-39.39c0,0,7.03-8.21,0.23-17.58c-6.8-9.38-14.3-10.79-24.62-10.79c-10.32,0-54.86,0-54.86,0
		s-2.81-11.72-2.81-20.87c0-9.14-25.79-24.85-30.71-12.43s7.5,30.25,3.52,32.82h-404.68c0,0-62.37-31.65-189.91-33.06
		c-127.55-1.41-264.94,30.01-265.41,35.17s16.41,19.23,24.38,21.57c7.97,2.34,443.6-1.41,443.6-1.41s106.91,47.83,106.91,138.8
		s-73.46,299.64-476.12,310.27c-402.65,10.63-404.53-363.26-405.46-436.41c-1.44-111.97,51.63-235.06,110.14-327.96
		c65.88-104.61,155.85-194.1,261.33-258.68c81.27-49.76,163.9-84.65,261.58-78.29c158.5,10.32,201.33,137.86,201.33,137.86
		s22.51,45.64,20.01,83.16c-2.5,37.51-26.26,70.65-23.13,74.4c3.13,3.75,21.26,15.01,29.39,15.63
		c8.13,0.63,63.77-107.54-23.13-220.71S841.74,388.97,656.99,479c-184.76,90.03-340.91,257.91-407.03,471.74
		s-21.1,409.37,123.8,543.02s499.41,102.69,661.18-9.85s174.44-290.26,36.58-374.67l373.73,0c0.91,0,1.73-0.71,1.72-1.62
		c-0.01-2.17,2.63-1.81,3.6-1.81l1.54,0.09c1.44,0.08,2.76,0.79,3.62,1.94l1.02,1.37c0.16,0.22,0.42,0.35,0.69,0.35h38.3
		c0,0,16.26,73.15,78.15,73.15s79.4-41.89,79.4-41.89s21.88,59.4,95.66,63.15c73.78,3.75,135.05-38.14,155.06-52.52
		c0,0,6.88,50.02,59.4,45.02c52.52-5,152.56-102.54,156.93-102.54s7.19,0.55,11.18,16.02c3.99,15.47,31.65,75.26,90.27,72.92
		c58.62-2.34,97.07-82.06,121.92-125.67c24.04-42.19,55.54-141.42,62.67-146.57l0.93-0.01c4.92,5-5.99,105-9.67,163
		c-3.75,59.08-0.94,165.53,56.27,175.85c56.04,10.11,147.64-80.59,177.8-137.19c1.07-2.01,0.55-4.49-1.22-5.91l-21.42-17.21
		c-2.2-1.77-5.45-1.23-6.96,1.15c-11.78,18.62-58.71,89.96-101.77,115.55c-49.71,29.54-67.53,22.51-68.46-44.08
		c-0.68-48.37,5.15-169.15,10.55-251.51l525.21-5.38C2970.49,904.83,2972,901.47,2970.13,899.32z M1757.09,1071.41
		c39.08,3.44,30.01,39.7,1.88,44.08s-61.9-2.5-70.34-15.94C1688.62,1099.55,1718.01,1067.97,1757.09,1071.41z M789.85,1081.42
		c0,0,49.39-6.57,93.47,0C883.32,1081.42,831.11,1085.17,789.85,1081.42z M2055.39,1101.17c-11.19,10.19-59.36,52.4-108.53,70.69
		c-3.36,1.25-7.08-0.67-8.04-4.12c-3.03-10.89-6.88-34.48,7.25-57.56c19.23-31.42,69.87-55.33,91.44-43.14
		c15.77,8.91,19.34,21.83,20.12,28.14C2057.9,1097.42,2057.07,1099.65,2055.39,1101.17z"/>
</g>
</svg>
