<svg width="545" height="119" viewBox="0 0 545 119" fill="none" xmlns="http://www.w3.org/2000/svg">
<g clip-path="url(#clip0_1_135)">
<path d="M191.972 62.4619L188.434 63.4649L195.438 88.1839L199.292 88.1989L198.976 87.1819L191.972 62.4619Z" fill="url(#paint0_linear_1_135)"/>
<path d="M89.137 60.3529C97.899 54.7619 103.825 44.1679 103.825 32.0429C103.825 23.4279 100.842 15.3939 95.426 9.42094C89.999 3.43494 82.723 0.137939 74.93 0.137939L64.577 0.180939V34.8589H68.255V3.84394L74.938 3.81594C89.074 3.81594 100.147 16.2149 100.147 32.0429C100.147 47.9459 88.838 60.8839 74.938 60.8839H64.934V64.5619H74.938C78.821 64.5619 82.527 63.6929 85.912 62.1219L100.351 88.1589L104.651 88.1849L103.581 86.3999L89.137 60.3529Z" fill="url(#paint1_linear_1_135)"/>
<path d="M348.268 60.3529C357.03 54.7619 362.956 44.1679 362.956 32.0429C362.956 23.4279 359.973 15.3939 354.557 9.42094C349.13 3.43494 341.853 0.137939 334.061 0.137939L323.708 0.180939V34.8589H327.386V3.84394L334.069 3.81594C348.205 3.81594 359.278 16.2149 359.278 32.0429C359.278 47.9459 347.969 60.8839 334.069 60.8839H324.065V64.5619H334.069C337.952 64.5619 341.658 63.6929 345.043 62.1219L359.482 88.1589L363.782 88.1849L362.712 86.3999L348.268 60.3529Z" fill="url(#paint2_linear_1_135)"/>
<path d="M122.944 3.85494H149.397V0.137939H119.266V55.2649H122.944V3.85494Z" fill="url(#paint3_linear_1_135)"/>
<path d="M122.944 61.9819H127.531V58.2649H119.266V87.7019H150.438V83.9849H122.944V61.9819Z" fill="url(#paint4_linear_1_135)"/>
<path d="M194.454 0L165.177 87.065L164.767 88.184L168.666 88.22L194.458 11.518L220.304 88.203L224.204 88.184L223.791 87.045L194.454 0Z" fill="url(#paint5_linear_1_135)"/>
<path d="M451.515 62.4619L447.977 63.4649L454.981 88.1839L458.835 88.1989L458.519 87.1819L451.515 62.4619Z" fill="url(#paint6_linear_1_135)"/>
<path d="M453.997 0L424.72 87.065L424.31 88.184L428.209 88.22L454.001 11.518L479.846 88.203L483.747 88.184L483.334 87.045L453.997 0Z" fill="url(#paint7_linear_1_135)"/>
<path d="M382.488 3.84994H408.941V0.137939H378.811V55.1909H382.488V3.84994Z" fill="url(#paint8_linear_1_135)"/>
<path d="M382.488 61.9H387.075V58.188H378.811V87.585H409.982V83.873H382.488V61.9Z" fill="url(#paint9_linear_1_135)"/>
<path d="M237.98 3.678H256.75L256.696 88.437L260.374 88.439L260.428 3.678H270.248V0H237.98V3.678Z" fill="url(#paint10_linear_1_135)"/>
<path d="M279.202 0H272.571V3.678H279.202V0Z" fill="url(#paint11_linear_1_135)"/>
<path d="M534.534 13.396C528.053 5.10098 519.064 0.531982 509.222 0.531982L497.357 0.776982V87.304H512.672C513.851 87.304 515.027 87.201 516.197 87.005V83.233C515.026 83.47 513.848 83.594 512.672 83.594H501.067V4.41098L509.241 4.24198C527.042 4.25398 540.464 21.125 540.464 43.495C540.464 54.102 537.426 64.21 531.911 71.957C528.356 76.949 524.005 80.502 519.412 82.286L520.774 85.736C526.034 83.687 530.959 79.692 534.933 74.11C540.892 65.741 544.174 54.868 544.174 43.496C544.175 32.042 540.751 21.353 534.534 13.396Z" fill="url(#paint12_linear_1_135)"/>
<path d="M0.0100323 42.633L0.00603226 42.718C0.00303226 42.843 -0.0219677 44.124 0.0660323 46.178C0.0970323 40.442 0.720032 35.407 0.793032 34.835C0.461032 37.305 0.199032 39.904 0.0100323 42.633Z" fill="url(#paint13_linear_1_135)"/>
<path d="M9.11101 17.64C11.455 12.468 14.619 8.75901 18.512 6.61601C29.227 0.720008 42.589 8.28401 42.723 8.36101L44.607 5.10701C43.988 4.74801 29.31 -3.59799 16.722 3.31001C6.74101 8.78601 1.24001 22.121 0.370007 42.946L0.369007 42.981C0.362007 43.297 0.212006 50.823 2.02401 59.67C4.50801 71.798 9.30101 80.134 16.272 84.445C19.427 86.397 22.969 87.469 26.881 87.669V83.895C23.677 83.7 20.796 82.821 18.255 81.25C3.78 72.305 4.11501 43.863 4.12801 43.082C4.57101 32.518 6.24701 23.958 9.11101 17.64Z" fill="url(#paint14_linear_1_135)"/>
<path d="M28.104 55.0139L46.496 55.0189V78.6879C41.407 81.2799 36.745 82.9119 32.529 83.5839V87.3889C37.598 86.6659 43.182 84.6999 49.254 81.4929L50.256 80.9639V51.2599L28.105 51.2539L28.104 55.0139Z" fill="url(#paint15_linear_1_135)"/>
<path d="M15.447 113.128C15.297 112.915 15.125 112.738 14.929 112.598C14.733 112.458 14.532 112.346 14.325 112.263C14.705 112.055 15.003 111.759 15.222 111.374C15.44 110.99 15.55 110.553 15.55 110.064C15.55 109.555 15.461 109.107 15.283 108.723C15.105 108.338 14.863 108.016 14.558 107.756C14.253 107.496 13.899 107.301 13.497 107.171C13.094 107.041 12.669 106.976 12.22 106.976H7.73499V118.314H11.824C13.17 118.314 14.193 118.018 14.895 117.425C15.596 116.832 15.947 115.99 15.947 114.898C15.947 114.514 15.901 114.176 15.809 113.884C15.717 113.594 15.596 113.341 15.447 113.128ZM9.45999 108.504H12.151C12.369 108.504 12.582 108.538 12.789 108.605C12.996 108.673 13.177 108.777 13.333 108.917C13.488 109.057 13.612 109.231 13.704 109.439C13.796 109.647 13.842 109.886 13.842 110.156C13.842 110.385 13.802 110.595 13.721 110.787C13.64 110.98 13.525 111.146 13.376 111.286C13.226 111.426 13.054 111.538 12.859 111.621C12.663 111.704 12.456 111.746 12.238 111.746H9.45999V108.504ZM13.549 116.302C13.192 116.635 12.704 116.801 12.083 116.801H9.45999V113.183H12.289C12.807 113.183 13.235 113.334 13.574 113.635C13.913 113.937 14.083 114.363 14.083 114.914C14.084 115.507 13.905 115.969 13.549 116.302Z" fill="url(#paint16_linear_1_135)"/>
<path d="M186.937 113.128C186.787 112.915 186.615 112.738 186.419 112.598C186.223 112.458 186.022 112.346 185.815 112.263C186.195 112.055 186.493 111.759 186.712 111.374C186.93 110.99 187.04 110.553 187.04 110.064C187.04 109.555 186.951 109.107 186.773 108.723C186.595 108.338 186.353 108.016 186.049 107.756C185.744 107.496 185.39 107.301 184.988 107.171C184.585 107.041 184.16 106.976 183.711 106.976H179.226V118.314H183.315C184.661 118.314 185.684 118.018 186.386 117.425C187.087 116.832 187.438 115.99 187.438 114.898C187.438 114.514 187.392 114.176 187.3 113.884C187.207 113.594 187.086 113.341 186.937 113.128ZM180.95 108.504H183.641C183.859 108.504 184.072 108.538 184.279 108.605C184.486 108.673 184.667 108.777 184.823 108.917C184.978 109.057 185.102 109.231 185.194 109.439C185.286 109.647 185.332 109.886 185.332 110.156C185.332 110.385 185.292 110.595 185.211 110.787C185.13 110.98 185.015 111.146 184.866 111.286C184.716 111.426 184.544 111.538 184.349 111.621C184.153 111.704 183.946 111.746 183.728 111.746H180.95V108.504ZM185.039 116.302C184.682 116.635 184.194 116.801 183.573 116.801H180.951V113.183H183.78C184.298 113.183 184.726 113.334 185.065 113.635C185.404 113.937 185.574 114.363 185.574 114.914C185.574 115.507 185.395 115.969 185.039 116.302Z" fill="url(#paint17_linear_1_135)"/>
<path d="M29.354 108.244C28.878 107.718 28.306 107.314 27.637 107.032C26.968 106.751 26.242 106.61 25.457 106.61C24.647 106.61 23.898 106.748 23.21 107.025C22.522 107.302 21.927 107.7 21.426 108.221C20.924 108.742 20.529 109.374 20.24 110.118C19.951 110.862 19.806 111.702 19.806 112.637C19.806 113.583 19.951 114.428 20.24 115.172C20.529 115.916 20.925 116.548 21.426 117.069C21.927 117.59 22.522 117.989 23.21 118.265C23.898 118.541 24.647 118.68 25.457 118.68C26.241 118.68 26.968 118.539 27.637 118.258C28.305 117.976 28.878 117.572 29.354 117.046C29.83 116.52 30.203 115.885 30.473 115.141C30.743 114.397 30.878 113.563 30.878 112.638C30.878 111.713 30.743 110.882 30.473 110.143C30.202 109.403 29.829 108.77 29.354 108.244ZM28.679 114.51C28.499 115.047 28.248 115.498 27.927 115.865C27.605 116.232 27.226 116.508 26.789 116.694C26.352 116.88 25.876 116.973 25.362 116.973C24.861 116.973 24.388 116.88 23.944 116.694C23.5 116.508 23.115 116.234 22.787 115.873C22.459 115.512 22.202 115.06 22.016 114.518C21.829 113.976 21.736 113.349 21.736 112.637C21.736 111.925 21.829 111.3 22.016 110.763C22.202 110.227 22.46 109.777 22.787 109.416C23.115 109.055 23.501 108.784 23.944 108.603C24.388 108.422 24.86 108.332 25.362 108.332C25.876 108.332 26.352 108.425 26.789 108.611C27.226 108.797 27.605 109.071 27.927 109.432C28.248 109.793 28.499 110.243 28.679 110.779C28.859 111.316 28.949 111.935 28.949 112.636C28.949 113.349 28.859 113.974 28.679 114.51Z" fill="url(#paint18_linear_1_135)"/>
<path d="M43.434 108.244C42.958 107.718 42.386 107.314 41.717 107.032C41.048 106.751 40.322 106.61 39.537 106.61C38.727 106.61 37.978 106.748 37.29 107.025C36.602 107.302 36.007 107.7 35.506 108.221C35.004 108.742 34.609 109.374 34.32 110.118C34.031 110.862 33.886 111.702 33.886 112.637C33.886 113.583 34.031 114.428 34.32 115.172C34.609 115.916 35.005 116.548 35.506 117.069C36.007 117.59 36.602 117.989 37.29 118.265C37.978 118.541 38.727 118.68 39.537 118.68C40.321 118.68 41.048 118.539 41.717 118.258C42.385 117.976 42.958 117.572 43.434 117.046C43.91 116.52 44.283 115.885 44.553 115.141C44.823 114.397 44.958 113.563 44.958 112.638C44.958 111.713 44.823 110.882 44.553 110.143C44.282 109.403 43.909 108.77 43.434 108.244ZM42.759 114.51C42.579 115.047 42.328 115.498 42.007 115.865C41.685 116.232 41.306 116.508 40.869 116.694C40.432 116.88 39.956 116.973 39.442 116.973C38.941 116.973 38.468 116.88 38.024 116.694C37.58 116.508 37.195 116.234 36.867 115.873C36.539 115.512 36.282 115.06 36.096 114.518C35.909 113.976 35.816 113.349 35.816 112.637C35.816 111.925 35.909 111.3 36.096 110.763C36.282 110.227 36.54 109.777 36.867 109.416C37.195 109.055 37.581 108.784 38.024 108.603C38.468 108.422 38.94 108.332 39.442 108.332C39.956 108.332 40.432 108.425 40.869 108.611C41.306 108.797 41.685 109.071 42.007 109.432C42.328 109.793 42.579 110.243 42.759 110.779C42.939 111.316 43.029 111.935 43.029 112.636C43.029 113.349 42.939 113.974 42.759 114.51Z" fill="url(#paint19_linear_1_135)"/>
<path d="M140.871 108.244C140.395 107.718 139.823 107.314 139.154 107.032C138.485 106.751 137.759 106.61 136.974 106.61C136.164 106.61 135.415 106.748 134.727 107.025C134.039 107.302 133.444 107.7 132.943 108.221C132.441 108.742 132.046 109.374 131.757 110.118C131.468 110.862 131.323 111.702 131.323 112.637C131.323 113.583 131.468 114.428 131.757 115.172C132.046 115.916 132.442 116.548 132.943 117.069C133.444 117.59 134.039 117.989 134.727 118.265C135.415 118.541 136.164 118.68 136.974 118.68C137.758 118.68 138.485 118.539 139.154 118.258C139.822 117.976 140.395 117.572 140.871 117.046C141.347 116.52 141.72 115.885 141.99 115.141C142.26 114.397 142.395 113.563 142.395 112.638C142.395 111.713 142.26 110.882 141.99 110.143C141.72 109.403 141.347 108.77 140.871 108.244ZM140.196 114.51C140.016 115.047 139.765 115.498 139.444 115.865C139.122 116.232 138.743 116.508 138.306 116.694C137.869 116.88 137.393 116.973 136.879 116.973C136.378 116.973 135.905 116.88 135.461 116.694C135.017 116.508 134.632 116.234 134.304 115.873C133.976 115.512 133.719 115.06 133.533 114.518C133.346 113.976 133.253 113.349 133.253 112.637C133.253 111.925 133.346 111.3 133.533 110.763C133.719 110.227 133.977 109.777 134.304 109.416C134.632 109.055 135.018 108.784 135.461 108.603C135.905 108.422 136.377 108.332 136.879 108.332C137.393 108.332 137.869 108.425 138.306 108.611C138.743 108.797 139.122 109.071 139.444 109.432C139.765 109.793 140.016 110.243 140.196 110.779C140.376 111.316 140.466 111.935 140.466 112.636C140.466 113.349 140.376 113.974 140.196 114.51Z" fill="url(#paint20_linear_1_135)"/>
<path d="M56.72 106.976H54.755L50.622 111.654H50.435V106.976H48.876V118.314H50.435V112.964H50.684L54.864 118.314H56.923L52.104 112.169L56.72 106.976Z" fill="url(#paint21_linear_1_135)"/>
<path d="M66.485 115.318H66.413L63.462 106.976H61.069V118.314H62.85V110.142H62.94L65.603 116.84L66.122 118.115C66.263 118.295 66.538 118.291 66.673 118.106L67.15 116.84L69.867 110.142H69.957V118.314H71.738V106.976H69.49L66.485 115.318Z" fill="url(#paint22_linear_1_135)"/>
<path d="M79.24 106.976L75.7 118.314H77.4L78.039 115.8H82.39L83.061 118.314H84.761L81.237 106.976H79.24ZM78.491 114.302L80.175 109.33H80.253L81.937 114.302H78.491Z" fill="url(#paint23_linear_1_135)"/>
<path d="M96.488 113.329C96.336 113.152 96.16 113.012 95.959 112.908C95.758 112.804 95.555 112.721 95.348 112.658C95.737 112.513 96.084 112.245 96.388 111.855C96.692 111.465 96.844 110.896 96.844 110.147C96.844 109.128 96.509 108.325 95.841 107.737C95.172 107.15 94.224 106.856 92.996 106.856H88.272V118.194H90.096V113.531H93.306C93.902 113.531 94.361 113.653 94.683 113.898C95.005 114.142 95.166 114.545 95.166 115.107V118.195H95.294H97.002C97.002 118.195 97.009 117.712 97.009 117.618V114.951C97.009 114.577 96.96 114.257 96.863 113.992C96.765 113.726 96.64 113.506 96.488 113.329ZM94.537 111.652C94.19 111.938 93.713 112.081 93.105 112.081H90.095V108.416H92.922C93.652 108.416 94.19 108.572 94.536 108.884C94.883 109.196 95.056 109.648 95.056 110.241C95.056 110.896 94.883 111.366 94.537 111.652Z" fill="url(#paint24_linear_1_135)"/>
<path d="M167.614 113.329C167.462 113.152 167.286 113.012 167.085 112.908C166.884 112.804 166.681 112.721 166.474 112.658C166.863 112.513 167.21 112.245 167.514 111.855C167.818 111.465 167.97 110.896 167.97 110.147C167.97 109.128 167.635 108.325 166.967 107.737C166.298 107.15 165.35 106.856 164.122 106.856H159.398V118.194H161.222V113.531H164.432C165.028 113.531 165.487 113.653 165.809 113.898C166.131 114.142 166.292 114.545 166.292 115.107V118.195H166.42H168.128C168.128 118.195 168.135 117.712 168.135 117.618V114.951C168.135 114.577 168.086 114.257 167.989 113.992C167.89 113.726 167.766 113.506 167.614 113.329ZM165.662 111.652C165.315 111.938 164.838 112.081 164.23 112.081H161.22V108.416H164.047C164.777 108.416 165.315 108.572 165.661 108.884C166.008 109.196 166.181 109.648 166.181 110.241C166.182 110.896 166.009 111.366 165.662 111.652Z" fill="url(#paint25_linear_1_135)"/>
<path d="M110.695 106.976H108.44L103.698 111.654H103.483V106.976H101.694V118.314H103.483V112.964H103.77L108.565 118.314H110.927L105.398 112.169L110.695 106.976Z" fill="url(#paint26_linear_1_135)"/>
<path d="M124.341 112.138L121.737 106.976H119.974L123.483 113.885V118.314H125.183V113.853L128.661 106.976H126.93L124.341 112.138Z" fill="url(#paint27_linear_1_135)"/>
<path d="M152.803 114.415C152.803 114.914 152.756 115.33 152.663 115.663C152.569 115.996 152.429 116.264 152.242 116.466C152.055 116.669 151.823 116.812 151.548 116.895C151.272 116.978 150.958 117.02 150.604 117.02C150.23 117.02 149.894 116.979 149.598 116.895C149.302 116.812 149.055 116.669 148.857 116.466C148.659 116.263 148.509 115.998 148.405 115.67C148.301 115.343 148.249 114.929 148.249 114.43V106.975H146.705V114.336C146.705 115.116 146.791 115.774 146.962 116.309C147.133 116.845 147.385 117.279 147.718 117.611C148.051 117.944 148.459 118.183 148.942 118.328C149.425 118.473 149.979 118.546 150.603 118.546C151.206 118.546 151.741 118.473 152.209 118.328C152.677 118.183 153.069 117.941 153.386 117.603C153.703 117.265 153.945 116.826 154.111 116.285C154.277 115.744 154.361 115.074 154.361 114.273V106.974H152.801V114.415H152.803Z" fill="url(#paint28_linear_1_135)"/>
<path d="M191.789 118.314H199.652V116.77H193.826V113.261H199.571V111.732H193.826V108.535H199.652V106.976H191.789V118.314Z" fill="url(#paint29_linear_1_135)"/>
<path d="M211.808 113.237C211.178 112.67 210.134 112.222 208.675 111.892C208.118 111.768 207.657 111.64 207.292 111.506C206.927 111.372 206.638 111.23 206.427 111.081C206.214 110.932 206.065 110.767 205.979 110.586C205.892 110.406 205.85 110.202 205.85 109.975C205.85 109.511 206.075 109.137 206.526 108.854C206.977 108.571 207.567 108.429 208.297 108.429C208.708 108.429 209.063 108.481 209.361 108.584C209.659 108.687 209.898 108.829 210.077 109.009C210.256 109.19 210.388 109.401 210.475 109.643C210.561 109.885 210.604 110.145 210.604 110.424L212.554 110.269C212.554 109.712 212.448 109.228 212.236 108.816C212.024 108.404 211.729 108.061 211.351 107.788C210.973 107.515 210.522 107.312 209.998 107.177C209.474 107.043 208.894 106.976 208.257 106.976C207.7 106.976 207.159 107.04 206.635 107.169C206.111 107.298 205.647 107.486 205.243 107.733C204.838 107.98 204.513 108.29 204.268 108.661C204.022 109.032 203.9 109.455 203.9 109.929C203.9 110.434 203.993 110.87 204.178 111.235C204.364 111.601 204.632 111.918 204.984 112.186C205.335 112.454 205.77 112.681 206.287 112.866C206.804 113.052 207.394 113.222 208.058 113.376C208.986 113.582 209.656 113.84 210.067 114.149C210.478 114.458 210.684 114.85 210.684 115.324C210.684 115.922 210.455 116.381 209.998 116.7C209.54 117.019 208.94 117.179 208.198 117.179C207.747 117.179 207.362 117.117 207.044 116.994C206.726 116.87 206.457 116.708 206.238 116.507C206.019 116.306 205.85 116.079 205.731 115.827C205.612 115.575 205.532 115.319 205.492 115.062L203.503 115.464C203.569 115.98 203.741 116.436 204.02 116.832C204.298 117.229 204.65 117.564 205.074 117.837C205.499 118.11 205.982 118.319 206.526 118.463C207.07 118.607 207.653 118.679 208.277 118.679C208.927 118.679 209.527 118.604 210.077 118.455C210.627 118.306 211.101 118.092 211.499 117.813C211.897 117.535 212.205 117.192 212.424 116.785C212.643 116.378 212.752 115.917 212.752 115.401C212.753 114.526 212.438 113.804 211.808 113.237Z" fill="url(#paint30_linear_1_135)"/>
<path d="M247.899 118.314H255.763V116.77H249.936V113.261H255.681V111.732H249.936V108.535H255.763V106.976H247.899V118.314Z" fill="url(#paint31_linear_1_135)"/>
<path d="M242.718 113.237C242.088 112.67 241.044 112.222 239.585 111.892C239.028 111.768 238.567 111.64 238.202 111.506C237.837 111.372 237.548 111.23 237.337 111.081C237.125 110.932 236.975 110.767 236.889 110.586C236.802 110.406 236.76 110.202 236.76 109.975C236.76 109.511 236.985 109.137 237.436 108.854C237.887 108.571 238.477 108.429 239.207 108.429C239.618 108.429 239.973 108.481 240.271 108.584C240.569 108.687 240.808 108.829 240.987 109.009C241.166 109.19 241.298 109.401 241.385 109.643C241.471 109.885 241.514 110.145 241.514 110.424L243.464 110.269C243.464 109.712 243.358 109.228 243.146 108.816C242.934 108.404 242.639 108.061 242.261 107.788C241.883 107.515 241.432 107.312 240.908 107.177C240.384 107.043 239.804 106.976 239.167 106.976C238.61 106.976 238.069 107.04 237.545 107.169C237.021 107.298 236.557 107.486 236.153 107.733C235.748 107.98 235.423 108.29 235.178 108.661C234.932 109.032 234.81 109.455 234.81 109.929C234.81 110.434 234.903 110.87 235.088 111.235C235.274 111.601 235.542 111.918 235.894 112.186C236.245 112.454 236.68 112.681 237.197 112.866C237.714 113.052 238.304 113.222 238.968 113.376C239.896 113.582 240.566 113.84 240.977 114.149C241.388 114.458 241.594 114.85 241.594 115.324C241.594 115.922 241.365 116.381 240.908 116.7C240.45 117.019 239.85 117.179 239.108 117.179C238.657 117.179 238.272 117.117 237.954 116.994C237.636 116.87 237.367 116.708 237.148 116.507C236.929 116.306 236.76 116.079 236.641 115.827C236.522 115.575 236.442 115.319 236.402 115.062L234.413 115.464C234.479 115.98 234.651 116.436 234.93 116.832C235.208 117.229 235.56 117.564 235.984 117.837C236.409 118.11 236.892 118.319 237.436 118.463C237.98 118.607 238.563 118.679 239.187 118.679C239.837 118.679 240.437 118.604 240.987 118.455C241.537 118.306 242.011 118.092 242.409 117.813C242.807 117.534 243.115 117.192 243.334 116.785C243.553 116.378 243.662 115.917 243.662 115.401C243.663 114.526 243.348 113.804 242.718 113.237Z" fill="url(#paint32_linear_1_135)"/>
<path d="M216.603 108.535H219.66V118.314H221.313V108.535H224.339V106.976H216.603V108.535Z" fill="url(#paint33_linear_1_135)"/>
<path d="M261.159 106.976H259.599V118.314H266.649V116.77H261.159V106.976Z" fill="url(#paint34_linear_1_135)"/>
<path d="M278.35 108.535V106.976H271.145V118.314H272.987V113.261H278.184V111.732H272.987V108.535H278.35Z" fill="url(#paint35_linear_1_135)"/>
</g>
<defs>
<linearGradient id="paint0_linear_1_135" x1="-14.5738" y1="76.4781" x2="537.971" y2="73.462" gradientUnits="userSpaceOnUse">
<stop stop-color="#8D5E20"/>
<stop offset="0.2069" stop-color="#C5A960"/>
<stop offset="0.3557" stop-color="#E8D988"/>
<stop offset="0.4296" stop-color="#F5EB97"/>
<stop offset="0.5128" stop-color="#EBDE8C"/>
<stop offset="0.6678" stop-color="#D1BB6E"/>
<stop offset="0.876" stop-color="#A8833F"/>
<stop offset="1" stop-color="#8D5E20"/>
</linearGradient>
<linearGradient id="paint1_linear_1_135" x1="-14.7472" y1="44.7249" x2="537.798" y2="41.7089" gradientUnits="userSpaceOnUse">
<stop stop-color="#8D5E20"/>
<stop offset="0.2069" stop-color="#C5A960"/>
<stop offset="0.3557" stop-color="#E8D988"/>
<stop offset="0.4296" stop-color="#F5EB97"/>
<stop offset="0.5128" stop-color="#EBDE8C"/>
<stop offset="0.6678" stop-color="#D1BB6E"/>
<stop offset="0.876" stop-color="#A8833F"/>
<stop offset="1" stop-color="#8D5E20"/>
</linearGradient>
<linearGradient id="paint2_linear_1_135" x1="-14.7395" y1="46.1394" x2="537.806" y2="43.1233" gradientUnits="userSpaceOnUse">
<stop stop-color="#8D5E20"/>
<stop offset="0.2069" stop-color="#C5A960"/>
<stop offset="0.3557" stop-color="#E8D988"/>
<stop offset="0.4296" stop-color="#F5EB97"/>
<stop offset="0.5128" stop-color="#EBDE8C"/>
<stop offset="0.6678" stop-color="#D1BB6E"/>
<stop offset="0.876" stop-color="#A8833F"/>
<stop offset="1" stop-color="#8D5E20"/>
</linearGradient>
<linearGradient id="paint3_linear_1_135" x1="-14.8361" y1="28.4433" x2="537.709" y2="25.4272" gradientUnits="userSpaceOnUse">
<stop stop-color="#8D5E20"/>
<stop offset="0.2069" stop-color="#C5A960"/>
<stop offset="0.3557" stop-color="#E8D988"/>
<stop offset="0.4296" stop-color="#F5EB97"/>
<stop offset="0.5128" stop-color="#EBDE8C"/>
<stop offset="0.6678" stop-color="#D1BB6E"/>
<stop offset="0.876" stop-color="#A8833F"/>
<stop offset="1" stop-color="#8D5E20"/>
</linearGradient>
<linearGradient id="paint4_linear_1_135" x1="-14.5885" y1="73.7993" x2="537.957" y2="70.7832" gradientUnits="userSpaceOnUse">
<stop stop-color="#8D5E20"/>
<stop offset="0.2069" stop-color="#C5A960"/>
<stop offset="0.3557" stop-color="#E8D988"/>
<stop offset="0.4296" stop-color="#F5EB97"/>
<stop offset="0.5128" stop-color="#EBDE8C"/>
<stop offset="0.6678" stop-color="#D1BB6E"/>
<stop offset="0.876" stop-color="#A8833F"/>
<stop offset="1" stop-color="#8D5E20"/>
</linearGradient>
<linearGradient id="paint5_linear_1_135" x1="-14.7439" y1="45.3151" x2="537.801" y2="42.299" gradientUnits="userSpaceOnUse">
<stop stop-color="#8D5E20"/>
<stop offset="0.2069" stop-color="#C5A960"/>
<stop offset="0.3557" stop-color="#E8D988"/>
<stop offset="0.4296" stop-color="#F5EB97"/>
<stop offset="0.5128" stop-color="#EBDE8C"/>
<stop offset="0.6678" stop-color="#D1BB6E"/>
<stop offset="0.876" stop-color="#A8833F"/>
<stop offset="1" stop-color="#8D5E20"/>
</linearGradient>
<linearGradient id="paint6_linear_1_135" x1="-14.5661" y1="77.8948" x2="537.979" y2="74.8787" gradientUnits="userSpaceOnUse">
<stop stop-color="#8D5E20"/>
<stop offset="0.2069" stop-color="#C5A960"/>
<stop offset="0.3557" stop-color="#E8D988"/>
<stop offset="0.4296" stop-color="#F5EB97"/>
<stop offset="0.5128" stop-color="#EBDE8C"/>
<stop offset="0.6678" stop-color="#D1BB6E"/>
<stop offset="0.876" stop-color="#A8833F"/>
<stop offset="1" stop-color="#8D5E20"/>
</linearGradient>
<linearGradient id="paint7_linear_1_135" x1="-14.7362" y1="46.7318" x2="537.809" y2="43.7157" gradientUnits="userSpaceOnUse">
<stop stop-color="#8D5E20"/>
<stop offset="0.2069" stop-color="#C5A960"/>
<stop offset="0.3557" stop-color="#E8D988"/>
<stop offset="0.4296" stop-color="#F5EB97"/>
<stop offset="0.5128" stop-color="#EBDE8C"/>
<stop offset="0.6678" stop-color="#D1BB6E"/>
<stop offset="0.876" stop-color="#A8833F"/>
<stop offset="1" stop-color="#8D5E20"/>
</linearGradient>
<linearGradient id="paint8_linear_1_135" x1="-14.8285" y1="29.8232" x2="537.717" y2="26.8071" gradientUnits="userSpaceOnUse">
<stop stop-color="#8D5E20"/>
<stop offset="0.2069" stop-color="#C5A960"/>
<stop offset="0.3557" stop-color="#E8D988"/>
<stop offset="0.4296" stop-color="#F5EB97"/>
<stop offset="0.5128" stop-color="#EBDE8C"/>
<stop offset="0.6678" stop-color="#D1BB6E"/>
<stop offset="0.876" stop-color="#A8833F"/>
<stop offset="1" stop-color="#8D5E20"/>
</linearGradient>
<linearGradient id="paint9_linear_1_135" x1="-14.5811" y1="75.1189" x2="537.964" y2="72.1028" gradientUnits="userSpaceOnUse">
<stop stop-color="#8D5E20"/>
<stop offset="0.2069" stop-color="#C5A960"/>
<stop offset="0.3557" stop-color="#E8D988"/>
<stop offset="0.4296" stop-color="#F5EB97"/>
<stop offset="0.5128" stop-color="#EBDE8C"/>
<stop offset="0.6678" stop-color="#D1BB6E"/>
<stop offset="0.876" stop-color="#A8833F"/>
<stop offset="1" stop-color="#8D5E20"/>
</linearGradient>
<linearGradient id="paint10_linear_1_135" x1="-14.742" y1="45.6602" x2="537.803" y2="42.6441" gradientUnits="userSpaceOnUse">
<stop stop-color="#8D5E20"/>
<stop offset="0.2069" stop-color="#C5A960"/>
<stop offset="0.3557" stop-color="#E8D988"/>
<stop offset="0.4296" stop-color="#F5EB97"/>
<stop offset="0.5128" stop-color="#EBDE8C"/>
<stop offset="0.6678" stop-color="#D1BB6E"/>
<stop offset="0.876" stop-color="#A8833F"/>
<stop offset="1" stop-color="#8D5E20"/>
</linearGradient>
<linearGradient id="paint11_linear_1_135" x1="-14.9717" y1="3.42649" x2="537.572" y2="0.410412" gradientUnits="userSpaceOnUse">
<stop stop-color="#8D5E20"/>
<stop offset="0.2069" stop-color="#C5A960"/>
<stop offset="0.3557" stop-color="#E8D988"/>
<stop offset="0.4296" stop-color="#F5EB97"/>
<stop offset="0.5128" stop-color="#EBDE8C"/>
<stop offset="0.6678" stop-color="#D1BB6E"/>
<stop offset="0.876" stop-color="#A8833F"/>
<stop offset="1" stop-color="#8D5E20"/>
</linearGradient>
<linearGradient id="paint12_linear_1_135" x1="-14.736" y1="46.788" x2="537.809" y2="43.7719" gradientUnits="userSpaceOnUse">
<stop stop-color="#8D5E20"/>
<stop offset="0.2069" stop-color="#C5A960"/>
<stop offset="0.3557" stop-color="#E8D988"/>
<stop offset="0.4296" stop-color="#F5EB97"/>
<stop offset="0.5128" stop-color="#EBDE8C"/>
<stop offset="0.6678" stop-color="#D1BB6E"/>
<stop offset="0.876" stop-color="#A8833F"/>
<stop offset="1" stop-color="#8D5E20"/>
</linearGradient>
<linearGradient id="paint13_linear_1_135" x1="-14.7698" y1="40.5899" x2="537.775" y2="37.5739" gradientUnits="userSpaceOnUse">
<stop stop-color="#8D5E20"/>
<stop offset="0.2069" stop-color="#C5A960"/>
<stop offset="0.3557" stop-color="#E8D988"/>
<stop offset="0.4296" stop-color="#F5EB97"/>
<stop offset="0.5128" stop-color="#EBDE8C"/>
<stop offset="0.6678" stop-color="#D1BB6E"/>
<stop offset="0.876" stop-color="#A8833F"/>
<stop offset="1" stop-color="#8D5E20"/>
</linearGradient>
<linearGradient id="paint14_linear_1_135" x1="-14.7492" y1="44.355" x2="537.796" y2="41.3389" gradientUnits="userSpaceOnUse">
<stop stop-color="#8D5E20"/>
<stop offset="0.2069" stop-color="#C5A960"/>
<stop offset="0.3557" stop-color="#E8D988"/>
<stop offset="0.4296" stop-color="#F5EB97"/>
<stop offset="0.5128" stop-color="#EBDE8C"/>
<stop offset="0.6678" stop-color="#D1BB6E"/>
<stop offset="0.876" stop-color="#A8833F"/>
<stop offset="1" stop-color="#8D5E20"/>
</linearGradient>
<linearGradient id="paint15_linear_1_135" x1="-14.6116" y1="69.5672" x2="537.933" y2="66.5511" gradientUnits="userSpaceOnUse">
<stop stop-color="#8D5E20"/>
<stop offset="0.2069" stop-color="#C5A960"/>
<stop offset="0.3557" stop-color="#E8D988"/>
<stop offset="0.4296" stop-color="#F5EB97"/>
<stop offset="0.5128" stop-color="#EBDE8C"/>
<stop offset="0.6678" stop-color="#D1BB6E"/>
<stop offset="0.876" stop-color="#A8833F"/>
<stop offset="1" stop-color="#8D5E20"/>
</linearGradient>
<linearGradient id="paint16_linear_1_135" x1="-10.1998" y1="112.955" x2="275.06" y2="108.539" gradientUnits="userSpaceOnUse">
<stop offset="0.0223" stop-color="#8D5E20"/>
<stop offset="0.2809" stop-color="#C5A960"/>
<stop offset="0.4668" stop-color="#E8D988"/>
<stop offset="0.5592" stop-color="#F5EB97"/>
<stop offset="0.7066" stop-color="#CAB166"/>
<stop offset="0.8388" stop-color="#A98440"/>
<stop offset="0.9407" stop-color="#956829"/>
<stop offset="1" stop-color="#8D5E20"/>
</linearGradient>
<linearGradient id="paint17_linear_1_135" x1="-10.1589" y1="115.609" x2="275.102" y2="111.193" gradientUnits="userSpaceOnUse">
<stop offset="0.0223" stop-color="#8D5E20"/>
<stop offset="0.2809" stop-color="#C5A960"/>
<stop offset="0.4668" stop-color="#E8D988"/>
<stop offset="0.5592" stop-color="#F5EB97"/>
<stop offset="0.7066" stop-color="#CAB166"/>
<stop offset="0.8388" stop-color="#A98440"/>
<stop offset="0.9407" stop-color="#956829"/>
<stop offset="1" stop-color="#8D5E20"/>
</linearGradient>
<linearGradient id="paint18_linear_1_135" x1="-10.196" y1="113.197" x2="275.064" y2="108.781" gradientUnits="userSpaceOnUse">
<stop offset="0.0223" stop-color="#8D5E20"/>
<stop offset="0.2809" stop-color="#C5A960"/>
<stop offset="0.4668" stop-color="#E8D988"/>
<stop offset="0.5592" stop-color="#F5EB97"/>
<stop offset="0.7066" stop-color="#CAB166"/>
<stop offset="0.8388" stop-color="#A98440"/>
<stop offset="0.9407" stop-color="#956829"/>
<stop offset="1" stop-color="#8D5E20"/>
</linearGradient>
<linearGradient id="paint19_linear_1_135" x1="-10.1927" y1="113.415" x2="275.068" y2="108.999" gradientUnits="userSpaceOnUse">
<stop offset="0.0223" stop-color="#8D5E20"/>
<stop offset="0.2809" stop-color="#C5A960"/>
<stop offset="0.4668" stop-color="#E8D988"/>
<stop offset="0.5592" stop-color="#F5EB97"/>
<stop offset="0.7066" stop-color="#CAB166"/>
<stop offset="0.8388" stop-color="#A98440"/>
<stop offset="0.9407" stop-color="#956829"/>
<stop offset="1" stop-color="#8D5E20"/>
</linearGradient>
<linearGradient id="paint20_linear_1_135" x1="-10.1694" y1="114.923" x2="275.091" y2="110.507" gradientUnits="userSpaceOnUse">
<stop offset="0.0223" stop-color="#8D5E20"/>
<stop offset="0.2809" stop-color="#C5A960"/>
<stop offset="0.4668" stop-color="#E8D988"/>
<stop offset="0.5592" stop-color="#F5EB97"/>
<stop offset="0.7066" stop-color="#CAB166"/>
<stop offset="0.8388" stop-color="#A98440"/>
<stop offset="0.9407" stop-color="#956829"/>
<stop offset="1" stop-color="#8D5E20"/>
</linearGradient>
<linearGradient id="paint21_linear_1_135" x1="-10.1894" y1="113.621" x2="275.071" y2="109.206" gradientUnits="userSpaceOnUse">
<stop offset="0.0223" stop-color="#8D5E20"/>
<stop offset="0.2809" stop-color="#C5A960"/>
<stop offset="0.4668" stop-color="#E8D988"/>
<stop offset="0.5592" stop-color="#F5EB97"/>
<stop offset="0.7066" stop-color="#CAB166"/>
<stop offset="0.8388" stop-color="#A98440"/>
<stop offset="0.9407" stop-color="#956829"/>
<stop offset="1" stop-color="#8D5E20"/>
</linearGradient>
<linearGradient id="paint22_linear_1_135" x1="-10.1862" y1="113.83" x2="275.074" y2="109.415" gradientUnits="userSpaceOnUse">
<stop offset="0.0223" stop-color="#8D5E20"/>
<stop offset="0.2809" stop-color="#C5A960"/>
<stop offset="0.4668" stop-color="#E8D988"/>
<stop offset="0.5592" stop-color="#F5EB97"/>
<stop offset="0.7066" stop-color="#CAB166"/>
<stop offset="0.8388" stop-color="#A98440"/>
<stop offset="0.9407" stop-color="#956829"/>
<stop offset="1" stop-color="#8D5E20"/>
</linearGradient>
<linearGradient id="paint23_linear_1_135" x1="-10.1826" y1="114.072" x2="275.078" y2="109.656" gradientUnits="userSpaceOnUse">
<stop offset="0.0223" stop-color="#8D5E20"/>
<stop offset="0.2809" stop-color="#C5A960"/>
<stop offset="0.4668" stop-color="#E8D988"/>
<stop offset="0.5592" stop-color="#F5EB97"/>
<stop offset="0.7066" stop-color="#CAB166"/>
<stop offset="0.8388" stop-color="#A98440"/>
<stop offset="0.9407" stop-color="#956829"/>
<stop offset="1" stop-color="#8D5E20"/>
</linearGradient>
<linearGradient id="paint24_linear_1_135" x1="-10.1818" y1="114.117" x2="275.078" y2="109.702" gradientUnits="userSpaceOnUse">
<stop offset="0.0223" stop-color="#8D5E20"/>
<stop offset="0.2809" stop-color="#C5A960"/>
<stop offset="0.4668" stop-color="#E8D988"/>
<stop offset="0.5592" stop-color="#F5EB97"/>
<stop offset="0.7066" stop-color="#CAB166"/>
<stop offset="0.8388" stop-color="#A98440"/>
<stop offset="0.9407" stop-color="#956829"/>
<stop offset="1" stop-color="#8D5E20"/>
</linearGradient>
<linearGradient id="paint25_linear_1_135" x1="-10.1647" y1="115.218" x2="275.095" y2="110.802" gradientUnits="userSpaceOnUse">
<stop offset="0.0223" stop-color="#8D5E20"/>
<stop offset="0.2809" stop-color="#C5A960"/>
<stop offset="0.4668" stop-color="#E8D988"/>
<stop offset="0.5592" stop-color="#F5EB97"/>
<stop offset="0.7066" stop-color="#CAB166"/>
<stop offset="0.8388" stop-color="#A98440"/>
<stop offset="0.9407" stop-color="#956829"/>
<stop offset="1" stop-color="#8D5E20"/>
</linearGradient>
<linearGradient id="paint26_linear_1_135" x1="-10.1768" y1="114.448" x2="275.084" y2="110.032" gradientUnits="userSpaceOnUse">
<stop offset="0.0223" stop-color="#8D5E20"/>
<stop offset="0.2809" stop-color="#C5A960"/>
<stop offset="0.4668" stop-color="#E8D988"/>
<stop offset="0.5592" stop-color="#F5EB97"/>
<stop offset="0.7066" stop-color="#CAB166"/>
<stop offset="0.8388" stop-color="#A98440"/>
<stop offset="0.9407" stop-color="#956829"/>
<stop offset="1" stop-color="#8D5E20"/>
</linearGradient>
<linearGradient id="paint27_linear_1_135" x1="-10.1728" y1="114.7" x2="275.087" y2="110.284" gradientUnits="userSpaceOnUse">
<stop offset="0.0223" stop-color="#8D5E20"/>
<stop offset="0.2809" stop-color="#C5A960"/>
<stop offset="0.4668" stop-color="#E8D988"/>
<stop offset="0.5592" stop-color="#F5EB97"/>
<stop offset="0.7066" stop-color="#CAB166"/>
<stop offset="0.8388" stop-color="#A98440"/>
<stop offset="0.9407" stop-color="#956829"/>
<stop offset="1" stop-color="#8D5E20"/>
</linearGradient>
<linearGradient id="paint28_linear_1_135" x1="-10.1646" y1="115.221" x2="275.095" y2="110.805" gradientUnits="userSpaceOnUse">
<stop offset="0.0223" stop-color="#8D5E20"/>
<stop offset="0.2809" stop-color="#C5A960"/>
<stop offset="0.4668" stop-color="#E8D988"/>
<stop offset="0.5592" stop-color="#F5EB97"/>
<stop offset="0.7066" stop-color="#CAB166"/>
<stop offset="0.8388" stop-color="#A98440"/>
<stop offset="0.9407" stop-color="#956829"/>
<stop offset="1" stop-color="#8D5E20"/>
</linearGradient>
<linearGradient id="paint29_linear_1_135" x1="-10.155" y1="115.832" x2="275.105" y2="111.416" gradientUnits="userSpaceOnUse">
<stop offset="0.0223" stop-color="#8D5E20"/>
<stop offset="0.2809" stop-color="#C5A960"/>
<stop offset="0.4668" stop-color="#E8D988"/>
<stop offset="0.5592" stop-color="#F5EB97"/>
<stop offset="0.7066" stop-color="#CAB166"/>
<stop offset="0.8388" stop-color="#A98440"/>
<stop offset="0.9407" stop-color="#956829"/>
<stop offset="1" stop-color="#8D5E20"/>
</linearGradient>
<linearGradient id="paint30_linear_1_135" x1="-10.1493" y1="116.209" x2="275.111" y2="111.793" gradientUnits="userSpaceOnUse">
<stop offset="0.0223" stop-color="#8D5E20"/>
<stop offset="0.2809" stop-color="#C5A960"/>
<stop offset="0.4668" stop-color="#E8D988"/>
<stop offset="0.5592" stop-color="#F5EB97"/>
<stop offset="0.7066" stop-color="#CAB166"/>
<stop offset="0.8388" stop-color="#A98440"/>
<stop offset="0.9407" stop-color="#956829"/>
<stop offset="1" stop-color="#8D5E20"/>
</linearGradient>
<linearGradient id="paint31_linear_1_135" x1="-10.1418" y1="116.7" x2="275.118" y2="112.284" gradientUnits="userSpaceOnUse">
<stop offset="0.0223" stop-color="#8D5E20"/>
<stop offset="0.2809" stop-color="#C5A960"/>
<stop offset="0.4668" stop-color="#E8D988"/>
<stop offset="0.5592" stop-color="#F5EB97"/>
<stop offset="0.7066" stop-color="#CAB166"/>
<stop offset="0.8388" stop-color="#A98440"/>
<stop offset="0.9407" stop-color="#956829"/>
<stop offset="1" stop-color="#8D5E20"/>
</linearGradient>
<linearGradient id="paint32_linear_1_135" x1="-10.1422" y1="116.687" x2="275.118" y2="112.271" gradientUnits="userSpaceOnUse">
<stop offset="0.0223" stop-color="#8D5E20"/>
<stop offset="0.2809" stop-color="#C5A960"/>
<stop offset="0.4668" stop-color="#E8D988"/>
<stop offset="0.5592" stop-color="#F5EB97"/>
<stop offset="0.7066" stop-color="#CAB166"/>
<stop offset="0.8388" stop-color="#A98440"/>
<stop offset="0.9407" stop-color="#956829"/>
<stop offset="1" stop-color="#8D5E20"/>
</linearGradient>
<linearGradient id="paint33_linear_1_135" x1="-10.1499" y1="116.191" x2="275.111" y2="111.776" gradientUnits="userSpaceOnUse">
<stop offset="0.0223" stop-color="#8D5E20"/>
<stop offset="0.2809" stop-color="#C5A960"/>
<stop offset="0.4668" stop-color="#E8D988"/>
<stop offset="0.5592" stop-color="#F5EB97"/>
<stop offset="0.7066" stop-color="#CAB166"/>
<stop offset="0.8388" stop-color="#A98440"/>
<stop offset="0.9407" stop-color="#956829"/>
<stop offset="1" stop-color="#8D5E20"/>
</linearGradient>
<linearGradient id="paint34_linear_1_135" x1="-10.1386" y1="116.875" x2="275.121" y2="112.459" gradientUnits="userSpaceOnUse">
<stop offset="0.0223" stop-color="#8D5E20"/>
<stop offset="0.2809" stop-color="#C5A960"/>
<stop offset="0.4668" stop-color="#E8D988"/>
<stop offset="0.5592" stop-color="#F5EB97"/>
<stop offset="0.7066" stop-color="#CAB166"/>
<stop offset="0.8388" stop-color="#A98440"/>
<stop offset="0.9407" stop-color="#956829"/>
<stop offset="1" stop-color="#8D5E20"/>
</linearGradient>
<linearGradient id="paint35_linear_1_135" x1="-10.1375" y1="117.013" x2="275.123" y2="112.597" gradientUnits="userSpaceOnUse">
<stop offset="0.0223" stop-color="#8D5E20"/>
<stop offset="0.2809" stop-color="#C5A960"/>
<stop offset="0.4668" stop-color="#E8D988"/>
<stop offset="0.5592" stop-color="#F5EB97"/>
<stop offset="0.7066" stop-color="#CAB166"/>
<stop offset="0.8388" stop-color="#A98440"/>
<stop offset="0.9407" stop-color="#956829"/>
<stop offset="1" stop-color="#8D5E20"/>
</linearGradient>
<clipPath id="clip0_1_135">
<rect width="544.175" height="118.679" fill="white"/>
</clipPath>
</defs>
</svg>
