<svg width="545" height="119" viewBox="0 0 545 119" fill="none" xmlns="http://www.w3.org/2000/svg">
<path d="M191.972 62.4619L188.434 63.4649L195.438 88.1839L199.292 88.1989L198.976 87.1819L191.972 62.4619Z" fill="#956829"/>
<path d="M89.1365 60.3529C97.8985 54.7619 103.825 44.1679 103.825 32.0429C103.825 23.4279 100.842 15.3939 95.4255 9.42094C89.9985 3.43494 82.7225 0.137939 74.9295 0.137939L64.5765 0.180939V34.8589H68.2545V3.84394L74.9375 3.81594C89.0735 3.81594 100.147 16.2149 100.147 32.0429C100.147 47.9459 88.8375 60.8839 74.9375 60.8839H64.9335V64.5619H74.9375C78.8205 64.5619 82.5265 63.6929 85.9115 62.1219L100.351 88.1589L104.651 88.1849L103.581 86.3999L89.1365 60.3529Z" fill="#956829"/>
<path d="M348.268 60.3529C357.03 54.7619 362.956 44.1679 362.956 32.0429C362.956 23.4279 359.973 15.3939 354.557 9.42094C349.13 3.43494 341.853 0.137939 334.061 0.137939L323.708 0.180939V34.8589H327.385V3.84394L334.069 3.81594C348.205 3.81594 359.278 16.2149 359.278 32.0429C359.278 47.9459 347.969 60.8839 334.069 60.8839H324.065V64.5619H334.069C337.952 64.5619 341.658 63.6929 345.043 62.1219L359.482 88.1589L363.782 88.1849L362.712 86.3999L348.268 60.3529Z" fill="#956829"/>
<path d="M122.944 3.85494H149.397V0.137939H119.266V55.2649H122.944V3.85494Z" fill="#956829"/>
<path d="M122.944 61.9819H127.531V58.2649H119.266V87.7019H150.438V83.9849H122.944V61.9819Z" fill="#956829"/>
<path d="M194.454 0L165.177 87.065L164.767 88.184L168.666 88.22L194.458 11.518L220.304 88.203L224.204 88.184L223.791 87.045L194.454 0Z" fill="#956829"/>
<path d="M451.515 62.4619L447.977 63.4649L454.981 88.1839L458.835 88.1989L458.519 87.1819L451.515 62.4619Z" fill="#956829"/>
<path d="M453.997 0L424.72 87.065L424.31 88.184L428.209 88.22L454.001 11.518L479.846 88.203L483.747 88.184L483.334 87.045L453.997 0Z" fill="#956829"/>
<path d="M382.488 3.84994H408.941V0.137939H378.811V55.1909H382.488V3.84994Z" fill="#956829"/>
<path d="M382.488 61.9H387.075V58.188H378.811V87.585H409.982V83.873H382.488V61.9Z" fill="#956829"/>
<path d="M237.979 3.678H256.749L256.696 88.437L260.373 88.439L260.428 3.678H270.247V0H237.979V3.678Z" fill="#956829"/>
<path d="M279.202 0H272.571V3.678H279.202V0Z" fill="#956829"/>
<path d="M534.534 13.396C528.053 5.10098 519.064 0.531982 509.222 0.531982L497.357 0.776982V87.304H512.672C513.851 87.304 515.027 87.201 516.197 87.005V83.233C515.026 83.47 513.848 83.594 512.672 83.594H501.067V4.41098L509.241 4.24198C527.042 4.25398 540.464 21.125 540.464 43.495C540.464 54.102 537.426 64.21 531.911 71.957C528.356 76.949 524.005 80.502 519.412 82.286L520.774 85.736C526.034 83.687 530.959 79.692 534.933 74.11C540.892 65.741 544.174 54.868 544.174 43.496C544.175 32.042 540.751 21.353 534.534 13.396Z" fill="#956829"/>
<path d="M0.00954398 42.633L0.00554398 42.718C0.00254398 42.843 -0.022456 44.124 0.065544 46.178C0.096544 40.442 0.719544 35.407 0.792544 34.835C0.460544 37.305 0.198544 39.904 0.00954398 42.633Z" fill="#956829"/>
<path d="M9.11052 17.64C11.4545 12.468 14.6185 8.75901 18.5115 6.61601C29.2265 0.720008 42.5885 8.28401 42.7225 8.36101L44.6065 5.10701C43.9875 4.74801 29.3095 -3.59799 16.7215 3.31001C6.74052 8.78601 1.23952 22.121 0.369518 42.946L0.368518 42.981C0.361518 43.297 0.211518 50.823 2.02352 59.67C4.50752 71.798 9.30052 80.134 16.2715 84.445C19.4265 86.397 22.9685 87.469 26.8805 87.669V83.895C23.6765 83.7 20.7955 82.821 18.2545 81.25C3.77952 72.305 4.11452 43.863 4.12752 43.082C4.57052 32.518 6.24652 23.958 9.11052 17.64Z" fill="#956829"/>
<path d="M28.1035 55.0139L46.4955 55.0189V78.6879C41.4065 81.2799 36.7445 82.9119 32.5285 83.5839V87.3889C37.5975 86.6659 43.1815 84.6999 49.2535 81.4929L50.2555 80.9639V51.2599L28.1045 51.2539L28.1035 55.0139Z" fill="#956829"/>
<path d="M15.4465 113.128C15.2965 112.915 15.1245 112.738 14.9285 112.598C14.7325 112.458 14.5315 112.346 14.3245 112.263C14.7045 112.055 15.0025 111.759 15.2215 111.374C15.4395 110.99 15.5495 110.553 15.5495 110.064C15.5495 109.555 15.4605 109.107 15.2825 108.723C15.1045 108.338 14.8625 108.016 14.5575 107.756C14.2525 107.496 13.8985 107.301 13.4965 107.171C13.0935 107.041 12.6685 106.976 12.2195 106.976H7.7345V118.314H11.8235C13.1695 118.314 14.1925 118.018 14.8945 117.425C15.5955 116.832 15.9465 115.99 15.9465 114.898C15.9465 114.514 15.9005 114.176 15.8085 113.884C15.7165 113.594 15.5955 113.341 15.4465 113.128ZM9.4595 108.504H12.1505C12.3685 108.504 12.5815 108.538 12.7885 108.605C12.9955 108.673 13.1765 108.777 13.3325 108.917C13.4875 109.057 13.6115 109.231 13.7035 109.439C13.7955 109.647 13.8415 109.886 13.8415 110.156C13.8415 110.385 13.8015 110.595 13.7205 110.787C13.6395 110.98 13.5245 111.146 13.3755 111.286C13.2255 111.426 13.0535 111.538 12.8585 111.621C12.6625 111.704 12.4555 111.746 12.2375 111.746H9.4595V108.504ZM13.5485 116.302C13.1915 116.635 12.7035 116.801 12.0825 116.801H9.4595V113.183H12.2885C12.8065 113.183 13.2345 113.334 13.5735 113.635C13.9125 113.937 14.0825 114.363 14.0825 114.914C14.0835 115.507 13.9045 115.969 13.5485 116.302Z" fill="#956829"/>
<path d="M186.936 113.128C186.786 112.915 186.614 112.738 186.418 112.598C186.222 112.458 186.021 112.346 185.814 112.263C186.194 112.055 186.492 111.759 186.711 111.374C186.929 110.99 187.039 110.553 187.039 110.064C187.039 109.555 186.95 109.107 186.772 108.723C186.594 108.338 186.352 108.016 186.048 107.756C185.743 107.496 185.389 107.301 184.987 107.171C184.584 107.041 184.159 106.976 183.71 106.976H179.225V118.314H183.314C184.66 118.314 185.683 118.018 186.385 117.425C187.086 116.832 187.437 115.99 187.437 114.898C187.437 114.514 187.391 114.176 187.299 113.884C187.206 113.594 187.085 113.341 186.936 113.128ZM180.949 108.504H183.64C183.858 108.504 184.071 108.538 184.278 108.605C184.485 108.673 184.666 108.777 184.822 108.917C184.977 109.057 185.101 109.231 185.193 109.439C185.285 109.647 185.331 109.886 185.331 110.156C185.331 110.385 185.291 110.595 185.21 110.787C185.129 110.98 185.014 111.146 184.865 111.286C184.715 111.426 184.543 111.538 184.348 111.621C184.152 111.704 183.945 111.746 183.727 111.746H180.949V108.504V108.504ZM185.038 116.302C184.681 116.635 184.193 116.801 183.572 116.801H180.95V113.183H183.779C184.297 113.183 184.725 113.334 185.064 113.635C185.403 113.937 185.573 114.363 185.573 114.914C185.573 115.507 185.394 115.969 185.038 116.302Z" fill="#956829"/>
<path d="M29.3535 108.244C28.8775 107.718 28.3055 107.314 27.6365 107.032C26.9675 106.751 26.2415 106.61 25.4565 106.61C24.6465 106.61 23.8975 106.748 23.2095 107.025C22.5215 107.302 21.9265 107.7 21.4255 108.221C20.9235 108.742 20.5285 109.374 20.2395 110.118C19.9505 110.862 19.8055 111.702 19.8055 112.637C19.8055 113.583 19.9505 114.428 20.2395 115.172C20.5285 115.916 20.9245 116.548 21.4255 117.069C21.9265 117.59 22.5215 117.989 23.2095 118.265C23.8975 118.541 24.6465 118.68 25.4565 118.68C26.2405 118.68 26.9675 118.539 27.6365 118.258C28.3045 117.976 28.8775 117.572 29.3535 117.046C29.8295 116.52 30.2025 115.885 30.4725 115.141C30.7425 114.397 30.8775 113.563 30.8775 112.638C30.8775 111.713 30.7425 110.882 30.4725 110.143C30.2015 109.403 29.8285 108.77 29.3535 108.244ZM28.6785 114.51C28.4985 115.047 28.2475 115.498 27.9265 115.865C27.6045 116.232 27.2255 116.508 26.7885 116.694C26.3515 116.88 25.8755 116.973 25.3615 116.973C24.8605 116.973 24.3875 116.88 23.9435 116.694C23.4995 116.508 23.1145 116.234 22.7865 115.873C22.4585 115.512 22.2015 115.06 22.0155 114.518C21.8285 113.976 21.7355 113.349 21.7355 112.637C21.7355 111.925 21.8285 111.3 22.0155 110.763C22.2015 110.227 22.4595 109.777 22.7865 109.416C23.1145 109.055 23.5005 108.784 23.9435 108.603C24.3875 108.422 24.8595 108.332 25.3615 108.332C25.8755 108.332 26.3515 108.425 26.7885 108.611C27.2255 108.797 27.6045 109.071 27.9265 109.432C28.2475 109.793 28.4985 110.243 28.6785 110.779C28.8585 111.316 28.9485 111.935 28.9485 112.636C28.9485 113.349 28.8585 113.974 28.6785 114.51Z" fill="#956829"/>
<path d="M43.4335 108.244C42.9575 107.718 42.3855 107.314 41.7165 107.032C41.0475 106.751 40.3215 106.61 39.5365 106.61C38.7265 106.61 37.9775 106.748 37.2895 107.025C36.6015 107.302 36.0065 107.7 35.5055 108.221C35.0035 108.742 34.6085 109.374 34.3195 110.118C34.0305 110.862 33.8855 111.702 33.8855 112.637C33.8855 113.583 34.0305 114.428 34.3195 115.172C34.6085 115.916 35.0045 116.548 35.5055 117.069C36.0065 117.59 36.6015 117.989 37.2895 118.265C37.9775 118.541 38.7265 118.68 39.5365 118.68C40.3205 118.68 41.0475 118.539 41.7165 118.258C42.3845 117.976 42.9575 117.572 43.4335 117.046C43.9095 116.52 44.2825 115.885 44.5525 115.141C44.8225 114.397 44.9575 113.563 44.9575 112.638C44.9575 111.713 44.8225 110.882 44.5525 110.143C44.2815 109.403 43.9085 108.77 43.4335 108.244ZM42.7585 114.51C42.5785 115.047 42.3275 115.498 42.0065 115.865C41.6845 116.232 41.3055 116.508 40.8685 116.694C40.4315 116.88 39.9555 116.973 39.4415 116.973C38.9405 116.973 38.4675 116.88 38.0235 116.694C37.5795 116.508 37.1945 116.234 36.8665 115.873C36.5385 115.512 36.2815 115.06 36.0955 114.518C35.9085 113.976 35.8155 113.349 35.8155 112.637C35.8155 111.925 35.9085 111.3 36.0955 110.763C36.2815 110.227 36.5395 109.777 36.8665 109.416C37.1945 109.055 37.5805 108.784 38.0235 108.603C38.4675 108.422 38.9395 108.332 39.4415 108.332C39.9555 108.332 40.4315 108.425 40.8685 108.611C41.3055 108.797 41.6845 109.071 42.0065 109.432C42.3275 109.793 42.5785 110.243 42.7585 110.779C42.9385 111.316 43.0285 111.935 43.0285 112.636C43.0285 113.349 42.9385 113.974 42.7585 114.51Z" fill="#956829"/>
<path d="M140.871 108.244C140.395 107.718 139.823 107.314 139.154 107.032C138.485 106.751 137.759 106.61 136.974 106.61C136.164 106.61 135.415 106.748 134.727 107.025C134.039 107.302 133.444 107.7 132.943 108.221C132.441 108.742 132.046 109.374 131.757 110.118C131.468 110.862 131.323 111.702 131.323 112.637C131.323 113.583 131.468 114.428 131.757 115.172C132.046 115.916 132.442 116.548 132.943 117.069C133.444 117.59 134.039 117.989 134.727 118.265C135.415 118.541 136.164 118.68 136.974 118.68C137.758 118.68 138.485 118.539 139.154 118.258C139.822 117.976 140.395 117.572 140.871 117.046C141.347 116.52 141.72 115.885 141.99 115.141C142.26 114.397 142.395 113.563 142.395 112.638C142.395 111.713 142.26 110.882 141.99 110.143C141.72 109.403 141.347 108.77 140.871 108.244ZM140.196 114.51C140.016 115.047 139.765 115.498 139.444 115.865C139.122 116.232 138.743 116.508 138.306 116.694C137.869 116.88 137.393 116.973 136.879 116.973C136.378 116.973 135.905 116.88 135.461 116.694C135.017 116.508 134.632 116.234 134.304 115.873C133.976 115.512 133.719 115.06 133.533 114.518C133.346 113.976 133.253 113.349 133.253 112.637C133.253 111.925 133.346 111.3 133.533 110.763C133.719 110.227 133.977 109.777 134.304 109.416C134.632 109.055 135.018 108.784 135.461 108.603C135.905 108.422 136.377 108.332 136.879 108.332C137.393 108.332 137.869 108.425 138.306 108.611C138.743 108.797 139.122 109.071 139.444 109.432C139.765 109.793 140.016 110.243 140.196 110.779C140.376 111.316 140.466 111.935 140.466 112.636C140.466 113.349 140.376 113.974 140.196 114.51Z" fill="#956829"/>
<path d="M56.7195 106.976H54.7545L50.6215 111.654H50.4345V106.976H48.8755V118.314H50.4345V112.964H50.6835L54.8635 118.314H56.9225L52.1035 112.169L56.7195 106.976Z" fill="#956829"/>
<path d="M66.4845 115.318H66.4125L63.4615 106.976H61.0685V118.314H62.8495V110.142H62.9395L65.6025 116.84L66.1215 118.115C66.2625 118.295 66.5375 118.291 66.6725 118.106L67.1495 116.84L69.8665 110.142H69.9565V118.314H71.7375V106.976H69.4895L66.4845 115.318Z" fill="#956829"/>
<path d="M79.2395 106.976L75.6995 118.314H77.3995L78.0385 115.8H82.3895L83.0605 118.314H84.7605L81.2365 106.976H79.2395ZM78.4905 114.302L80.1745 109.33H80.2525L81.9365 114.302H78.4905Z" fill="#956829"/>
<path d="M96.4875 113.329C96.3355 113.152 96.1595 113.012 95.9585 112.908C95.7575 112.804 95.5545 112.721 95.3475 112.658C95.7365 112.513 96.0835 112.245 96.3875 111.855C96.6915 111.465 96.8435 110.896 96.8435 110.147C96.8435 109.128 96.5085 108.325 95.8405 107.737C95.1715 107.15 94.2235 106.856 92.9955 106.856H88.2715V118.194H90.0955V113.531H93.3055C93.9015 113.531 94.3605 113.653 94.6825 113.898C95.0045 114.142 95.1655 114.545 95.1655 115.107V118.195H95.2935H97.0015C97.0015 118.195 97.0085 117.712 97.0085 117.618V114.951C97.0085 114.577 96.9595 114.257 96.8625 113.992C96.7645 113.726 96.6395 113.506 96.4875 113.329ZM94.5365 111.652C94.1895 111.938 93.7125 112.081 93.1045 112.081H90.0945V108.416H92.9215C93.6515 108.416 94.1895 108.572 94.5355 108.884C94.8825 109.196 95.0555 109.648 95.0555 110.241C95.0555 110.896 94.8825 111.366 94.5365 111.652Z" fill="#956829"/>
<path d="M167.613 113.329C167.461 113.152 167.285 113.012 167.084 112.908C166.883 112.804 166.68 112.721 166.473 112.658C166.862 112.513 167.209 112.245 167.513 111.855C167.817 111.465 167.969 110.896 167.969 110.147C167.969 109.128 167.634 108.325 166.966 107.737C166.297 107.15 165.349 106.856 164.121 106.856H159.397V118.194H161.221V113.531H164.431C165.027 113.531 165.486 113.653 165.808 113.898C166.13 114.142 166.291 114.545 166.291 115.107V118.195H166.419H168.127C168.127 118.195 168.134 117.712 168.134 117.618V114.951C168.134 114.577 168.085 114.257 167.988 113.992C167.889 113.726 167.765 113.506 167.613 113.329ZM165.661 111.652C165.314 111.938 164.837 112.081 164.229 112.081H161.219V108.416H164.046C164.776 108.416 165.314 108.572 165.66 108.884C166.007 109.196 166.18 109.648 166.18 110.241C166.181 110.896 166.008 111.366 165.661 111.652Z" fill="#956829"/>
<path d="M110.694 106.976H108.439L103.697 111.654H103.482V106.976H101.693V118.314H103.482V112.964H103.769L108.564 118.314H110.926L105.397 112.169L110.694 106.976Z" fill="#956829"/>
<path d="M124.341 112.138L121.737 106.976H119.974L123.483 113.885V118.314H125.183V113.853L128.661 106.976H126.93L124.341 112.138Z" fill="#956829"/>
<path d="M152.802 114.415C152.802 114.914 152.755 115.33 152.662 115.663C152.568 115.996 152.428 116.264 152.241 116.466C152.054 116.669 151.822 116.812 151.547 116.895C151.271 116.978 150.957 117.02 150.603 117.02C150.229 117.02 149.893 116.979 149.597 116.895C149.301 116.812 149.054 116.669 148.856 116.466C148.658 116.263 148.508 115.998 148.404 115.67C148.3 115.343 148.248 114.929 148.248 114.43V106.975H146.704V114.336C146.704 115.116 146.79 115.774 146.961 116.309C147.132 116.845 147.384 117.279 147.717 117.611C148.05 117.944 148.458 118.183 148.941 118.328C149.424 118.473 149.978 118.546 150.602 118.546C151.205 118.546 151.74 118.473 152.208 118.328C152.676 118.183 153.068 117.941 153.385 117.603C153.702 117.265 153.944 116.826 154.11 116.285C154.276 115.744 154.36 115.074 154.36 114.273V106.974H152.8V114.415H152.802Z" fill="#956829"/>
<path d="M191.788 118.314H199.651V116.77H193.825V113.261H199.57V111.732H193.825V108.535H199.651V106.976H191.788V118.314Z" fill="#956829"/>
<path d="M211.807 113.237C211.177 112.67 210.133 112.222 208.674 111.892C208.117 111.768 207.656 111.64 207.291 111.506C206.926 111.372 206.637 111.23 206.426 111.081C206.213 110.932 206.064 110.767 205.978 110.586C205.891 110.406 205.849 110.202 205.849 109.975C205.849 109.511 206.074 109.137 206.525 108.854C206.976 108.571 207.566 108.429 208.296 108.429C208.707 108.429 209.062 108.481 209.36 108.584C209.658 108.687 209.897 108.829 210.076 109.009C210.255 109.19 210.387 109.401 210.474 109.643C210.56 109.885 210.603 110.145 210.603 110.424L212.553 110.269C212.553 109.712 212.447 109.228 212.235 108.816C212.023 108.404 211.728 108.061 211.35 107.788C210.972 107.515 210.521 107.312 209.997 107.177C209.473 107.043 208.893 106.976 208.256 106.976C207.699 106.976 207.158 107.04 206.634 107.169C206.11 107.298 205.646 107.486 205.242 107.733C204.837 107.98 204.512 108.29 204.267 108.661C204.021 109.032 203.899 109.455 203.899 109.929C203.899 110.434 203.992 110.87 204.177 111.235C204.363 111.601 204.631 111.918 204.983 112.186C205.334 112.454 205.769 112.681 206.286 112.866C206.803 113.052 207.393 113.222 208.057 113.376C208.985 113.582 209.655 113.84 210.066 114.149C210.477 114.458 210.683 114.85 210.683 115.324C210.683 115.922 210.454 116.381 209.997 116.7C209.539 117.019 208.939 117.179 208.197 117.179C207.746 117.179 207.361 117.117 207.043 116.994C206.725 116.87 206.456 116.708 206.237 116.507C206.018 116.306 205.849 116.079 205.73 115.827C205.611 115.575 205.531 115.319 205.491 115.062L203.502 115.464C203.568 115.98 203.74 116.436 204.019 116.832C204.297 117.229 204.649 117.564 205.073 117.837C205.498 118.11 205.981 118.319 206.525 118.463C207.069 118.607 207.652 118.679 208.276 118.679C208.926 118.679 209.526 118.604 210.076 118.455C210.626 118.306 211.1 118.092 211.498 117.813C211.896 117.535 212.204 117.192 212.423 116.785C212.642 116.378 212.751 115.917 212.751 115.401C212.752 114.526 212.437 113.804 211.807 113.237Z" fill="#956829"/>
<path d="M247.898 118.314H255.762V116.77H249.935V113.261H255.68V111.732H249.935V108.535H255.762V106.976H247.898V118.314Z" fill="#956829"/>
<path d="M242.717 113.237C242.087 112.67 241.043 112.222 239.584 111.892C239.027 111.768 238.566 111.64 238.201 111.506C237.836 111.372 237.547 111.23 237.336 111.081C237.124 110.932 236.974 110.767 236.888 110.586C236.801 110.406 236.759 110.202 236.759 109.975C236.759 109.511 236.984 109.137 237.435 108.854C237.886 108.571 238.476 108.429 239.206 108.429C239.617 108.429 239.972 108.481 240.27 108.584C240.568 108.687 240.807 108.829 240.986 109.009C241.165 109.19 241.297 109.401 241.384 109.643C241.47 109.885 241.513 110.145 241.513 110.424L243.463 110.269C243.463 109.712 243.357 109.228 243.145 108.816C242.933 108.404 242.638 108.061 242.26 107.788C241.882 107.515 241.431 107.312 240.907 107.177C240.383 107.043 239.803 106.976 239.166 106.976C238.609 106.976 238.068 107.04 237.544 107.169C237.02 107.298 236.556 107.486 236.152 107.733C235.747 107.98 235.422 108.29 235.177 108.661C234.931 109.032 234.809 109.455 234.809 109.929C234.809 110.434 234.902 110.87 235.087 111.235C235.273 111.601 235.541 111.918 235.893 112.186C236.244 112.454 236.679 112.681 237.196 112.866C237.713 113.052 238.303 113.222 238.967 113.376C239.895 113.582 240.565 113.84 240.976 114.149C241.387 114.458 241.593 114.85 241.593 115.324C241.593 115.922 241.364 116.381 240.907 116.7C240.449 117.019 239.849 117.179 239.107 117.179C238.656 117.179 238.271 117.117 237.953 116.994C237.635 116.87 237.366 116.708 237.147 116.507C236.928 116.306 236.759 116.079 236.64 115.827C236.521 115.575 236.441 115.319 236.401 115.062L234.412 115.464C234.478 115.98 234.65 116.436 234.929 116.832C235.207 117.229 235.559 117.564 235.983 117.837C236.408 118.11 236.891 118.319 237.435 118.463C237.979 118.607 238.562 118.679 239.186 118.679C239.836 118.679 240.436 118.604 240.986 118.455C241.536 118.306 242.01 118.092 242.408 117.813C242.806 117.534 243.114 117.192 243.333 116.785C243.552 116.378 243.661 115.917 243.661 115.401C243.662 114.526 243.347 113.804 242.717 113.237Z" fill="#956829"/>
<path d="M216.603 108.535H219.66V118.314H221.313V108.535H224.339V106.976H216.603V108.535Z" fill="#956829"/>
<path d="M261.159 106.976H259.599V118.314H266.648V116.77H261.159V106.976Z" fill="#956829"/>
<path d="M278.35 108.535V106.976H271.145V118.314H272.987V113.261H278.184V111.732H272.987V108.535H278.35Z" fill="#956829"/>
</svg>
