<svg width="1112" height="78" viewBox="0 0 1112 78" fill="none" xmlns="http://www.w3.org/2000/svg">
<path d="M37.6254 60.3292L0.0266302 1.3913L0.718525 25.1492L36.5753 76.6678C36.5753 76.6678 35.3017 72.8153 35.6193 68.0708C35.8298 64.9272 37.6254 60.3292 37.6254 60.3292Z" fill="url(#paint0_linear_1_184)"/>
<path d="M1073.37 0.545654L1109.92 59.7517H36.5755L0.0264893 1.36796L1073.37 0.545654Z" fill="url(#paint1_linear_1_184)"/>
<path d="M1109.92 59.7517H36.5727C36.5727 59.7517 34.2529 65.0269 34.3366 68.6125C34.4131 71.8957 36.5727 76.6677 36.5727 76.6677H1109.17C1109.17 76.6677 1111.34 71.3929 1111.41 67.807C1111.47 64.5996 1109.92 59.7517 1109.92 59.7517Z" fill="#FFFEFA"/>
<defs>
<linearGradient id="paint0_linear_1_184" x1="17.9004" y1="0.696204" x2="20.8786" y2="77.2782" gradientUnits="userSpaceOnUse">
<stop stop-color="#7D7B79"/>
<stop offset="1" stop-color="#EFE5D8"/>
</linearGradient>
<linearGradient id="paint1_linear_1_184" x1="554.975" y1="0.545654" x2="554.975" y2="59.7517" gradientUnits="userSpaceOnUse">
<stop stop-color="#9A9793"/>
<stop offset="1" stop-color="#EFE5D8"/>
</linearGradient>
</defs>
</svg>
