<svg width="573" height="492" viewBox="0 0 573 492" fill="none" xmlns="http://www.w3.org/2000/svg">
<g clip-path="url(#clip0_381_217)">
<path d="M468.13 205.67C468.13 196.38 463.18 191.19 453.83 190.14C441.88 188.79 429.96 187.14 418 185.87C415.42 185.59 414.59 184.46 413.69 182.21C408.517 169.25 403.183 156.353 397.69 143.52C396.69 141.26 396.69 139.82 398.24 137.84C405.88 128.35 413.37 118.74 420.86 109.14C426.41 102.04 426.09 95.14 419.8 88.77C406.38 75.2633 392.923 61.7967 379.43 48.37C373.05 42 366.1 41.63 359 47.13C349.51 54.52 340 61.92 330.65 69.47C328.5 71.21 326.9 71.47 324.19 70.32C311.55 64.82 298.76 59.6 286 54.47C283.79 53.59 282.55 52.83 282.28 50.2C281 38.2 279.36 26.33 278.04 14.39C276.92 4.87 271.7 0 262 0C243.26 0 224.52 0 205.78 0C196.43 0 191.2 4.9 190.15 14.19C188.79 26.19 187.15 38.05 185.88 50C185.6 52.51 184.64 53.48 182.32 54.39C169.34 59.5433 156.44 64.8767 143.62 70.39C141.1 71.47 139.62 71.25 137.56 69.6C128.19 62.06 118.69 54.68 109.2 47.28C101.89 41.58 95.08 41.99 88.49 48.55C75.1033 61.8833 61.7467 75.24 48.42 88.62C42.08 95.05 41.66 102 47.16 109C54.64 118.63 62.16 128.24 69.77 137.72C71.48 139.84 71.4 141.38 70.35 143.8C64.9033 156.467 59.6333 169.227 54.54 182.08C53.54 184.56 52.54 185.65 49.86 185.94C38.86 187.15 27.86 189.02 16.76 189.82C9 190.39 3.48 193.33 0 200.21V267.86C3.41 274.86 9 277.71 16.71 278.29C27.77 279.11 38.71 281.03 49.79 282.16C52.79 282.47 53.67 283.89 54.67 286.37C59.67 299.05 64.91 311.68 70.35 324.19C71.5 326.84 71.35 328.43 69.57 330.63C62 340 54.64 349.49 47.26 359C41.78 366 42.18 373.07 48.44 379.38C61.8533 392.887 75.2933 406.36 88.76 419.8C95.11 426.14 102 426.51 109.12 420.94C118.61 413.55 128.12 406.16 137.45 398.61C139.62 396.86 141.22 396.61 143.9 397.8C156.567 403.293 169.32 408.557 182.16 413.59C184.68 414.59 185.68 415.67 185.96 418.29C187.17 429.34 189.05 440.29 189.84 451.37C190.4 459.11 193.32 464.67 200.24 468.09H267.9C274.9 464.69 277.73 459.09 278.3 451.37C279.14 440.15 280.83 428.99 282.43 417.85C282.66 417.006 283.068 416.221 283.627 415.549C284.186 414.876 284.883 414.331 285.67 413.95C297.93 408.69 310.33 403.74 322.6 398.5C319.111 396.522 316.317 393.515 314.6 389.89L313.6 387.76V357.2C286.232 374.876 253.755 382.93 221.299 380.092C188.843 377.254 158.258 363.684 134.373 341.526C110.488 319.369 94.6659 289.886 89.4043 257.733C84.1427 225.581 89.742 192.593 105.318 163.977C120.894 135.362 145.558 112.751 175.417 99.715C205.275 86.6793 238.625 83.9617 270.2 91.9915C301.774 100.021 329.774 118.341 349.777 144.057C369.781 169.773 380.647 201.42 380.66 234C380.656 241.364 380.101 248.718 379 256C382.34 256.556 385.479 257.968 388.11 260.1L388.85 260.68C392.49 263.52 396.24 266.44 399.95 269.38C404.1 267.62 408.38 265.85 412.9 264.03C413.14 262.03 413.38 260.03 413.63 258.03C413.97 255.2 414.33 252.27 414.63 249.42C415.77 239.32 423.02 232.79 433.1 232.79H463C464.727 232.783 466.448 232.978 468.13 233.37C468.143 224.157 468.143 214.923 468.13 205.67Z" fill="black"/>
<path d="M304.94 176.89L255.89 249.71L234.08 230.42L150.17 315.86" stroke="black" stroke-width="20.46" stroke-linecap="round" stroke-linejoin="round"/>
<path d="M287 174.28L315.75 192.47C316.062 192.685 316.428 192.807 316.807 192.823C317.185 192.838 317.56 192.745 317.888 192.556C318.216 192.366 318.483 192.087 318.659 191.752C318.835 191.416 318.911 191.037 318.88 190.66L317.71 161C317.706 160.668 317.62 160.342 317.458 160.052C317.297 159.762 317.066 159.517 316.786 159.338C316.507 159.159 316.187 159.053 315.856 159.029C315.525 159.005 315.193 159.064 314.89 159.2L287.29 170.63C286.923 170.757 286.602 170.989 286.365 171.296C286.127 171.604 285.985 171.973 285.954 172.36C285.923 172.747 286.006 173.135 286.192 173.476C286.377 173.816 286.658 174.096 287 174.28Z" fill="black"/>
<path d="M309.61 299.59L309.55 333.59C309.536 333.967 309.629 334.339 309.818 334.665C310.007 334.991 310.284 335.258 310.617 335.433C310.95 335.609 311.326 335.687 311.702 335.658C312.078 335.629 312.438 335.494 312.74 335.27L337.19 318.51C337.469 318.328 337.698 318.08 337.856 317.787C338.014 317.495 338.097 317.168 338.097 316.835C338.097 316.502 338.014 316.175 337.856 315.883C337.698 315.59 337.469 315.342 337.19 315.16L312.81 297.91C312.508 297.683 312.147 297.546 311.769 297.515C311.392 297.485 311.014 297.562 310.679 297.738C310.344 297.914 310.065 298.181 309.876 298.509C309.687 298.837 309.595 299.212 309.61 299.59Z" fill="black"/>
<path d="M133.33 165.63L167.33 165.69C167.706 165.702 168.077 165.608 168.402 165.418C168.726 165.229 168.991 164.952 169.165 164.619C169.339 164.286 169.416 163.91 169.387 163.536C169.358 163.161 169.224 162.802 169 162.5L152.24 138.05C152.058 137.772 151.81 137.543 151.517 137.384C151.225 137.226 150.897 137.143 150.565 137.143C150.232 137.143 149.905 137.226 149.612 137.384C149.32 137.543 149.072 137.772 148.89 138.05L131.64 162.43C131.412 162.733 131.275 163.095 131.245 163.474C131.214 163.852 131.293 164.231 131.47 164.566C131.647 164.902 131.916 165.18 132.245 165.368C132.575 165.557 132.951 165.648 133.33 165.63Z" fill="black"/>
<path d="M150.09 317.25H316.99" stroke="black" stroke-width="20.46" stroke-linecap="round" stroke-linejoin="round"/>
<path d="M150.17 312.64V155.56" stroke="black" stroke-width="20.46" stroke-linecap="round" stroke-linejoin="round"/>
<path d="M564.92 344.08C558.58 343.37 552.24 342.5 545.92 341.81C544.55 341.67 544.11 341.06 543.63 339.87C540.883 332.99 538.047 326.14 535.12 319.32C534.835 318.856 534.71 318.313 534.762 317.771C534.814 317.23 535.042 316.72 535.41 316.32C539.47 311.32 543.41 306.17 547.41 301.07C550.41 297.29 550.18 293.61 546.85 290.24C539.71 283.073 532.557 275.92 525.39 268.78C524.679 267.976 523.812 267.324 522.844 266.862C521.875 266.399 520.823 266.137 519.75 266.09C517.845 266.156 516.017 266.86 514.56 268.09C509.56 272.01 504.48 275.94 499.5 279.96C498.979 280.454 498.298 280.745 497.58 280.78C497.056 280.756 496.543 280.627 496.07 280.4C489.35 277.47 482.55 274.7 475.74 271.98C474.56 271.51 473.91 271.11 473.74 269.72C473.06 263.37 472.2 257.04 471.49 250.72C471.16 247.72 470.05 245.6 468.13 244.38C466.586 243.459 464.806 243.011 463.01 243.09H433.16C428.16 243.09 425.4 245.7 424.85 250.64C424.13 256.98 423.27 263.31 422.58 269.64C422.567 270.184 422.374 270.708 422.032 271.131C421.691 271.554 421.219 271.852 420.69 271.98C413.79 274.707 406.937 277.54 400.13 280.48C399.685 280.69 399.202 280.809 398.71 280.83C398.037 280.799 397.397 280.526 396.91 280.06C391.91 276.06 386.91 272.13 381.84 268.2C380.506 267.063 378.869 266.34 377.13 266.12C376.944 266.11 376.757 266.11 376.57 266.12C375.475 266.178 374.404 266.455 373.418 266.934C372.432 267.414 371.552 268.085 370.83 268.91C363.723 275.983 356.63 283.077 349.55 290.19C346.16 293.59 345.94 297.26 348.87 301.02C351.8 304.78 354.87 308.73 357.87 312.56L360.87 316.28C361.269 316.71 361.515 317.26 361.569 317.844C361.624 318.428 361.483 319.014 361.17 319.51C358.27 326.237 355.47 333.013 352.77 339.84C352.641 340.408 352.328 340.918 351.879 341.29C351.431 341.663 350.872 341.877 350.29 341.9C344.42 342.54 338.58 343.53 332.7 343.95C332.059 343.994 331.421 344.078 330.79 344.2C329.28 344.436 327.852 345.041 326.631 345.96C325.411 346.879 324.435 348.085 323.79 349.47V385.4C325.6 389.11 328.56 390.64 332.66 390.95C338.54 391.38 344.37 392.4 350.24 393.01C351.84 393.17 352.3 393.92 352.83 395.24C355.52 401.97 358.27 408.69 361.16 415.33C361.484 415.866 361.618 416.496 361.542 417.117C361.466 417.739 361.184 418.318 360.74 418.76L359 420.88C355.59 425.15 352.23 429.46 348.88 433.78C345.97 437.53 346.17 441.26 349.5 444.61C356.627 451.79 363.767 458.95 370.92 466.09C371.628 466.887 372.488 467.535 373.449 467.995C374.411 468.456 375.455 468.719 376.52 468.77C378.443 468.687 380.283 467.958 381.74 466.7C386.74 462.77 391.82 458.84 396.79 454.83C397.306 454.34 397.979 454.049 398.69 454.01C399.222 454.032 399.743 454.165 400.22 454.4C406.94 457.32 413.73 460.11 420.54 462.79C421.105 462.924 421.608 463.243 421.97 463.696C422.333 464.149 422.533 464.71 422.54 465.29C423.18 471.15 424.18 476.98 424.6 482.86C424.89 486.97 426.44 489.92 430.12 491.75H466.12C469.82 489.94 471.33 486.96 471.64 482.86C472.09 476.86 472.98 470.97 473.83 465.05C473.95 464.601 474.166 464.184 474.463 463.827C474.76 463.469 475.131 463.18 475.55 462.98C482.45 459.98 489.41 457.25 496.3 454.29C496.706 454.094 497.149 453.985 497.6 453.97C498.238 454.005 498.843 454.263 499.31 454.7C504.357 458.74 509.443 462.74 514.57 466.7C516.017 467.927 517.834 468.631 519.73 468.7C520.809 468.654 521.868 468.391 522.842 467.925C523.817 467.459 524.687 466.801 525.4 465.99C532.573 458.85 539.72 451.693 546.84 444.52C550.11 441.23 550.35 437.52 547.53 433.88C543.53 428.76 539.58 423.67 535.53 418.64C535.101 418.187 534.835 417.603 534.775 416.982C534.715 416.36 534.865 415.737 535.2 415.21C538.08 408.543 540.853 401.84 543.52 395.1C543.656 394.494 543.991 393.952 544.471 393.558C544.951 393.165 545.549 392.944 546.17 392.93C552.44 392.26 558.69 391.4 564.96 390.7C569.91 390.13 572.52 387.36 572.53 382.41C572.53 372.37 572.53 362.337 572.53 352.31C572.52 347.4 569.89 344.64 564.92 344.08ZM448.17 440.73C433.666 440.732 419.488 436.433 407.427 428.376C395.367 420.32 385.967 408.868 380.415 395.469C374.863 382.07 373.41 367.325 376.238 353.1C379.066 338.875 386.049 325.808 396.304 315.551C406.559 305.295 419.625 298.31 433.85 295.48C448.075 292.649 462.82 294.101 476.22 299.651C489.62 305.201 501.073 314.6 509.131 326.659C517.189 338.718 521.49 352.896 521.49 367.4C521.507 377.034 519.622 386.576 515.944 395.48C512.265 404.384 506.866 412.474 500.054 419.287C493.242 426.099 485.153 431.5 476.249 435.18C467.346 438.86 457.804 440.746 448.17 440.73Z" fill="black"/>
<path d="M448.17 307.05C438.685 307.042 429.332 309.275 420.873 313.565C412.414 317.855 405.087 324.083 399.49 331.74L398.78 332.74C392.653 341.466 388.947 351.659 388.039 362.283C387.131 372.906 389.053 383.58 393.61 393.22C394.9 395.957 396.398 398.591 398.09 401.1C403.9 409.75 411.852 416.749 421.17 421.414C430.488 426.08 440.856 428.252 451.263 427.721C461.67 427.19 471.763 423.974 480.558 418.384C489.353 412.795 496.55 405.023 501.45 395.826C506.35 386.629 508.785 376.32 508.518 365.903C508.251 355.485 505.291 345.315 499.926 336.381C494.561 327.447 486.975 320.055 477.905 314.923C468.835 309.792 458.591 307.097 448.17 307.1V307.05ZM477.73 377.05H448.17C446.799 377.05 445.484 376.505 444.514 375.536C443.545 374.566 443 373.251 443 371.88V342.88C443 341.509 443.545 340.194 444.514 339.224C445.484 338.255 446.799 337.71 448.17 337.71C449.541 337.71 450.856 338.255 451.826 339.224C452.795 340.194 453.34 341.509 453.34 342.88V366.74H477.73C478.427 366.709 479.124 366.82 479.777 367.066C480.43 367.311 481.027 367.687 481.532 368.17C482.036 368.652 482.437 369.232 482.712 369.874C482.986 370.516 483.127 371.207 483.127 371.905C483.127 372.603 482.986 373.294 482.712 373.936C482.437 374.578 482.036 375.157 481.532 375.64C481.027 376.123 480.43 376.498 479.777 376.744C479.124 376.99 478.427 377.101 477.73 377.07V377.05Z" fill="black"/>
</g>
<defs>
<clipPath id="clip0_381_217">
<rect width="572.54" height="491.75" fill="white"/>
</clipPath>
</defs>
</svg>
