<svg width="580" height="578" viewBox="0 0 580 578" fill="none" xmlns="http://www.w3.org/2000/svg">
<g clip-path="url(#clip0_381_238)">
<path d="M454.94 425.14C433.312 456.646 403.238 481.414 368.17 496.6C371.985 502.637 375.137 509.067 377.57 515.78C403.173 504.592 426.444 488.689 446.17 468.9C457.841 457.243 468.197 444.339 477.05 430.42C469.525 429.39 462.119 427.621 454.94 425.14ZM511.49 306.69C508.161 305.957 504.792 305.423 501.4 305.09C500.2 304.97 498.98 304.88 497.76 304.81C496.09 304.71 494.4 304.66 492.71 304.66C491.87 304.66 491.04 304.66 490.21 304.66C490.22 304.753 490.22 304.847 490.21 304.94C490.28 306.94 490.31 308.94 490.31 311.03C490.375 348.064 480.193 384.394 460.89 416C467.084 417.955 473.444 419.341 479.89 420.14C480.94 420.24 482 420.32 483.06 420.4C501.813 387.034 511.62 349.385 511.53 311.11C511.54 309.61 511.53 308.15 511.49 306.69ZM93.4601 202C78.2759 229.048 68.9603 258.992 66.1201 289.88C70.8828 292.155 76.0003 293.596 81.2501 294.14C82.8501 294.3 84.4701 294.39 86.1201 294.39C86.4201 294.39 86.7301 294.39 87.0301 294.39V294.04C89.4926 264.507 98.4713 235.887 113.32 210.24C107.44 205.971 100.636 203.148 93.4601 202ZM288.34 87.8604C280.973 87.8604 273.66 88.2137 266.4 88.9203C270.885 90.9316 275.661 92.2144 280.55 92.7204C282.15 92.8804 283.77 92.9704 285.42 92.9704C287.057 92.9698 288.692 92.883 290.32 92.7104C295.523 92.1686 300.595 90.7449 305.32 88.5004C299.72 88.0704 294 87.8604 288.34 87.8604ZM294.11 103.63C292.9 103.51 291.69 103.42 290.47 103.35C288.8 103.25 287.11 103.2 285.42 103.2C283.73 103.2 282.04 103.2 280.37 103.35C279.15 103.42 277.94 103.51 276.74 103.63C264.847 104.799 253.323 108.411 242.89 114.24C269.598 108.093 297.273 107.413 324.25 112.24C314.808 107.567 304.596 104.649 294.11 103.63ZM249.88 91.1404C204.615 98.9664 162.901 120.667 130.51 153.24C118.656 165.072 108.165 178.194 99.2301 192.36C106.296 194.029 112.976 197.037 118.91 201.22C141.862 165.91 175.226 138.61 214.38 123.1C226.296 110.554 241.317 101.381 257.92 96.5104C255.093 94.9508 252.404 93.1543 249.88 91.1404ZM358.14 500.61C311.484 517.79 260.131 517.16 213.91 498.84C209.781 504.711 206.392 511.069 203.82 517.77C256.286 539.057 314.851 539.771 367.82 519.77C365.397 513.009 362.145 506.573 358.14 500.61ZM122.38 426.07C116.876 427.816 111.251 429.153 105.55 430.07H105.38H105.2C103.41 430.29 101.61 430.49 99.8001 430.65C122.758 466.63 155.454 495.356 194.09 513.49C196.694 506.841 200.017 500.497 204 494.57C171.183 479.406 143.007 455.759 122.38 426.07ZM86.3801 311.07C86.3801 309.07 86.3801 307.07 86.4801 305.07C86.4702 304.944 86.4702 304.817 86.4801 304.69H86.1401C84.4401 304.69 82.7601 304.69 81.0901 304.84C79.8701 304.91 78.6601 305 77.4601 305.12C73.3285 305.527 69.2314 306.229 65.2001 307.22C65.2001 308.51 65.2001 309.8 65.2001 311.1C65.0945 349.406 74.9023 387.087 93.6701 420.48C97.1101 420.3 100.51 419.99 103.88 419.57C108.072 418.904 112.22 417.982 116.3 416.81C96.675 385.036 86.3029 348.417 86.3501 311.07H86.3801ZM446.17 153.24C412.592 119.466 369.02 97.4155 321.92 90.3604C319.124 92.6998 316.11 94.7659 312.92 96.5303C327.891 100.912 341.602 108.796 352.92 119.53L353.13 119.73C396.579 134.548 433.723 163.655 458.5 202.3C464.271 197.953 470.818 194.745 477.79 192.85C468.778 178.497 458.17 165.209 446.17 153.24ZM483.4 202.39C476.31 203.835 469.657 206.917 463.97 211.39C478.442 236.762 487.193 264.991 489.61 294.1C489.615 294.17 489.615 294.24 489.61 294.31C490.61 294.39 491.66 294.42 492.7 294.42C494.334 294.42 495.966 294.333 497.59 294.16L510.59 290.84C507.87 259.769 498.603 229.625 483.4 202.39Z" fill="black"/>
<path d="M172.46 378.61C158.314 397.029 138.628 410.42 116.3 416.81C112.22 417.982 108.072 418.904 103.88 419.57C100.51 419.99 97.11 420.3 93.67 420.48C91.17 420.607 88.6533 420.673 86.12 420.68C81.8 420.68 77.5233 420.487 73.29 420.1C58.8208 418.278 44.8694 413.549 32.2746 406.197C19.6798 398.846 8.7016 389.023 0 377.32C3.19453 358.453 12.5055 341.161 26.4979 328.108C40.4902 315.056 58.3871 306.967 77.43 305.09C78.63 304.97 79.84 304.88 81.06 304.81C82.73 304.71 84.41 304.66 86.11 304.66H86.45C88.03 304.66 89.6 304.71 91.16 304.81C92.38 304.88 93.6 304.97 94.8 305.09C114.059 307.015 132.133 315.279 146.189 328.584C160.244 341.89 169.484 359.486 172.46 378.61Z" fill="black"/>
<path d="M87.06 294.06H86.12C84.51 294.06 82.89 294.06 81.25 294.19C82.85 294.35 84.47 294.44 86.12 294.44C86.42 294.44 86.73 294.44 87.03 294.44C88.38 294.44 89.71 294.34 91.03 294.2C89.69 294.11 88.37 294.07 87.06 294.06Z" fill="black"/>
<path d="M132.61 247.94C132.611 259.425 128.361 270.504 120.677 279.04C112.994 287.577 102.422 292.967 91 294.17C89.69 294.31 88.36 294.4 87 294.41C86.7 294.41 86.3899 294.41 86.09 294.41C84.4399 294.41 82.82 294.32 81.22 294.16C69.3856 292.903 58.4839 287.156 50.7603 278.102C43.0367 269.047 39.0795 257.376 39.7037 245.491C40.3279 233.607 45.4861 222.414 54.1156 214.219C62.7452 206.024 74.189 201.45 86.09 201.44C88.5481 201.44 91.0024 201.634 93.43 202.02C104.35 203.762 114.29 209.34 121.466 217.753C128.642 226.166 132.582 236.862 132.58 247.92L132.61 247.94Z" fill="black"/>
<path d="M371.76 177.15C354.968 199.065 330.433 213.733 303.18 218.15C297.289 218.889 291.357 219.26 285.42 219.26C281.087 219.26 276.81 219.067 272.59 218.68C258.121 216.859 244.169 212.131 231.574 204.779C218.979 197.427 208.001 187.604 199.3 175.9C202.508 157.041 211.822 139.758 225.81 126.708C239.797 113.658 257.684 105.564 276.72 103.67C277.92 103.55 279.13 103.46 280.35 103.39C282.02 103.29 283.7 103.24 285.4 103.24C287.1 103.24 288.78 103.24 290.45 103.39C291.67 103.46 292.88 103.55 294.09 103.67C313.352 105.582 331.433 113.842 345.489 127.15C359.545 140.459 368.779 158.061 371.74 177.19L371.76 177.15Z" fill="black"/>
<path d="M285.42 92.5903C283.79 92.5903 282.17 92.5903 280.55 92.7203C282.15 92.8803 283.77 92.9703 285.42 92.9703C287.057 92.9698 288.692 92.883 290.32 92.7103C288.68 92.6303 287 92.5903 285.42 92.5903Z" fill="black"/>
<path d="M331.91 46.4901C331.911 52.5966 330.71 58.6435 328.374 64.2857C326.039 69.9278 322.614 75.0547 318.297 79.3735C313.98 83.6924 308.855 87.1186 303.214 89.4567C297.573 91.7948 291.526 92.9988 285.42 93.0001C283.77 93.0001 282.15 92.9101 280.55 92.7501C271.612 91.8087 263.139 88.2967 256.155 82.6393C249.172 76.9819 243.978 69.4216 241.203 60.8736C238.427 52.3256 238.189 43.1562 240.516 34.4755C242.844 25.7948 247.638 17.9748 254.318 11.9622C260.997 5.9495 269.277 2.00192 278.154 0.597245C287.031 -0.807432 296.124 0.391019 304.334 4.04754C312.544 7.70405 319.518 13.6619 324.412 21.1998C329.307 28.7378 331.911 37.5328 331.91 46.5201V46.4901Z" fill="black"/>
<path d="M285.42 103.2C283.72 103.2 282.04 103.2 280.37 103.35C282.03 103.51 283.72 103.58 285.42 103.58C287.12 103.58 288.81 103.51 290.47 103.35C288.8 103.25 287.11 103.2 285.42 103.2Z" fill="black"/>
<path d="M371.76 535.62C354.968 557.535 330.433 572.203 303.18 576.62C297.289 577.359 291.357 577.73 285.42 577.73C281.087 577.73 276.81 577.537 272.59 577.15C258.121 575.329 244.169 570.601 231.574 563.249C218.979 555.897 208.001 546.074 199.3 534.37C202.518 515.515 211.835 498.238 225.82 485.189C239.806 472.141 257.688 464.044 276.72 462.14C277.91 462.02 279.09 461.93 280.29 461.86C281.98 461.76 283.68 461.71 285.4 461.71C287.12 461.71 288.82 461.76 290.51 461.86C291.71 461.93 292.9 462.02 294.09 462.14C313.355 464.045 331.439 472.302 345.496 485.612C359.553 498.922 368.786 516.528 371.74 535.66L371.76 535.62Z" fill="black"/>
<path d="M285.42 451.06C283.79 451.06 282.17 451.06 280.55 451.19C282.15 451.35 283.77 451.44 285.42 451.44C287.057 451.44 288.692 451.353 290.32 451.18C288.67 451.1 287 451.06 285.42 451.06Z" fill="black"/>
<path d="M331.91 405C331.905 417.327 327.005 429.148 318.287 437.864C309.569 446.58 297.747 451.477 285.42 451.48C283.77 451.48 282.15 451.39 280.55 451.23C271.612 450.289 263.139 446.777 256.155 441.119C249.172 435.462 243.978 427.902 241.203 419.354C238.427 410.806 238.189 401.636 240.516 392.955C242.844 384.275 247.638 376.455 254.318 370.442C260.997 364.429 269.277 360.482 278.154 359.077C287.031 357.673 296.124 358.871 304.334 362.528C312.544 366.184 319.518 372.142 324.412 379.68C329.307 387.218 331.911 396.013 331.91 405Z" fill="black"/>
<path d="M285.42 461.67C283.7 461.67 282 461.72 280.31 461.82C281.99 461.98 283.7 462.06 285.42 462.06C287.14 462.06 288.85 461.98 290.53 461.82C288.84 461.72 287.13 461.67 285.42 461.67Z" fill="black"/>
<path d="M579.06 378.61C562.262 400.524 537.726 415.191 510.47 419.61C504.582 420.349 498.654 420.72 492.72 420.72C489.473 420.72 486.257 420.614 483.07 420.4C482.01 420.32 480.95 420.24 479.9 420.14C473.454 419.34 467.094 417.955 460.9 416C439.196 409.134 420.2 395.616 406.6 377.36C409.814 358.503 419.126 341.222 433.107 328.167C447.089 315.112 464.967 307.005 484 305.09C485.21 304.97 486.42 304.88 487.64 304.81C488.48 304.76 489.33 304.72 490.18 304.7C491.03 304.68 491.84 304.7 492.68 304.7C494.37 304.7 496.06 304.7 497.73 304.85C498.95 304.92 500.17 305.01 501.37 305.13C504.762 305.463 508.131 305.997 511.46 306.73C528.655 310.512 544.308 319.397 556.369 332.222C568.431 345.048 576.34 361.216 579.06 378.61Z" fill="black"/>
<path d="M492.71 294.05C491.71 294.05 490.65 294.05 489.61 294.11C489.02 294.11 488.44 294.11 487.85 294.18C488.44 294.24 489.03 294.29 489.63 294.32C490.63 294.4 491.68 294.43 492.72 294.43C494.354 294.43 495.986 294.343 497.61 294.17C496 294.09 494.33 294.05 492.71 294.05Z" fill="black"/>
<path d="M539.2 247.94C539.202 257.112 536.492 266.079 531.41 273.714C526.328 281.35 519.102 287.311 510.64 290.85L497.64 294.17C496.016 294.343 494.383 294.429 492.75 294.43C491.75 294.43 490.68 294.43 489.66 294.32C489.06 294.32 488.47 294.24 487.88 294.18C478.942 293.24 470.468 289.73 463.483 284.074C456.498 278.418 451.303 270.859 448.526 262.312C445.748 253.764 445.508 244.595 447.834 235.914C450.16 227.232 454.952 219.411 461.631 213.397C468.309 207.383 476.588 203.434 485.465 202.027C494.341 200.621 503.435 201.818 511.646 205.473C519.857 209.127 526.832 215.084 531.728 222.621C536.623 230.158 539.229 238.952 539.23 247.94H539.2Z" fill="black"/>
<path d="M492.71 304.66C491.87 304.66 491.04 304.66 490.21 304.66C489.38 304.66 488.51 304.72 487.67 304.77C488.51 304.85 489.36 304.91 490.22 304.94C491.08 304.97 491.88 305 492.72 305C494.42 305 496.1 304.93 497.72 304.77C496.09 304.71 494.4 304.66 492.71 304.66ZM497.61 294.17C502.083 293.709 506.463 292.59 510.61 290.85L497.61 294.17Z" fill="black"/>
</g>
<defs>
<clipPath id="clip0_381_238">
<rect width="579.06" height="577.69" fill="white"/>
</clipPath>
</defs>
</svg>
