<svg width="576" height="576" viewBox="0 0 576 576" fill="none" xmlns="http://www.w3.org/2000/svg">
<g clip-path="url(#clip0_381_229)">
<path d="M12 287.68C12 135.45 135.45 12.0001 287.68 12.0001C330.024 11.9641 371.806 21.6996 409.773 40.449C447.74 59.1983 480.868 86.4558 506.58 120.1" stroke="black" stroke-width="24.08" stroke-linecap="round" stroke-linejoin="round"/>
<path d="M563.32 287.68C563.32 439.91 439.91 563.32 287.68 563.32C244.896 563.355 202.693 553.415 164.422 534.289C126.151 515.163 92.866 487.378 67.21 453.14" stroke="black" stroke-width="24.08" stroke-linecap="round" stroke-linejoin="round"/>
<path d="M537.1 96.8802L470.61 142.2C469.882 142.698 469.304 143.385 468.938 144.187C468.573 144.99 468.434 145.877 468.537 146.753C468.641 147.629 468.981 148.459 469.523 149.155C470.065 149.851 470.786 150.385 471.61 150.7L537 176C537.726 176.283 538.51 176.385 539.285 176.299C540.059 176.213 540.802 175.94 541.448 175.505C542.094 175.07 542.626 174.485 542.997 173.799C543.369 173.114 543.568 172.349 543.58 171.57L544.68 100.92C544.693 100.033 544.461 99.1591 544.01 98.3949C543.558 97.6307 542.905 97.0055 542.122 96.5881C541.339 96.1707 540.456 95.9771 539.57 96.0287C538.684 96.0802 537.829 96.3748 537.1 96.8802Z" fill="black"/>
<path d="M103.85 438L35.7001 480.79C34.9534 481.257 34.0936 481.51 33.2133 481.525C32.3331 481.539 31.4656 481.312 30.7044 480.87C29.9432 480.428 29.3171 479.786 28.8934 479.014C28.4698 478.243 28.2646 477.37 28.3001 476.49L31.3001 406.43C31.3326 405.651 31.5532 404.892 31.943 404.217C32.3329 403.541 32.8803 402.971 33.5387 402.553C34.197 402.136 34.9466 401.883 35.7236 401.819C36.5005 401.754 37.2815 401.878 38.0001 402.18L103.19 429.45C104.005 429.796 104.709 430.359 105.225 431.077C105.741 431.796 106.051 432.642 106.119 433.525C106.187 434.407 106.011 435.291 105.611 436.08C105.211 436.869 104.602 437.534 103.85 438Z" fill="black"/>
<path d="M287.48 258.34C335.026 258.34 373.57 219.796 373.57 172.25C373.57 124.704 335.026 86.1602 287.48 86.1602C239.934 86.1602 201.39 124.704 201.39 172.25C201.39 219.796 239.934 258.34 287.48 258.34Z" fill="black"/>
<path d="M447.37 411.29C416.259 451.845 370.828 478.979 320.37 487.14C309.464 488.514 298.482 489.202 287.49 489.2C279.49 489.2 271.57 488.84 263.73 488.12C236.933 484.751 211.094 475.996 187.769 462.382C164.443 448.767 144.113 430.575 128 408.9C133.965 373.986 151.22 341.992 177.118 317.828C203.016 293.664 236.126 278.665 271.37 275.13C276.66 274.61 282 274.33 287.44 274.33C292.88 274.33 298.25 274.61 303.53 275.13C339.199 278.694 372.675 293.998 398.708 318.641C424.74 343.283 441.856 375.87 447.37 411.29Z" fill="black"/>
</g>
<defs>
<clipPath id="clip0_381_229">
<rect width="575.36" height="575.36" fill="white"/>
</clipPath>
</defs>
</svg>
