<svg width="578" height="477" viewBox="0 0 578 477" fill="none" xmlns="http://www.w3.org/2000/svg">
<g clip-path="url(#clip0_381_257)">
<path d="M209.57 419.15C94 419.15 0 325.13 0 209.57C0 94.01 94 0 209.57 0C211.059 -2.21907e-08 212.534 0.293318 213.91 0.863206C215.285 1.43309 216.536 2.26839 217.589 3.32141C218.642 4.37443 219.477 5.62454 220.047 7.00037C220.617 8.3762 220.91 9.85081 220.91 11.34C220.91 12.8292 220.617 14.3038 220.047 15.6796C219.477 17.0555 218.642 18.3056 217.589 19.3586C216.536 20.4116 215.285 21.2469 213.91 21.8168C212.534 22.3867 211.059 22.68 209.57 22.68C106.51 22.68 22.67 106.52 22.67 209.57C22.67 312.62 106.51 396.48 209.57 396.48C211.087 396.435 212.597 396.695 214.012 397.244C215.427 397.794 216.716 398.621 217.805 399.678C218.894 400.735 219.76 402 220.351 403.398C220.942 404.795 221.247 406.297 221.247 407.815C221.247 409.333 220.942 410.835 220.351 412.232C219.76 413.63 218.894 414.895 217.805 415.952C216.716 417.009 215.427 417.836 214.012 418.386C212.597 418.935 211.087 419.195 209.57 419.15Z" fill="black"/>
<path d="M209.57 415C206.564 414.998 203.682 413.802 201.558 411.675C199.433 409.549 198.24 406.666 198.24 403.66V15.5302C198.195 14.0134 198.455 12.5029 199.004 11.0883C199.554 9.67369 200.381 8.38374 201.438 7.29487C202.495 6.206 203.76 5.34035 205.158 4.74923C206.555 4.1581 208.058 3.85352 209.575 3.85352C211.093 3.85352 212.595 4.1581 213.992 4.74923C215.39 5.34035 216.655 6.206 217.712 7.29487C218.769 8.38374 219.597 9.67369 220.146 11.0883C220.695 12.5029 220.955 14.0134 220.91 15.5302V403.62C220.915 405.113 220.626 406.592 220.058 407.972C219.491 409.353 218.656 410.607 217.603 411.665C216.549 412.722 215.297 413.561 213.919 414.133C212.541 414.706 211.063 415 209.57 415Z" fill="black"/>
<path d="M201.86 415C200.707 414.999 199.561 414.823 198.46 414.48C154.2 400.55 119.74 367.67 98.79 319.41C80.76 277.8 73.72 226.68 79 175.43C83.44 132.09 96.61 91.6899 116.08 61.6599C138.25 27.4499 167.52 7.59987 200.72 4.24987C202.201 4.10016 203.696 4.24356 205.122 4.67187C206.547 5.10018 207.874 5.80502 209.027 6.74614C210.179 7.68726 211.136 8.84623 211.84 10.1569C212.545 11.4675 212.985 12.9042 213.135 14.3849C213.285 15.8655 213.141 17.3612 212.713 18.7864C212.285 20.2116 211.58 21.5386 210.639 22.6914C209.698 23.8442 208.539 24.8004 207.228 25.5054C205.917 26.2103 204.481 26.6502 203 26.7999C143 32.8599 108.79 107 101.53 177.74C92.53 265.74 121.09 366.31 205.26 392.81C207.838 393.627 210.04 395.339 211.467 397.637C212.894 399.935 213.453 402.667 213.043 405.34C212.632 408.014 211.28 410.453 209.229 412.217C207.178 413.981 204.565 414.954 201.86 414.96V415Z" fill="black"/>
<path d="M209.57 218.13H11.6701C10.1533 218.175 8.64278 217.915 7.22818 217.366C5.81358 216.817 4.52363 215.989 3.43476 214.932C2.34589 213.875 1.48025 212.61 0.889121 211.212C0.297994 209.815 -0.0065918 208.313 -0.0065918 206.795C-0.0065918 205.278 0.297994 203.775 0.889121 202.378C1.48025 200.98 2.34589 199.715 3.43476 198.658C4.52363 197.601 5.81358 196.774 7.22818 196.224C8.64278 195.675 10.1533 195.415 11.6701 195.46H209.57C211.087 195.415 212.597 195.675 214.012 196.224C215.427 196.774 216.717 197.601 217.805 198.658C218.894 199.715 219.76 200.98 220.351 202.378C220.942 203.775 221.247 205.278 221.247 206.795C221.247 208.313 220.942 209.815 220.351 211.212C219.76 212.61 218.894 213.875 217.805 214.932C216.717 215.989 215.427 216.817 214.012 217.366C212.597 217.915 211.087 218.175 209.57 218.13Z" fill="black"/>
<path d="M11.67 210.42C9.88885 210.423 8.13217 210.005 6.54259 209.201C4.95301 208.398 3.57531 207.23 2.52129 205.795C1.46728 204.359 0.766654 202.695 0.476278 200.937C0.185901 199.18 0.313955 197.379 0.850046 195.68C13.41 155.8 41.7201 123.5 82.73 102.28C118.62 83.7101 162.54 74.1301 209.73 74.5301C211.246 74.5005 212.753 74.7752 214.16 75.3379C215.568 75.9007 216.849 76.7401 217.927 77.8065C219.005 78.8729 219.858 80.1446 220.436 81.5465C221.014 82.9483 221.304 84.4518 221.291 85.968C221.278 87.4842 220.96 88.9823 220.358 90.3737C219.756 91.7651 218.88 93.0216 217.784 94.0688C216.687 95.116 215.392 95.9327 213.974 96.4705C212.556 97.0084 211.045 97.2565 209.53 97.2001H206.94C133.32 97.2001 46.99 124.79 22.53 202.5C21.8022 204.806 20.3554 206.819 18.4013 208.244C16.4473 209.67 14.0885 210.432 11.67 210.42Z" fill="black"/>
<path d="M206.75 339.08C160.7 339.08 117.88 329.5 82.7502 311.32C41.7502 290.09 13.4302 257.8 0.870189 217.91C0.0488784 215.065 0.373075 212.011 1.77348 209.402C3.17389 206.793 5.53939 204.835 8.36437 203.947C11.1893 203.059 14.2497 203.311 16.8912 204.649C19.5327 205.988 21.5458 208.307 22.5002 211.11C47.2502 289.73 135.3 317.11 209.5 316.4H209.6C212.549 316.474 215.353 317.693 217.418 319.801C219.482 321.908 220.644 324.737 220.657 327.686C220.67 330.636 219.533 333.475 217.487 335.6C215.442 337.726 212.648 338.97 209.7 339.07L206.75 339.08Z" fill="black"/>
<path d="M242.35 394.13C239.326 399.547 236.579 405.114 234.12 410.81C233.04 413.3 232.01 415.81 231.05 418.36C225.05 418.88 218.954 419.143 212.76 419.15C212.228 419.149 211.697 419.112 211.17 419.04C208.471 418.648 206.003 417.298 204.218 415.235C202.433 413.173 201.451 410.537 201.45 407.81C201.451 407.112 201.518 406.415 201.65 405.73C202.076 403.465 203.182 401.385 204.82 399.764C206.458 398.144 208.551 397.061 210.82 396.66L211.17 396.6H211.63C212.006 396.56 212.383 396.54 212.76 396.54C215.494 396.54 218.21 396.48 220.91 396.36C221.98 396.36 223.04 396.26 224.09 396.2C230.208 395.817 236.302 395.126 242.35 394.13Z" fill="black"/>
<path d="M367.62 314.1C377.101 312.054 386.739 310.82 396.43 310.41C380.883 338.678 359.032 362.983 332.573 381.44C306.113 399.898 275.758 412.011 243.86 416.84C245.807 412.22 247.94 407.7 250.26 403.28C252.46 399.12 254.813 395.063 257.32 391.11C263.729 389.539 270.048 387.623 276.25 385.37C313.459 371.84 345.438 346.895 367.62 314.1Z" fill="black"/>
<path d="M375.77 78C367.944 79.955 360.348 82.7373 353.11 86.3C335.187 65.8958 313.051 49.6217 288.23 38.6C267.955 29.6074 246.231 24.3238 224.09 23C223.04 22.94 221.98 22.88 220.91 22.84C218.244 22.72 215.527 22.66 212.76 22.66C212.383 22.6602 212.006 22.6402 211.63 22.6L211.17 22.55L210.82 22.49C208.552 22.085 206.461 20.9994 204.825 19.3775C203.189 17.7557 202.085 15.6743 201.66 13.41C201.528 12.7279 201.461 12.0348 201.46 11.34C201.464 9.75311 201.804 8.18508 202.46 6.74C202.83 5.8874 203.311 5.0872 203.89 4.36C205.669 2.06158 208.266 0.538948 211.14 0.110001C211.677 0.0364936 212.218 -0.000258637 212.76 1.36991e-06C244.032 -0.00250102 274.908 7.00271 303.117 20.5008C331.326 33.9988 356.152 53.6466 375.77 78Z" fill="black"/>
<path d="M422.33 209.57C422.365 239.039 416.149 268.181 404.09 295.07C396.085 295.076 388.107 294.163 380.31 292.35C383.017 286.89 385.46 281.29 387.64 275.55C394.597 257.157 398.587 237.775 399.46 218.13C399.56 216.02 399.62 213.89 399.64 211.76C399.64 211.03 399.64 210.3 399.64 209.57C399.64 206.81 399.58 204.067 399.46 201.34C399.37 199.34 399.26 197.42 399.11 195.47C397.534 174.246 392.314 153.452 383.68 134C377.564 120.232 369.804 107.254 360.57 95.3502C367.841 92.0099 375.476 89.5266 383.32 87.9502C408.728 123.41 422.372 165.947 422.33 209.57Z" fill="black"/>
<path d="M224.09 15.53V403.62C224.089 405.297 223.718 406.952 223.002 408.469C222.286 409.985 221.244 411.324 219.95 412.39C217.928 414.054 215.389 414.963 212.77 414.96C212.238 414.959 211.707 414.922 211.18 414.85C209.835 414.66 208.536 414.223 207.35 413.56C205.882 412.757 204.61 411.638 203.626 410.284C202.642 408.93 201.971 407.375 201.66 405.73C201.527 405.038 201.46 404.335 201.46 403.63V15.53C201.46 14.8252 201.527 14.1221 201.66 13.43C201.974 11.7879 202.647 10.2354 203.631 8.88361C204.614 7.53177 205.884 6.41392 207.35 5.60996C208.536 4.94712 209.835 4.50973 211.18 4.31996C211.707 4.2478 212.238 4.21106 212.77 4.20996C214.087 4.20944 215.393 4.43958 216.63 4.88996C217.833 5.32639 218.953 5.96563 219.94 6.77996C221.235 7.8416 222.279 9.1768 222.996 10.6897C223.714 12.2026 224.087 13.8556 224.09 15.53Z" fill="black"/>
<path d="M242.35 394.13C239.326 399.547 236.579 405.114 234.12 410.81C230.77 412.13 227.35 413.35 223.87 414.44C222.137 414.983 220.299 415.103 218.51 414.79C217.869 414.68 217.239 414.509 216.63 414.28C216.076 414.089 215.54 413.848 215.03 413.56C213.485 412.728 212.162 411.538 211.17 410.09C210.508 409.156 209.998 408.124 209.66 407.03C209.137 405.38 209 403.632 209.26 401.92C209.52 400.209 210.17 398.58 211.16 397.16C211.278 396.983 211.405 396.813 211.54 396.65C211.561 396.607 211.592 396.569 211.63 396.54C213.028 394.779 214.924 393.48 217.07 392.81C218.36 392.4 219.64 391.98 220.91 391.53C221.98 391.16 223.04 390.78 224.09 390.38C235.802 385.967 246.792 379.836 256.7 372.19C251.406 379.156 246.611 386.488 242.35 394.13Z" fill="black"/>
<path d="M316.53 334C305.72 354.52 292.17 371.76 276.25 385.39C268.243 392.265 259.527 398.268 250.25 403.3C252.45 399.14 254.803 395.083 257.31 391.13C268.583 373.389 282.963 357.826 299.76 345.19L316.53 334Z" fill="black"/>
<path d="M322.13 272.45C326.333 276.657 330.849 280.538 335.64 284.06C335.25 285.56 334.84 287.06 334.42 288.54C331.738 298.167 328.462 307.619 324.61 316.84C320.664 318.72 316.777 320.753 312.95 322.94C306.445 326.64 300.171 330.731 294.16 335.19C291.12 337.443 288.154 339.777 285.26 342.19C288.26 337.957 291.067 333.563 293.68 329.01C298.766 320.083 303.114 310.755 306.68 301.12C310.887 289.87 314.207 278.308 316.61 266.54C318.384 268.567 320.224 270.537 322.13 272.45Z" fill="black"/>
<path d="M327.06 103.82C325.38 105.31 323.73 106.87 322.13 108.47C319.75 110.85 317.493 113.31 315.36 115.85C313.36 118.21 311.47 120.637 309.69 123.13C308.543 119.43 307.31 115.783 305.99 112.19C302.54 102.677 298.392 93.4318 293.58 84.5298C277.27 54.5298 254.06 32.3599 224.09 27.4399C223.04 27.2599 221.98 27.1098 220.91 26.9699L219.33 26.7999C217.832 26.6541 216.379 26.209 215.056 25.491C213.733 24.773 212.568 23.7966 211.63 22.6199L211.54 22.5099L211.16 21.9999C210.251 20.6959 209.627 19.2153 209.327 17.6543C209.028 16.0932 209.06 14.4867 209.423 12.939C209.785 11.3913 210.468 9.93713 211.429 8.67099C212.39 7.40485 213.607 6.35506 215 5.58985C215.507 5.30137 216.039 5.06034 216.59 4.86985C217.196 4.64267 217.822 4.47194 218.46 4.35985C219.487 4.18232 220.533 4.14531 221.57 4.24985C246.41 6.75985 269.06 18.5098 288.19 38.5998C294.89 45.714 300.915 53.4336 306.19 61.6599C312.952 72.1526 318.745 83.2382 323.5 94.7798C324.74 97.7398 325.927 100.753 327.06 103.82Z" fill="black"/>
<path d="M344.9 218.13C344.398 236.222 342.259 254.233 338.51 271.94C331.224 266.076 324.756 259.262 319.28 251.68C320.943 240.566 321.944 229.363 322.28 218.13C322.52 210.56 322.47 202.99 322.13 195.46C321.87 189.506 321.44 183.6 320.84 177.74C319.471 164.236 317.132 150.848 313.84 137.68C317.373 131.609 321.514 125.913 326.2 120.68C327.79 118.9 329.44 117.17 331.15 115.51C332.15 118.51 333.02 121.58 333.89 124.68C338.494 141.28 341.679 158.241 343.41 175.38C344.077 182.046 344.553 188.713 344.84 195.38C345.09 203.06 345.13 210.63 344.9 218.13Z" fill="black"/>
<path d="M288.28 195.46C288.594 203.104 289.666 210.698 291.48 218.13H212.76C212.228 218.129 211.697 218.092 211.17 218.02C208.469 217.632 205.999 216.284 204.212 214.222C202.425 212.16 201.441 209.523 201.441 206.795C201.441 204.066 202.425 201.43 204.212 199.368C205.999 197.306 208.469 195.958 211.17 195.57C211.697 195.498 212.228 195.461 212.76 195.46H288.28Z" fill="black"/>
<path d="M422 206.8C422.001 208.116 421.771 209.423 421.32 210.66C420.524 212.847 419.074 214.736 417.166 216.071C415.259 217.405 412.988 218.121 410.66 218.12H303.21C301.179 210.719 299.975 203.116 299.62 195.45H410.62C412.114 195.445 413.593 195.734 414.974 196.302C416.355 196.871 417.611 197.706 418.668 198.761C419.726 199.815 420.564 201.068 421.136 202.448C421.708 203.827 422.001 205.306 422 206.8Z" fill="black"/>
<path d="M332.88 98.9999C330.88 100.54 328.95 102.17 327.06 103.86C325.38 105.35 323.73 106.91 322.13 108.51C319.75 110.89 317.493 113.35 315.36 115.89C312.267 114.59 309.143 113.37 305.99 112.23C279.8 102.74 251.29 98.1499 224.09 97.3599C223.03 97.3599 221.97 97.2999 220.91 97.2799C218.243 97.2265 215.557 97.2265 212.85 97.2799H212.75C212.218 97.2788 211.687 97.242 211.16 97.1699C208.527 96.789 206.112 95.4945 204.337 93.5129C202.562 91.5313 201.54 88.9887 201.45 86.3299C201.445 86.2333 201.445 86.1365 201.45 86.0399C201.45 85.8099 201.45 85.5899 201.45 85.3699C201.584 82.7399 202.63 80.2387 204.407 78.2954C206.184 76.3521 208.582 75.088 211.19 74.7199C211.68 74.6477 212.175 74.6109 212.67 74.6099C215.43 74.6099 218.183 74.6099 220.93 74.6099L224.11 74.6699C247.588 75.1702 270.92 78.501 293.6 84.5899C303.778 87.3317 313.766 90.7356 323.5 94.7799C326.68 96.0999 329.807 97.5065 332.88 98.9999Z" fill="black"/>
<path d="M421.32 202.93C420.736 204.578 419.777 206.068 418.519 207.283C417.261 208.497 415.738 209.404 414.07 209.93C412.026 210.571 409.843 210.62 407.772 210.071C405.701 209.523 403.828 208.399 402.37 206.83C401.211 205.605 400.349 204.131 399.85 202.52C399.73 202.13 399.61 201.75 399.48 201.37C398.83 199.37 398.15 197.37 397.42 195.5C385.28 163.36 362.1 140.38 333.83 124.77C331.31 123.38 328.74 122.04 326.14 120.77C327.73 118.99 329.38 117.26 331.09 115.6C335.146 111.635 339.521 108.009 344.17 104.76C358.634 112.624 371.932 122.465 383.68 134C401.136 151.166 414.115 172.351 421.48 195.7C422.231 198.061 422.174 200.604 421.32 202.93Z" fill="black"/>
<path d="M361.27 298.26C355.835 302.042 350.207 305.54 344.41 308.74C337.655 311.044 331.043 313.749 324.61 316.84C320.663 318.72 316.777 320.753 312.95 322.94C306.69 325.207 300.267 327.24 293.68 329.04C270.967 335.139 247.602 338.483 224.09 339L220.91 339.06C219.14 339.06 217.36 339.11 215.58 339.11H212.65C212.158 339.111 211.666 339.07 211.18 338.99C208.571 338.624 206.17 337.361 204.391 335.417C202.612 333.474 201.565 330.971 201.43 328.34C201.43 328.12 201.43 327.9 201.43 327.67C201.425 327.573 201.425 327.477 201.43 327.38C201.531 324.717 202.565 322.174 204.35 320.196C206.136 318.218 208.561 316.931 211.2 316.56C211.743 316.48 212.291 316.439 212.84 316.44C215.51 316.44 218.19 316.44 220.9 316.44C221.95 316.44 223.01 316.44 224.08 316.36C251.53 315.56 280.31 310.89 306.7 301.23C316.254 297.762 325.519 293.545 334.41 288.62C335.81 287.84 337.197 287.043 338.57 286.23C345.657 291.086 353.272 295.122 361.27 298.26Z" fill="black"/>
<path d="M421.48 217.91C414.702 239.434 403.132 259.141 387.64 275.55C382.775 280.724 377.577 285.574 372.08 290.07C363.976 287.475 356.224 283.888 349 279.39C370.32 264.39 387.52 244.3 397.4 218.13C398.19 216.05 398.93 213.92 399.62 211.76L399.83 211.11C400.329 209.499 401.191 208.024 402.35 206.8C403.806 205.227 405.678 204.1 407.75 203.551C409.822 203.002 412.007 203.054 414.05 203.7C415.928 204.284 417.618 205.353 418.95 206.8C419.994 207.908 420.795 209.223 421.3 210.66C422.168 212.989 422.231 215.541 421.48 217.91Z" fill="black"/>
<path d="M577.74 476.83H230.49C230.959 465.079 232.634 453.408 235.49 442C237.631 433.412 240.425 425.001 243.85 416.84C245.797 412.22 247.93 407.7 250.25 403.28C252.45 399.12 254.804 395.063 257.31 391.11C261.362 384.729 265.824 378.62 270.67 372.82L299.76 345.17L316.53 334C340.84 319.738 368.272 311.646 396.43 310.43C398.97 310.316 401.524 310.26 404.09 310.26C448.942 310.23 492.066 327.553 524.434 358.601C556.802 389.649 575.904 432.016 577.74 476.83Z" fill="black"/>
<path d="M300.91 344.3C300.53 344.58 300.15 344.87 299.77 345.17L316.53 334C311.142 337.15 305.928 340.588 300.91 344.3ZM300.91 344.3C300.53 344.58 300.15 344.87 299.77 345.17L316.53 334C311.142 337.15 305.928 340.588 300.91 344.3Z" fill="black"/>
<path d="M508.72 190.45C508.721 204.188 506.016 217.793 500.76 230.486C495.503 243.179 487.798 254.712 478.084 264.427C468.37 274.142 456.837 281.848 444.145 287.106C431.452 292.364 417.848 295.07 404.11 295.07C396.105 295.075 388.127 294.163 380.33 292.35C377.537 291.683 374.793 290.923 372.1 290.07C363.989 287.477 356.23 283.89 349 279.39C345.343 277.131 341.833 274.643 338.49 271.94C326.959 262.675 317.528 251.066 310.823 237.881C304.119 224.695 300.293 210.236 299.6 195.46C299.52 193.8 299.48 192.133 299.48 190.46C299.459 164.73 308.947 139.9 326.12 120.74C327.71 118.96 329.36 117.23 331.07 115.57C345.452 101.515 363.59 91.9162 383.3 87.93C398.491 84.8625 414.173 85.2061 429.215 88.9361C444.257 92.6661 458.283 99.6894 470.28 109.499C482.278 119.308 491.948 131.659 498.592 145.66C505.236 159.661 508.688 174.963 508.7 190.46L508.72 190.45Z" fill="black"/>
</g>
<defs>
<clipPath id="clip0_381_257">
<rect width="577.74" height="476.83" fill="white"/>
</clipPath>
</defs>
</svg>
