<svg width="583" height="521" viewBox="0 0 583 521" fill="none" xmlns="http://www.w3.org/2000/svg">
<g clip-path="url(#clip0_381_285)">
<path d="M74.78 447.7L172.2 333.81L217.62 366.58L335.55 231.16L385 269.37L475.67 162.97" stroke="black" stroke-width="23.48" stroke-linecap="round" stroke-linejoin="round"/>
<path d="M527.75 11.7402H55.13C31.1664 11.7402 11.74 31.1666 11.74 55.1302V465.06C11.74 489.024 31.1664 508.45 55.13 508.45H527.75C551.714 508.45 571.14 489.024 571.14 465.06V55.1302C571.14 31.1666 551.714 11.7402 527.75 11.7402Z" stroke="black" stroke-width="23.48" stroke-linecap="round" stroke-linejoin="round"/>
<path d="M201.92 224.91C236.129 224.91 263.86 197.179 263.86 162.97C263.86 128.762 236.129 101.03 201.92 101.03C167.711 101.03 139.98 128.762 139.98 162.97C139.98 197.179 167.711 224.91 201.92 224.91Z" fill="black"/>
<path d="M69.54 454.45H495.9" stroke="black" stroke-width="23.48" stroke-linecap="round" stroke-linejoin="round"/>
<path d="M69.54 79.4604V454.45" stroke="black" stroke-width="23.48" stroke-linecap="round" stroke-linejoin="round"/>
<path d="M455.65 149.84L493.89 179.07C494.308 179.39 494.806 179.589 495.329 179.646C495.852 179.703 496.381 179.617 496.859 179.395C497.336 179.174 497.744 178.827 498.039 178.39C498.333 177.954 498.503 177.446 498.53 176.92L500.62 135C500.643 134.535 500.553 134.072 500.358 133.649C500.163 133.226 499.869 132.857 499.501 132.572C499.133 132.287 498.702 132.096 498.243 132.014C497.785 131.931 497.314 131.961 496.87 132.1L456.54 144.75C456.026 144.904 455.566 145.198 455.21 145.599C454.854 146 454.616 146.492 454.524 147.021C454.431 147.549 454.488 148.092 454.687 148.59C454.886 149.088 455.219 149.521 455.65 149.84Z" fill="black"/>
<path d="M486.31 435.94L486.24 472.94C486.241 473.344 486.353 473.741 486.562 474.087C486.771 474.433 487.07 474.716 487.428 474.905C487.785 475.094 488.188 475.182 488.591 475.16C488.995 475.138 489.385 475.007 489.72 474.78L516.33 456.53C516.625 456.326 516.866 456.053 517.033 455.735C517.199 455.417 517.286 455.064 517.286 454.705C517.286 454.346 517.199 453.993 517.033 453.675C516.866 453.357 516.625 453.084 516.33 452.88L489.79 434.11C489.457 433.88 489.067 433.746 488.663 433.722C488.259 433.698 487.855 433.784 487.497 433.973C487.139 434.161 486.839 434.444 486.629 434.791C486.42 435.138 486.31 435.535 486.31 435.94Z" fill="black"/>
<path d="M51 91.0901L88 91.1501C88.4047 91.1528 88.8024 91.0442 89.1496 90.8363C89.4969 90.6284 89.7804 90.3291 89.9692 89.9711C90.158 89.6131 90.2449 89.2101 90.2203 88.8061C90.1958 88.4021 90.0607 88.0126 89.83 87.6801L71.63 61.0701C71.4307 60.7752 71.1635 60.5324 70.8508 60.3624C70.538 60.1924 70.189 60.1 69.8331 60.0932C69.4772 60.0863 69.1249 60.1651 68.8059 60.323C68.4868 60.4808 68.2104 60.7131 68 61.0001L49.21 87.5901C48.9765 87.9209 48.838 88.3091 48.8093 88.7129C48.7806 89.1167 48.8629 89.5207 49.0472 89.8811C49.2315 90.2415 49.5109 90.5447 49.8551 90.7578C50.1993 90.9709 50.5952 91.0858 51 91.0901Z" fill="black"/>
</g>
<defs>
<clipPath id="clip0_381_285">
<rect width="582.88" height="520.19" fill="white"/>
</clipPath>
</defs>
</svg>
