<svg width="543" height="568" viewBox="0 0 543 568" fill="none" xmlns="http://www.w3.org/2000/svg">
<g clip-path="url(#clip0_381_296)">
<path d="M96.54 357.82H11.54L73.18 235C73.18 235 93.34 4.14978 316.5 11.7398C448.41 16.2298 501.07 94.1598 521.58 165.14C532.427 202.657 534.223 242.211 526.821 280.556C519.42 318.902 503.031 354.945 479 385.73C470.317 396.926 460.627 407.303 450.05 416.73C444.752 421.385 440.505 427.114 437.591 433.536C434.677 439.958 433.163 446.927 433.15 453.98V555.76H203.19V512C203.19 507.889 202.38 503.819 200.807 500.022C199.235 496.224 196.929 492.774 194.022 489.867C191.116 486.961 187.666 484.655 183.868 483.082C180.071 481.509 176 480.7 171.89 480.7H96.54V357.82Z" stroke="black" stroke-width="23.11" stroke-linecap="round" stroke-linejoin="round"/>
<path d="M266.67 339C262.422 339.762 258.092 339.967 253.79 339.61C191.79 334.53 146.79 268.06 149.43 190.07C149.519 187.809 150.456 185.664 152.056 184.062C153.655 182.461 155.799 181.521 158.06 181.43C189.94 180.36 219.89 187.24 244.51 199.99C240.213 210.396 237.009 221.221 234.95 232.29C228.08 269.96 236.41 304.98 258.39 330.91C260.892 333.859 263.664 336.567 266.67 339Z" fill="black"/>
<path d="M306.66 300.38C305.119 307.295 302.138 313.808 297.911 319.494C293.684 325.179 288.307 329.911 282.13 333.38C276.985 330.505 272.399 326.728 268.59 322.23C242.68 291.66 239.76 248.1 256.21 206.71C283.08 223.92 301.76 248.83 306.66 278.01C307.087 280.55 307.42 283.12 307.66 285.72C308.054 290.629 307.717 295.57 306.66 300.38Z" fill="black"/>
<path d="M331.2 333.37C325.019 329.904 319.638 325.174 315.41 319.488C311.181 313.801 308.2 307.287 306.66 300.37C305.594 295.561 305.257 290.619 305.66 285.71C305.87 283.11 306.19 280.52 306.66 277.97C311.56 248.79 330.24 223.88 357.1 206.66C373.55 248.05 370.63 291.66 344.72 322.19C340.914 326.691 336.336 330.476 331.2 333.37Z" fill="black"/>
<path d="M359.52 339.56C355.225 339.918 350.902 339.713 346.66 338.95C349.662 336.519 352.428 333.811 354.92 330.86C376.92 304.93 385.23 269.91 378.36 232.24C376.317 221.162 373.116 210.329 368.81 199.92C393.43 187.19 423.38 180.31 455.25 181.38C457.513 181.469 459.66 182.407 461.261 184.009C462.863 185.61 463.801 187.757 463.89 190.02C466.49 268 421.52 334.48 359.52 339.56Z" fill="black"/>
<path d="M344.72 322.22C340.911 326.71 336.333 330.485 331.2 333.37C323.697 337.547 315.252 339.739 306.665 339.739C298.078 339.739 289.633 337.547 282.13 333.37C276.985 330.495 272.399 326.718 268.59 322.22C242.68 291.65 239.76 248.09 256.21 206.7C265.29 183.83 280.28 161.65 300.55 142.7C302.212 141.165 304.392 140.312 306.655 140.312C308.918 140.312 311.097 141.165 312.76 142.7C333.03 161.7 348.02 183.85 357.1 206.7C373.55 248.08 370.63 291.65 344.72 322.22Z" fill="black"/>
<path d="M306.66 112.72V87.1699" stroke="black" stroke-width="23.11" stroke-linecap="round" stroke-linejoin="round"/>
<path d="M233.07 149.3L215.01 131.23" stroke="black" stroke-width="23.11" stroke-linecap="round" stroke-linejoin="round"/>
<path d="M380.24 149.3L398.31 131.23" stroke="black" stroke-width="23.11" stroke-linecap="round" stroke-linejoin="round"/>
</g>
<defs>
<clipPath id="clip0_381_296">
<rect width="542.84" height="567.32" fill="white"/>
</clipPath>
</defs>
</svg>
