<svg width="495" height="582" viewBox="0 0 495 582" fill="none" xmlns="http://www.w3.org/2000/svg">
<g clip-path="url(#clip0_381_308)">
<path d="M483.42 333.17V372.17C483.42 374.523 482.956 376.853 482.056 379.028C481.155 381.202 479.835 383.177 478.171 384.841C476.507 386.505 474.532 387.825 472.358 388.726C470.183 389.626 467.853 390.09 465.5 390.09H448.84C447.804 390.088 446.77 389.994 445.75 389.81C441.589 403.132 436.066 415.99 429.27 428.18C430.09 428.787 430.862 429.455 431.58 430.18L443.37 441.97C445.036 443.633 446.358 445.609 447.26 447.784C448.162 449.959 448.626 452.29 448.626 454.645C448.626 456.999 448.162 459.331 447.26 461.506C446.358 463.681 445.036 465.656 443.37 467.32L382.08 528.62C378.718 531.98 374.158 533.868 369.405 533.868C364.651 533.868 360.092 531.98 356.73 528.62L339.9 512.62C339.9 512.62 319.7 522.77 307.9 526.34C308.22 527.721 308.384 529.133 308.39 530.55V547.2C308.391 549.554 307.929 551.884 307.028 554.059C306.128 556.234 304.808 558.21 303.144 559.874C301.48 561.538 299.504 562.858 297.329 563.759C295.154 564.659 292.824 565.121 290.47 565.12H203.79C201.436 565.123 199.104 564.661 196.929 563.761C194.754 562.862 192.777 561.542 191.113 559.877C189.448 558.213 188.128 556.236 187.229 554.061C186.329 551.885 185.867 549.554 185.87 547.2V530.54C185.871 529.122 186.035 527.71 186.36 526.33C170.12 521.43 143.86 505.61 143.86 505.61L123.52 528.61C121.857 530.275 119.881 531.595 117.707 532.496C115.533 533.398 113.203 533.861 110.85 533.861C108.497 533.861 106.166 533.398 103.992 532.496C101.818 531.595 99.8432 530.275 98.1798 528.61L36.8798 467.31C33.5194 463.948 31.6317 459.389 31.6317 454.635C31.6317 449.881 33.5194 445.322 36.8798 441.96L59.8798 418.13C59.8798 418.13 46.2998 388.34 45.4198 388.34H28.7598C26.4062 388.341 24.0754 387.879 21.9006 386.979C19.7259 386.078 17.7498 384.758 16.0856 383.094C14.4213 381.43 13.1013 379.454 12.2012 377.279C11.3011 375.104 10.8385 372.774 10.8398 370.42V333.17H483.42Z" stroke="black" stroke-width="21.49" stroke-linecap="round" stroke-linejoin="round"/>
<path d="M226.856 469.863V468.907C226.963 458.767 228.024 450.698 230.042 444.699C232.059 438.701 234.926 433.843 238.642 430.127C242.358 426.411 246.817 422.987 252.02 419.855C255.152 417.943 257.965 415.687 260.461 413.086C262.956 410.432 264.92 407.379 266.353 403.928C267.84 400.478 268.583 396.656 268.583 392.462C268.583 387.259 267.362 382.747 264.92 378.924C262.478 375.102 259.213 372.156 255.125 370.085C251.038 368.015 246.499 366.98 241.508 366.98C237.155 366.98 232.961 367.882 228.927 369.687C224.892 371.492 221.521 374.332 218.814 378.208C216.106 382.083 214.54 387.153 214.115 393.417H194.049C194.473 384.392 196.809 376.668 201.056 370.245C205.356 363.821 211.01 358.911 218.017 355.513C225.078 352.115 232.908 350.417 241.508 350.417C250.852 350.417 258.974 352.275 265.875 355.991C272.83 359.707 278.192 364.803 281.961 371.28C285.783 377.757 287.694 385.136 287.694 393.417C287.694 399.257 286.792 404.539 284.987 409.264C283.235 413.989 280.687 418.209 277.342 421.925C274.051 425.641 270.069 428.933 265.398 431.799C260.726 434.719 256.983 437.798 254.17 441.036C251.356 444.222 249.312 448.017 248.038 452.424C246.764 456.83 246.074 462.324 245.968 468.907V469.863H226.856ZM237.049 517.004C233.121 517.004 229.75 515.597 226.936 512.784C224.122 509.97 222.716 506.599 222.716 502.671C222.716 498.742 224.122 495.371 226.936 492.557C229.75 489.744 233.121 488.337 237.049 488.337C240.978 488.337 244.349 489.744 247.162 492.557C249.976 495.371 251.383 498.742 251.383 502.671C251.383 505.272 250.719 507.661 249.392 509.837C248.118 512.014 246.392 513.766 244.216 515.093C242.092 516.367 239.703 517.004 237.049 517.004Z" fill="black"/>
<path d="M350 137.31C346.243 147.941 340.844 157.919 334 166.88C333.93 165.69 333.9 164.49 333.9 163.29C333.875 150.714 337.681 138.429 344.81 128.07C345.794 128.272 346.722 128.684 347.533 129.277C348.343 129.871 349.017 130.631 349.507 131.508C349.998 132.385 350.294 133.356 350.375 134.357C350.457 135.359 350.322 136.365 349.98 137.31H350Z" fill="black"/>
<path d="M206.77 333.81H0C1.05478 308.955 11.0273 285.312 28.0915 267.21C45.1557 249.108 68.1695 237.758 92.9187 235.24C117.668 232.721 142.496 239.201 162.857 253.495C183.219 267.788 197.75 288.937 203.79 313.07C205.493 319.863 206.491 326.812 206.77 333.81Z" fill="black"/>
<path d="M494.26 333.81H287.49C288.573 307.116 299.939 281.875 319.209 263.371C338.479 244.867 364.159 234.533 390.875 234.533C417.591 234.533 443.272 244.867 462.542 263.371C481.812 281.875 493.178 307.116 494.26 333.81Z" fill="black"/>
<path d="M138.3 146.31C144.227 160.163 152.506 172.887 162.77 183.92C159.257 196.377 151.916 207.414 141.784 215.469C131.653 223.523 119.244 228.187 106.316 228.8C93.3874 229.413 80.5935 225.944 69.7454 218.884C58.8973 211.824 50.5445 201.531 45.8695 189.462C41.1944 177.393 40.4339 164.159 43.6956 151.633C46.9572 139.108 54.0759 127.926 64.0438 119.67C74.0118 111.413 86.324 106.502 99.2377 105.63C112.151 104.757 125.012 107.969 136 114.81L130.21 129.51C129.567 131.141 129.269 132.888 129.335 134.641C129.4 136.393 129.829 138.113 130.593 139.692C131.357 141.27 132.439 142.673 133.773 143.812C135.106 144.952 136.661 145.802 138.34 146.31H138.3Z" fill="black"/>
<path d="M165.06 167.18C165.06 168.09 165.06 168.98 165.01 169.87C156.828 159.6 150.339 148.088 145.79 135.77C145.71 135.56 145.66 135.35 145.59 135.15L142.31 135.91C142.177 135.919 142.043 135.919 141.91 135.91C141.622 135.9 141.341 135.821 141.09 135.68C140.839 135.538 140.626 135.338 140.469 135.097C140.312 134.855 140.216 134.58 140.188 134.293C140.16 134.006 140.202 133.717 140.31 133.45L145 121.63C151.331 127.407 156.386 134.443 159.841 142.286C163.295 150.13 165.073 158.609 165.06 167.18Z" fill="black"/>
<path d="M353.6 136.56C349.019 151.871 340.967 165.918 330.07 177.61C329.491 174.163 329.2 170.675 329.2 167.18C329.188 159.014 330.803 150.928 333.952 143.393C337.101 135.859 341.721 129.028 347.54 123.3C350.004 124.379 351.983 126.327 353.101 128.773C354.219 131.219 354.397 133.991 353.6 136.56Z" fill="black"/>
<path d="M452.55 167.18C452.551 181.55 447.535 195.47 438.367 206.536C429.199 217.602 416.455 225.119 402.335 227.79C388.215 230.461 373.605 228.118 361.029 221.166C348.452 214.213 338.698 203.088 333.45 189.71C347.805 175.978 358.34 158.746 364.02 139.71C365.299 135.455 365.259 130.912 363.906 126.68C362.553 122.448 359.95 118.724 356.44 116C365.723 109.763 376.527 106.166 387.696 105.594C398.865 105.023 409.979 107.497 419.851 112.754C429.722 118.011 437.979 125.851 443.739 135.438C449.498 145.025 452.544 155.996 452.55 167.18Z" fill="black"/>
<path d="M353.6 136.56C349.019 151.871 340.967 165.918 330.07 177.61C311.33 197.67 284.76 209.92 254.92 210.94C253.63 210.94 252.33 211 251.05 211C234.538 211.094 218.22 207.442 203.324 200.318C188.427 193.193 175.341 182.783 165.05 169.87C156.868 159.6 150.379 148.088 145.83 135.77C145.75 135.56 145.7 135.35 145.63 135.15L142.35 135.91C142.217 135.919 142.083 135.919 141.95 135.91C141.662 135.9 141.381 135.821 141.13 135.68C140.879 135.538 140.666 135.338 140.509 135.097C140.352 134.855 140.256 134.579 140.228 134.293C140.2 134.006 140.242 133.717 140.35 133.45L145 121.63L149.09 111.27L149.77 109.5C149.901 109.174 150.126 108.894 150.416 108.697C150.707 108.499 151.049 108.392 151.4 108.39C151.832 108.397 152.245 108.565 152.56 108.86L171.4 126.36C171.636 126.581 171.808 126.862 171.898 127.174C171.988 127.485 171.992 127.814 171.91 128.127C171.828 128.441 171.663 128.726 171.433 128.954C171.202 129.181 170.915 129.342 170.6 129.42L166.6 130.33C183.96 173.76 220.95 189.22 251.24 189.22C252.24 189.22 253.24 189.22 254.24 189.17C291.79 187.91 322.82 164.72 333.24 130.17C333.884 127.971 335.219 126.038 337.047 124.656C338.875 123.275 341.099 122.519 343.39 122.5C344.46 122.495 345.523 122.661 346.54 122.99C346.88 123.092 347.214 123.212 347.54 123.35C349.992 124.428 351.964 126.368 353.081 128.803C354.198 131.238 354.383 133.998 353.6 136.56Z" fill="black"/>
<path d="M354 77.5098L345.5 99.7498L344.82 101.5C344.702 101.824 344.487 102.104 344.204 102.303C343.922 102.501 343.585 102.608 343.24 102.61C342.818 102.612 342.411 102.446 342.11 102.15L323.71 84.6398C323.48 84.4174 323.313 84.1383 323.225 83.8306C323.137 83.5229 323.132 83.1974 323.21 82.8871C323.288 82.5768 323.447 82.2925 323.67 82.063C323.893 81.8335 324.172 81.6668 324.48 81.5798L328.38 80.6698C311.47 37.2398 275.47 21.7798 246 21.7798C245 21.7798 244.05 21.7798 243.08 21.7798C206.52 23.0498 176.3 46.2298 166.08 80.8398C165.482 83.0126 164.196 84.9333 162.415 86.3141C160.634 87.695 158.453 88.4618 156.2 88.4998C155.157 88.5042 154.12 88.3387 153.13 88.0098C150.454 87.0603 148.248 85.1124 146.975 82.5738C145.702 80.0352 145.46 77.1027 146.3 74.3898C159.14 30.8298 196.86 1.63982 242.37 0.0698192C243.63 0.0698192 244.89 -0.000180792 246.15 -0.000180792C266.808 -0.0501366 287.023 5.98795 304.27 17.3598C324.27 30.5398 339.62 50.5598 348.61 75.2298C348.69 75.4398 348.75 75.6498 348.81 75.8598L352.01 75.0998C352.137 75.09 352.264 75.09 352.39 75.0998C352.674 75.1063 352.953 75.1811 353.202 75.3179C353.451 75.4548 353.664 75.6497 353.822 75.8861C353.98 76.1226 354.078 76.3935 354.11 76.6762C354.141 76.9588 354.103 77.2448 354 77.5098Z" fill="black"/>
</g>
<defs>
<clipPath id="clip0_381_308">
<rect width="494.26" height="581.94" fill="white"/>
</clipPath>
</defs>
</svg>
