<svg width="565" height="559" viewBox="0 0 565 559" fill="none" xmlns="http://www.w3.org/2000/svg">
<g clip-path="url(#clip0_381_332)">
<path d="M532.91 212.25H513.77C512.987 212.244 512.205 212.297 511.43 212.41C506.13 194.77 489.15 168.75 489.15 168.75L507.49 145.75C509.399 143.887 510.917 141.661 511.953 139.202C512.989 136.744 513.523 134.103 513.523 131.435C513.523 128.767 512.989 126.126 511.953 123.668C510.917 121.21 509.399 118.983 507.49 117.12L437.07 47.9001C433.18 44.0968 427.955 41.9672 422.515 41.9672C417.074 41.9672 411.85 44.0968 407.96 47.9001L384.59 69.9001C384.59 69.9001 364.88 58.2701 351.85 54.4001C352.226 52.8448 352.418 51.2504 352.42 49.6501V30.8201C352.399 28.1381 351.85 25.4866 350.803 23.017C349.757 20.5474 348.234 18.3083 346.322 16.4276C344.41 14.547 342.145 13.0617 339.659 12.0566C337.172 11.0515 334.512 10.5464 331.83 10.5701H232.25C229.568 10.5464 226.907 11.0515 224.421 12.0566C221.934 13.0617 219.67 14.547 217.758 16.4276C215.846 18.3083 214.323 20.5474 213.276 23.017C212.23 25.4866 211.681 28.1381 211.66 30.8201V49.6401C211.664 51.2397 211.852 52.8335 212.22 54.3901C197.5 58.7801 177.39 75.7401 175.46 73.8401L152.1 51.8401C148.208 48.0361 142.982 45.9063 137.54 45.9063C132.098 45.9063 126.872 48.0361 122.98 51.8401L52.5598 121.1C50.6503 122.963 49.1329 125.19 48.0968 127.648C47.0607 130.106 46.527 132.747 46.527 135.415C46.527 138.083 47.0607 140.724 48.0968 143.182C49.1329 145.641 50.6503 147.867 52.5598 149.73L74.9198 168.73C76.6498 170.39 57.9198 195.27 53.2398 210.49C52.2715 210.329 51.2915 210.249 50.3098 210.25H31.1598C28.4778 210.226 25.8175 210.732 23.3308 211.737C20.8442 212.742 18.58 214.227 16.6678 216.108C14.7556 217.988 13.2327 220.227 12.1864 222.697C11.1401 225.167 10.5907 227.818 10.5698 230.5V328.41C10.5907 331.092 11.1401 333.744 12.1864 336.213C13.2327 338.683 14.7556 340.922 16.6678 342.803C18.58 344.683 20.8442 346.169 23.3308 347.174C25.8175 348.179 28.4778 348.684 31.1598 348.66H50.3098C51.3098 348.66 66.8798 382.27 66.8798 382.27L40.4898 409.22C38.5803 411.083 37.0629 413.31 36.0268 415.768C34.9907 418.226 34.457 420.867 34.457 423.535C34.457 426.203 34.9907 428.844 36.0268 431.302C37.0629 433.761 38.5803 435.987 40.4898 437.85L110.91 507.1C114.804 510.899 120.029 513.026 125.47 513.026C130.91 513.026 136.136 510.899 140.03 507.1L163.4 481.1C163.4 481.1 193.56 498.94 212.22 504.51C211.852 506.067 211.664 507.661 211.66 509.26V528.08C211.681 530.762 212.23 533.414 213.276 535.883C214.323 538.353 215.846 540.592 217.758 542.473C219.67 544.353 221.934 545.839 224.421 546.844C226.907 547.849 229.568 548.354 232.25 548.33H331.83C334.512 548.354 337.172 547.849 339.659 546.844C342.145 545.839 344.41 544.353 346.322 542.473C348.234 540.592 349.757 538.353 350.803 535.883C351.85 533.414 352.399 530.762 352.42 528.08V509.31C352.417 507.71 352.226 506.116 351.85 504.56C365.41 500.56 388.61 489.06 388.61 489.06L407.96 507.06C411.852 510.859 417.076 512.985 422.515 512.985C427.954 512.985 433.177 510.859 437.07 507.06L507.49 437.81C509.399 435.947 510.917 433.721 511.953 431.262C512.989 428.804 513.523 426.163 513.523 423.495C513.523 420.827 512.989 418.186 511.953 415.728C510.917 413.27 509.399 411.043 507.49 409.18L493.94 395.9C493.114 395.094 492.228 394.352 491.29 393.68C499.084 379.927 505.431 365.402 510.23 350.34C511.398 350.548 512.583 350.655 513.77 350.66H532.91C535.592 350.684 538.252 350.179 540.739 349.174C543.225 348.169 545.49 346.683 547.402 344.803C549.314 342.922 550.837 340.683 551.883 338.213C552.93 335.744 553.479 333.092 553.5 330.41V232.5C553.479 229.818 552.93 227.167 551.883 224.697C550.837 222.227 549.314 219.988 547.402 218.108C545.49 216.227 543.225 214.742 540.739 213.737C538.252 212.732 535.592 212.226 532.91 212.25Z" stroke="black" stroke-width="21.14" stroke-linecap="round" stroke-linejoin="round"/>
<path d="M282 105.26C184.14 105.26 104.82 183.26 104.82 279.48C104.82 375.7 184.18 453.69 282 453.69C379.82 453.69 459.17 375.69 459.17 279.48C459.17 183.27 379.89 105.26 282 105.26ZM340.28 405.4L282.4 355.1C176.55 382.44 152 247.4 152 247.4L161.08 238.47C279.56 341.25 347.71 265.32 229.23 162.53L238.31 153.6C383.69 167 354.11 275.28 354.11 275.28L412 325.58L340.28 405.4Z" fill="black"/>
</g>
<defs>
<clipPath id="clip0_381_332">
<rect width="564.07" height="558.95" fill="white"/>
</clipPath>
</defs>
</svg>
