<svg width="557" height="472" viewBox="0 0 557 472" fill="none" xmlns="http://www.w3.org/2000/svg">
<g clip-path="url(#clip0_381_337)">
<path d="M258 382.07H0C0.351182 373.342 1.59772 364.673 3.72 356.2C10.7074 328.269 26.8302 303.474 49.5258 285.756C72.2214 268.039 100.188 258.416 128.98 258.416C157.772 258.416 185.739 268.039 208.434 285.756C231.13 303.474 247.253 328.269 254.24 356.2C256.376 364.672 257.636 373.341 258 382.07Z" fill="black"/>
<path d="M206.68 169.34C206.682 184.711 202.125 199.738 193.586 212.519C185.047 225.301 172.909 235.262 158.708 241.145C144.507 247.027 128.88 248.566 113.804 245.566C98.7287 242.566 84.8812 235.163 74.0135 224.292C63.1457 213.422 55.7459 199.572 52.7501 184.496C49.7542 169.419 51.2968 153.793 57.1828 139.593C63.0688 125.394 73.0337 113.258 85.8172 104.723C98.6007 96.187 113.629 91.6342 129 91.6401C149.603 91.6481 169.359 99.8375 183.926 114.408C198.493 128.978 206.677 148.737 206.68 169.34Z" fill="black"/>
<path d="M556.33 382.07H298.33C299.607 351.031 312.033 321.493 333.327 298.875C354.622 276.257 383.358 262.075 414.263 258.93C445.169 255.786 476.172 263.891 501.586 281.757C526.999 299.624 545.118 326.054 552.62 356.2C554.739 364.674 555.982 373.342 556.33 382.07Z" fill="black"/>
<path d="M505.07 169.34C505.072 184.71 500.516 199.735 491.979 212.515C483.442 225.296 471.306 235.257 457.107 241.141C442.909 247.025 427.284 248.565 412.209 245.569C397.135 242.572 383.287 235.173 372.418 224.306C361.548 213.44 354.145 199.594 351.145 184.52C348.145 169.447 349.682 153.821 355.561 139.621C361.441 125.421 371.4 113.283 384.178 104.742C396.956 96.2017 411.98 91.6421 427.35 91.6401C437.555 91.6388 447.66 93.6475 457.089 97.5516C466.518 101.456 475.085 107.179 482.302 114.394C489.519 121.609 495.244 130.175 499.151 139.603C503.057 149.03 505.069 159.135 505.07 169.34Z" fill="black"/>
<path d="M278.17 288.23C308.518 288.23 333.12 263.628 333.12 233.28C333.12 202.932 308.518 178.33 278.17 178.33C247.822 178.33 223.22 202.932 223.22 233.28C223.22 263.628 247.822 288.23 278.17 288.23Z" stroke="black" stroke-width="20" stroke-linecap="round" stroke-linejoin="round"/>
<path d="M281.508 189.125L280.778 242.898H272.303L271.572 189.125H281.508ZM276.54 264.524C274.738 264.524 273.192 263.879 271.901 262.588C270.61 261.298 269.965 259.751 269.965 257.949C269.965 256.147 270.61 254.6 271.901 253.31C273.192 252.019 274.738 251.373 276.54 251.373C278.342 251.373 279.889 252.019 281.18 253.31C282.47 254.6 283.116 256.147 283.116 257.949C283.116 259.142 282.811 260.238 282.202 261.237C281.618 262.235 280.826 263.039 279.828 263.648C278.854 264.232 277.758 264.524 276.54 264.524Z" fill="black"/>
<path d="M98.5298 31.52H416.72" stroke="black" stroke-width="20" stroke-linecap="round" stroke-linejoin="round"/>
<path d="M411.16 3.38001V59.66C411.158 60.2761 411.325 60.8809 411.643 61.4086C411.961 61.9364 412.417 62.367 412.962 62.6536C413.508 62.9402 414.121 63.0718 414.736 63.0341C415.351 62.9965 415.944 62.791 416.45 62.44L456.85 34.63C457.296 34.3184 457.66 33.9039 457.911 33.4217C458.162 32.9395 458.293 32.4038 458.293 31.86C458.293 31.3163 458.162 30.7805 457.911 30.2983C457.66 29.8161 457.296 29.4016 456.85 29.09L416.48 0.620005C415.974 0.265401 415.381 0.0562422 414.764 0.0152587C414.148 -0.0257248 413.532 0.103035 412.984 0.387545C412.435 0.672055 411.975 1.10143 411.654 1.62901C411.332 2.15659 411.162 2.76219 411.16 3.38001Z" fill="black"/>
<path d="M458.31 439.86H140.11" stroke="black" stroke-width="20" stroke-linecap="round" stroke-linejoin="round"/>
<path d="M145.68 411.72V468C145.681 468.617 145.514 469.223 145.196 469.751C144.877 470.28 144.42 470.711 143.874 470.999C143.328 471.286 142.714 471.419 142.098 471.382C141.482 471.345 140.888 471.14 140.38 470.79L99.9999 443C99.5523 442.69 99.1866 442.276 98.9339 441.793C98.6813 441.311 98.5493 440.774 98.5493 440.23C98.5493 439.685 98.6813 439.149 98.9339 438.666C99.1866 438.184 99.5523 437.77 99.9999 437.46L140.35 409C140.853 408.644 141.444 408.433 142.058 408.389C142.673 408.345 143.288 408.47 143.837 408.75C144.385 409.03 144.847 409.454 145.172 409.978C145.497 410.501 145.673 411.104 145.68 411.72Z" fill="black"/>
</g>
<defs>
<clipPath id="clip0_381_337">
<rect width="556.33" height="471.38" fill="white"/>
</clipPath>
</defs>
</svg>
