<svg width="453" height="582" viewBox="0 0 453 582" fill="none" xmlns="http://www.w3.org/2000/svg">
<g clip-path="url(#clip0_381_322)">
<path d="M193.38 494.49H10.6699V10.6699H272.31L390.71 129.07V259.16" stroke="black" stroke-width="21.35" stroke-linecap="round" stroke-linejoin="round"/>
<path d="M164.15 374.63H72.0601" stroke="black" stroke-width="21.35" stroke-linecap="round" stroke-linejoin="round"/>
<path d="M150.99 89.6001H72.0601" stroke="black" stroke-width="21.35" stroke-linecap="round" stroke-linejoin="round"/>
<path d="M164.15 297.23H72.0601" stroke="black" stroke-width="21.35" stroke-linecap="round" stroke-linejoin="round"/>
<path d="M251.85 165.61H72.0601" stroke="black" stroke-width="21.35" stroke-linecap="round" stroke-linejoin="round"/>
<path d="M314.7 228.46H72.0601" stroke="black" stroke-width="21.35" stroke-linecap="round" stroke-linejoin="round"/>
<path d="M441.43 276.26H225.43C222.599 276.26 219.884 277.384 217.882 279.384C215.879 281.385 214.753 284.099 214.75 286.93V570.49C214.75 573.322 215.875 576.039 217.878 578.042C219.881 580.045 222.597 581.17 225.43 581.17H441.43C444.261 581.167 446.975 580.041 448.975 578.038C450.976 576.036 452.1 573.321 452.1 570.49V286.93C452.1 285.529 451.824 284.141 451.288 282.847C450.752 281.552 449.966 280.376 448.975 279.385C447.984 278.394 446.808 277.608 445.513 277.072C444.219 276.536 442.831 276.26 441.43 276.26ZM417.89 374.63C417.89 377.461 416.766 380.176 414.765 382.178C412.765 384.181 410.051 385.307 407.22 385.31H259.59C256.759 385.307 254.045 384.181 252.045 382.178C250.044 380.176 248.92 377.461 248.92 374.63V323.48C248.917 322.077 249.191 320.688 249.727 319.392C250.262 318.096 251.048 316.918 252.039 315.926C253.03 314.933 254.207 314.147 255.503 313.61C256.799 313.074 258.188 312.798 259.59 312.8H407.22C408.622 312.8 410.01 313.076 411.306 313.613C412.601 314.15 413.777 314.937 414.768 315.928C415.759 316.92 416.545 318.098 417.081 319.393C417.616 320.689 417.891 322.078 417.89 323.48V374.63Z" fill="black"/>
</g>
<defs>
<clipPath id="clip0_381_322">
<rect width="452.1" height="581.17" fill="white"/>
</clipPath>
</defs>
</svg>
