<svg width="480" height="581" viewBox="0 0 480 581" fill="none" xmlns="http://www.w3.org/2000/svg">
<g clip-path="url(#clip0_381_105)">
<path d="M469.02 10.5601H38.3301V570.22H469.02V10.5601Z" stroke="black" stroke-width="21.12" stroke-linecap="round" stroke-linejoin="round"/>
<path d="M111.33 373.25H396.03" stroke="black" stroke-width="21.12" stroke-linecap="round" stroke-linejoin="round"/>
<path d="M186.82 497.43H320.54" stroke="black" stroke-width="21.12" stroke-linecap="round" stroke-linejoin="round"/>
<path d="M146.92 434.81H360.44" stroke="black" stroke-width="21.12" stroke-linecap="round" stroke-linejoin="round"/>
<path d="M253.68 322.94C319.794 322.94 373.39 269.344 373.39 203.23C373.39 137.116 319.794 83.52 253.68 83.52C187.566 83.52 133.97 137.116 133.97 203.23C133.97 269.344 187.566 322.94 253.68 322.94Z" stroke="black" stroke-width="21.12" stroke-linecap="round" stroke-linejoin="round"/>
<path d="M253.68 218.84C277.633 218.84 297.05 199.423 297.05 175.47C297.05 151.518 277.633 132.1 253.68 132.1C229.727 132.1 210.31 151.518 210.31 175.47C210.31 199.423 229.727 218.84 253.68 218.84Z" fill="black"/>
<path d="M328.6 296.59C328.67 295.35 328.7 294.11 328.7 292.85C328.7 283.001 326.76 273.248 322.991 264.149C319.222 255.049 313.697 246.781 306.733 239.817C299.769 232.853 291.501 227.328 282.401 223.559C273.302 219.79 263.549 217.85 253.7 217.85C243.851 217.85 234.098 219.79 224.999 223.559C215.899 227.328 207.631 232.853 200.667 239.817C193.703 246.781 188.178 255.049 184.409 264.149C180.64 273.248 178.7 283.001 178.7 292.85C178.7 294.11 178.7 295.35 178.8 296.59C232.46 330.5 282.67 332.94 328.6 296.59Z" fill="black"/>
<path d="M67.5801 80.1001H10.5601" stroke="black" stroke-width="21.12" stroke-linecap="round" stroke-linejoin="round"/>
<path d="M67.5801 185.24H10.5601" stroke="black" stroke-width="21.12" stroke-linecap="round" stroke-linejoin="round"/>
<path d="M67.5801 290.39H10.5601" stroke="black" stroke-width="21.12" stroke-linecap="round" stroke-linejoin="round"/>
<path d="M67.5801 500.68H10.5601" stroke="black" stroke-width="21.12" stroke-linecap="round" stroke-linejoin="round"/>
<path d="M67.5801 395.54H10.5601" stroke="black" stroke-width="21.12" stroke-linecap="round" stroke-linejoin="round"/>
</g>
<defs>
<clipPath id="clip0_381_105">
<rect width="479.59" height="580.78" fill="white"/>
</clipPath>
</defs>
</svg>
