<svg width="569" height="504" viewBox="0 0 569 504" fill="none" xmlns="http://www.w3.org/2000/svg">
<g clip-path="url(#clip0_381_350)">
<path d="M563.93 456.77L422.44 342.93C416.78 338.37 407.54 339.98 399.44 346.17L384.97 364.17C380.64 373.38 381.06 382.75 386.72 387.3L528.24 501.13C535.53 507 548.76 502.66 557.78 491.44L560.78 487.7C569.82 476.48 571.22 462.63 563.93 456.77Z" fill="black"/>
<path d="M207.01 402.1C314.755 402.1 402.1 314.755 402.1 207.01C402.1 99.2647 314.755 11.9199 207.01 11.9199C99.2647 11.9199 11.9199 99.2647 11.9199 207.01C11.9199 314.755 99.2647 402.1 207.01 402.1Z" stroke="black" stroke-width="23.83" stroke-linecap="round" stroke-linejoin="round"/>
<path d="M360.08 329.3L445.12 397.71" stroke="black" stroke-width="23.83" stroke-linecap="round" stroke-linejoin="round"/>
<path d="M313.89 105.47L302 108C309.18 141.83 297.86 173 269.84 196.05C253.412 209.478 233.579 218.08 212.55 220.9C151.27 229.44 130.73 253.73 134.05 313.7C134.222 316.855 133.135 319.95 131.027 322.304C128.92 324.659 125.965 326.082 122.81 326.26H122.14C119.092 326.264 116.16 325.098 113.947 323.003C111.735 320.908 110.411 318.043 110.25 315C108.17 277.54 114.86 251.18 131.3 232.08C147.3 213.52 172.03 202.47 209.25 197.28C225.918 195.066 241.644 188.271 254.68 177.65C276.05 160.03 284.11 138.24 278.68 112.89L266.09 115.53C265.567 115.639 265.025 115.603 264.521 115.426C264.018 115.249 263.572 114.938 263.232 114.526C262.893 114.114 262.672 113.617 262.594 113.089C262.516 112.561 262.584 112.022 262.79 111.53L279.79 72.1197C279.974 71.6833 280.261 71.2978 280.627 70.9962C280.992 70.6946 281.425 70.4858 281.889 70.3876C282.352 70.2894 282.833 70.3047 283.289 70.4321C283.745 70.5596 284.164 70.7955 284.51 71.1197L315.35 100.48C315.733 100.852 316.008 101.322 316.145 101.84C316.281 102.357 316.274 102.901 316.123 103.415C315.973 103.928 315.686 104.391 315.292 104.753C314.899 105.115 314.414 105.363 313.89 105.47Z" fill="black"/>
<path d="M104.4 115.54L148.26 159.4" stroke="black" stroke-width="23.83" stroke-linecap="round" stroke-linejoin="round"/>
<path d="M148.26 115.54L104.4 159.4" stroke="black" stroke-width="23.83" stroke-linecap="round" stroke-linejoin="round"/>
<path d="M312.24 255.17L268.38 299.03L244.2 274.86" stroke="black" stroke-width="23.83" stroke-linecap="round" stroke-linejoin="round"/>
</g>
<defs>
<clipPath id="clip0_381_350">
<rect width="568.6" height="503.74" fill="white"/>
</clipPath>
</defs>
</svg>
