<svg width="594" height="537" viewBox="0 0 594 537" fill="none" xmlns="http://www.w3.org/2000/svg">
<g clip-path="url(#clip0_381_360)">
<path d="M404 272.65H189.4C189.69 265.387 190.726 258.172 192.49 251.12C198.303 227.877 211.718 207.243 230.604 192.499C249.489 177.755 272.761 169.747 296.72 169.747C320.679 169.747 343.951 177.755 362.837 192.499C381.722 207.243 395.137 227.877 400.95 251.12C402.701 258.173 403.723 265.388 404 272.65Z" fill="black"/>
<path d="M361.38 95.64C361.384 108.429 357.595 120.932 350.493 131.568C343.391 142.203 333.295 150.494 321.481 155.391C309.666 160.289 296.665 161.573 284.121 159.081C271.578 156.589 260.054 150.433 251.009 141.392C241.964 132.351 235.803 120.831 233.305 108.288C230.808 95.7453 232.085 82.7436 236.977 70.9272C241.869 59.1108 250.155 49.0104 260.788 41.9034C271.42 34.7964 283.921 31.002 296.71 31C313.857 30.9973 330.303 37.8058 342.431 49.9279C354.559 62.0499 361.375 78.4928 361.38 95.64Z" fill="black"/>
<path d="M165.42 525.97V341.53" stroke="black" stroke-width="21.65" stroke-linecap="round" stroke-linejoin="round"/>
<path d="M428.01 525.97V341.53" stroke="black" stroke-width="21.65" stroke-linecap="round" stroke-linejoin="round"/>
<path d="M165.42 472.83H428.01" stroke="black" stroke-width="21.65" stroke-linecap="round" stroke-linejoin="round"/>
<path d="M477.25 278.29H116.18V341.53H477.25V278.29Z" stroke="black" stroke-width="21.65" stroke-linecap="round" stroke-linejoin="round"/>
<path d="M582.61 82.1901C582.61 121.61 541.33 153.56 490.42 153.56C470.84 153.56 452.68 148.83 437.75 140.76L392.42 160.3L412.14 119.9C403.33 109 398.24 96.0001 398.24 82.1901C398.24 42.7801 439.5 10.8301 490.42 10.8301C541.34 10.8301 582.61 42.7801 582.61 82.1901Z" stroke="black" stroke-width="21.65" stroke-linecap="round" stroke-linejoin="round"/>
<path d="M442.19 95.2402C449.79 95.2402 455.95 89.0797 455.95 81.4802C455.95 73.8808 449.79 67.7202 442.19 67.7202C434.591 67.7202 428.43 73.8808 428.43 81.4802C428.43 89.0797 434.591 95.2402 442.19 95.2402Z" fill="black"/>
<path d="M491.27 95.2402C498.869 95.2402 505.03 89.0797 505.03 81.4802C505.03 73.8808 498.869 67.7202 491.27 67.7202C483.671 67.7202 477.51 73.8808 477.51 81.4802C477.51 89.0797 483.671 95.2402 491.27 95.2402Z" fill="black"/>
<path d="M540.34 95.2402C547.94 95.2402 554.1 89.0797 554.1 81.4802C554.1 73.8808 547.94 67.7202 540.34 67.7202C532.741 67.7202 526.58 73.8808 526.58 81.4802C526.58 89.0797 532.741 95.2402 540.34 95.2402Z" fill="black"/>
<path d="M10.8301 82.1901C10.8301 121.61 52.1001 153.56 103.02 153.56C122.6 153.56 140.75 148.83 155.68 140.76L201 160.3L181.28 119.9C190.11 109 195.2 96.0001 195.2 82.1901C195.2 42.7801 153.93 10.8301 103.02 10.8301C52.1101 10.8301 10.8301 42.7801 10.8301 82.1901Z" stroke="black" stroke-width="21.65" stroke-linecap="round" stroke-linejoin="round"/>
<path d="M151.24 95.2402C158.839 95.2402 165 89.0797 165 81.4802C165 73.8808 158.839 67.7202 151.24 67.7202C143.641 67.7202 137.48 73.8808 137.48 81.4802C137.48 89.0797 143.641 95.2402 151.24 95.2402Z" fill="black"/>
<path d="M102.17 95.2402C109.77 95.2402 115.93 89.0797 115.93 81.4802C115.93 73.8808 109.77 67.7202 102.17 67.7202C94.5707 67.7202 88.4102 73.8808 88.4102 81.4802C88.4102 89.0797 94.5707 95.2402 102.17 95.2402Z" fill="black"/>
<path d="M53.0901 95.2402C60.6895 95.2402 66.8501 89.0797 66.8501 81.4802C66.8501 73.8808 60.6895 67.7202 53.0901 67.7202C45.4906 67.7202 39.3301 73.8808 39.3301 81.4802C39.3301 89.0797 45.4906 95.2402 53.0901 95.2402Z" fill="black"/>
<path d="M300.605 356.665L299.757 419.099H289.916L289.068 356.665H300.605ZM294.837 444.209C292.744 444.209 290.949 443.46 289.45 441.961C287.951 440.462 287.202 438.667 287.202 436.574C287.202 434.482 287.951 432.686 289.45 431.188C290.949 429.689 292.744 428.94 294.837 428.94C296.929 428.94 298.725 429.689 300.223 431.188C301.722 432.686 302.471 434.482 302.471 436.574C302.471 437.96 302.118 439.232 301.411 440.392C300.732 441.551 299.813 442.484 298.654 443.191C297.523 443.87 296.25 444.209 294.837 444.209Z" fill="black"/>
</g>
<defs>
<clipPath id="clip0_381_360">
<rect width="593.43" height="536.8" fill="white"/>
</clipPath>
</defs>
</svg>
