<svg width="534" height="566" viewBox="0 0 534 566" fill="none" xmlns="http://www.w3.org/2000/svg">
<g clip-path="url(#clip0_381_378)">
<path d="M408 296C383.168 296 358.894 303.364 338.247 317.16C317.6 330.956 301.508 350.565 292.006 373.506C282.504 396.448 280.018 421.693 284.863 446.047C289.708 470.402 301.667 492.773 319.226 510.331C336.786 527.889 359.158 539.846 383.513 544.689C407.868 549.532 433.112 547.044 456.053 537.54C478.994 528.036 498.601 511.942 512.396 491.295C526.19 470.647 533.552 446.372 533.55 421.54C533.545 388.245 520.315 356.315 496.771 332.772C473.226 309.23 441.295 296.003 408 296ZM396.38 380.93L341.53 393.72C343.88 340.54 392.68 336.5 396.38 380.92V380.93ZM350 481.72C350 399.17 467.11 399.17 467.11 481.72H350ZM423 380.92C426.7 336.5 475.5 340.54 477.85 393.71L423 380.92Z" fill="black"/>
<path d="M110.25 68.63C187.45 -8.57002 312.62 -8.57002 389.83 68.63C423.162 101.861 443.486 145.933 447.12 192.86" stroke="black" stroke-width="21.45" stroke-linecap="round" stroke-linejoin="round"/>
<path d="M481.29 184H410C409.22 184.001 408.455 184.214 407.787 184.618C407.12 185.022 406.576 185.601 406.213 186.292C405.851 186.983 405.684 187.759 405.731 188.538C405.778 189.317 406.037 190.068 406.48 190.71L441.71 241.87C442.105 242.431 442.629 242.889 443.238 243.205C443.848 243.522 444.524 243.687 445.21 243.687C445.896 243.687 446.573 243.522 447.182 243.205C447.791 242.889 448.315 242.431 448.71 241.87L484.76 190.7C485.198 190.061 485.454 189.316 485.502 188.543C485.55 187.77 485.387 186.999 485.031 186.311C484.675 185.624 484.139 185.046 483.48 184.639C482.821 184.232 482.064 184.011 481.29 184Z" fill="black"/>
<path d="M392.53 497.3C315.33 574.51 190.16 574.51 112.95 497.3C79.6186 464.069 59.2942 419.996 55.6602 373.07" stroke="black" stroke-width="21.45" stroke-linecap="round" stroke-linejoin="round"/>
<path d="M21.49 382H92.76C93.5394 382 94.3039 381.787 94.9712 381.384C95.6385 380.982 96.1831 380.404 96.5464 379.715C96.9097 379.025 97.0778 378.25 97.0326 377.472C96.9874 376.694 96.7307 375.943 96.29 375.3L61.06 324.12C60.6664 323.557 60.1427 323.097 59.5334 322.779C58.924 322.462 58.2471 322.296 57.56 322.296C56.8729 322.296 56.1959 322.462 55.5866 322.779C54.9773 323.097 54.4536 323.557 54.06 324.12L18 375.24C17.5447 375.88 17.2745 376.634 17.219 377.417C17.1634 378.201 17.3247 378.985 17.6852 379.683C18.0456 380.382 18.5913 380.967 19.2625 381.376C19.9336 381.784 20.7042 382 21.49 382Z" fill="black"/>
<path d="M125.54 55.8701C100.709 55.8701 76.4348 63.2335 55.7882 77.0291C35.1416 90.8247 19.0496 110.433 9.54697 133.374C0.0443888 156.315 -2.44192 181.559 2.40245 205.914C7.24683 230.268 19.2043 252.639 36.7628 270.197C54.3213 287.756 76.6921 299.713 101.046 304.558C125.401 309.402 150.645 306.916 173.586 297.413C196.527 287.911 216.135 271.819 229.931 251.172C243.727 230.525 251.09 206.252 251.09 181.42C251.09 164.933 247.843 148.607 241.533 133.374C235.224 118.142 225.976 104.301 214.317 92.6429C202.659 80.9845 188.818 71.7365 173.586 65.427C158.354 59.1176 142.028 55.8701 125.54 55.8701ZM113.92 140.79L59.07 153.58C61.42 100.42 110.22 96.3801 113.92 140.79ZM67.53 190.6H184.63C184.63 273.15 67.53 273.15 67.53 190.6ZM140.53 140.79C144.23 96.3801 193.03 100.42 195.39 153.58L140.53 140.79Z" fill="black"/>
</g>
<defs>
<clipPath id="clip0_381_378">
<rect width="533.55" height="565.93" fill="white"/>
</clipPath>
</defs>
</svg>
