<svg width="551" height="507" viewBox="0 0 551 507" fill="none" xmlns="http://www.w3.org/2000/svg">
<g clip-path="url(#clip0_381_387)">
<path d="M183.16 381.46C182.06 382.23 180.97 383.02 179.89 383.82C157.265 400.572 139.409 422.944 128.09 448.72H0C0.861604 427.857 7.88769 407.718 20.1905 390.847C32.4933 373.975 49.5208 361.129 69.1215 353.932C88.7222 346.734 110.017 345.507 130.314 350.407C150.612 355.307 169.001 366.113 183.16 381.46Z" fill="black"/>
<path d="M211.14 448.72H137.69C148.451 425.798 164.743 405.911 185.1 390.85C186.34 389.93 187.59 389.04 188.86 388.16C197.97 399.793 204.529 413.214 208.11 427.55C209.844 434.484 210.859 441.578 211.14 448.72Z" fill="black"/>
<path d="M169.18 274.6C169.182 287.181 165.453 299.481 158.465 309.943C151.476 320.404 141.542 328.559 129.919 333.375C118.296 338.191 105.506 339.452 93.1664 336.999C80.8266 334.546 69.4915 328.488 60.5945 319.593C51.6974 310.697 45.6382 299.363 43.183 287.023C40.7278 274.684 41.9869 261.894 46.8011 250.27C51.6153 238.646 59.7683 228.711 70.2291 221.721C80.69 214.731 92.9887 211 105.57 211C122.439 211 138.617 217.7 150.546 229.627C162.474 241.554 169.177 257.731 169.18 274.6Z" fill="black"/>
<path d="M413 448.72H339.52C340.432 426.699 348.228 405.518 361.81 388.16C363.08 389.04 364.32 389.94 365.55 390.85C385.926 405.902 402.233 425.79 413 448.72Z" fill="black"/>
<path d="M550.67 448.72H422.58C411.261 422.936 393.397 400.559 370.76 383.81C369.68 383.01 368.59 382.23 367.5 381.47C385.122 362.318 409.207 350.361 435.116 347.902C461.026 345.443 486.929 352.655 507.84 368.15C527.595 382.732 541.663 403.732 547.63 427.55C549.367 434.483 550.386 441.578 550.67 448.72Z" fill="black"/>
<path d="M508.7 274.6C508.702 287.181 504.973 299.481 497.985 309.943C490.996 320.404 481.062 328.559 469.439 333.375C457.816 338.191 445.026 339.452 432.686 336.999C420.347 334.546 409.012 328.488 400.114 319.593C391.217 310.697 385.158 299.363 382.703 287.023C380.248 274.684 381.507 261.894 386.321 250.27C391.135 238.646 399.288 228.711 409.749 221.721C420.21 214.731 432.509 211 445.09 211C453.443 210.999 461.714 212.643 469.432 215.838C477.149 219.034 484.162 223.719 490.068 229.624C495.975 235.53 500.661 242.542 503.858 250.259C507.055 257.976 508.7 266.247 508.7 274.6Z" fill="black"/>
<path d="M427.14 506.72H123.53C124.358 486.639 129.171 466.923 137.69 448.72C148.451 425.798 164.743 405.911 185.1 390.85C186.34 389.93 187.59 389.04 188.86 388.16C214.25 370.506 244.435 361.043 275.36 361.043C306.285 361.043 336.47 370.506 361.86 388.16C363.13 389.04 364.37 389.94 365.6 390.85C385.957 405.908 402.247 425.796 413 448.72C421.543 466.915 426.358 486.636 427.16 506.72H427.14Z" fill="black"/>
<path d="M366.8 256.34C366.802 274.431 361.439 292.117 351.389 307.161C341.34 322.204 327.055 333.93 310.341 340.854C293.627 347.779 275.235 349.592 257.491 346.064C239.747 342.535 223.448 333.824 210.654 321.032C197.861 308.241 189.148 291.942 185.618 274.198C182.088 256.455 183.899 238.063 190.822 221.348C197.745 204.634 209.468 190.347 224.511 180.296C239.553 170.245 257.238 164.88 275.33 164.88C299.588 164.88 322.852 174.515 340.005 191.667C357.159 208.819 366.797 232.082 366.8 256.34Z" fill="black"/>
<path d="M280.31 3.0899L301.91 46.8599L350.21 53.8599C351.233 54.0085 352.194 54.4405 352.985 55.1068C353.775 55.7732 354.363 56.6474 354.682 57.6306C355.002 58.6138 355.04 59.6668 354.792 60.6705C354.544 61.6741 354.02 62.5884 353.28 63.3099L318.33 97.3999L326.58 145.51C326.75 146.524 326.634 147.565 326.246 148.516C325.858 149.468 325.213 150.293 324.383 150.899C323.552 151.505 322.57 151.868 321.545 151.948C320.521 152.027 319.494 151.82 318.58 151.35L275.37 128.64L232.17 151.35C231.256 151.82 230.23 152.027 229.205 151.948C228.18 151.868 227.198 151.505 226.368 150.899C225.537 150.293 224.892 149.468 224.504 148.516C224.116 147.565 224 146.524 224.17 145.51L232.42 97.3999L197.42 63.3299C196.68 62.6084 196.156 61.6941 195.908 60.6905C195.66 59.6868 195.698 58.6339 196.018 57.6506C196.337 56.6674 196.925 55.7932 197.716 55.1268C198.506 54.4605 199.467 54.0285 200.49 53.8799L248.79 46.8799L270.39 3.1099C270.85 2.18922 271.557 1.41454 272.432 0.87243C273.306 0.330319 274.315 0.0421253 275.344 0.0400503C276.373 0.0379754 277.382 0.322101 278.259 0.86068C279.136 1.39926 279.846 2.17108 280.31 3.0899Z" fill="black"/>
</g>
<defs>
<clipPath id="clip0_381_387">
<rect width="550.67" height="506.72" fill="white"/>
</clipPath>
</defs>
</svg>
