<svg width="461" height="555" viewBox="0 0 461 555" fill="none" xmlns="http://www.w3.org/2000/svg">
<g clip-path="url(#clip0_381_399)">
<path d="M292.24 130.55C291.02 123.81 289.577 117.143 287.91 110.55H248.36C252.193 114.935 254.301 120.565 254.29 126.39C254.292 127.784 254.172 129.176 253.93 130.55H292.24ZM230.12 112.22C226.372 112.238 222.784 113.739 220.138 116.394C217.493 119.048 216.005 122.642 216 126.39C215.999 127.8 216.212 129.203 216.63 130.55H243.71C244.128 129.203 244.341 127.8 244.34 126.39C244.337 124.526 243.967 122.68 243.251 120.959C242.535 119.237 241.487 117.674 240.166 116.358C238.846 115.042 237.279 114 235.555 113.289C233.831 112.579 231.984 112.216 230.12 112.22ZM211.88 110.55H172.33C170.65 117.143 169.203 123.81 167.99 130.55H206.31C206.068 129.176 205.948 127.784 205.95 126.39C205.939 120.565 208.047 114.935 211.88 110.55ZM230.12 112.22C226.372 112.238 222.784 113.739 220.138 116.394C217.493 119.048 216.005 122.642 216 126.39C215.999 127.8 216.212 129.203 216.63 130.55H243.71C244.128 129.203 244.341 127.8 244.34 126.39C244.337 124.526 243.967 122.68 243.251 120.959C242.535 119.237 241.487 117.674 240.166 116.358C238.846 115.042 237.279 114 235.555 113.289C233.831 112.579 231.984 112.216 230.12 112.22ZM292.24 130.55C291.02 123.81 289.577 117.143 287.91 110.55H248.36C252.193 114.935 254.301 120.565 254.29 126.39C254.292 127.784 254.172 129.176 253.93 130.55H292.24ZM421.94 110.55H298.19C299.803 117.103 301.2 123.77 302.38 130.55H421.94C426.79 130.552 431.441 132.48 434.87 135.91C438.3 139.339 440.227 143.99 440.23 148.84V435.13C440.225 439.979 438.296 444.628 434.867 448.057C431.438 451.486 426.789 453.415 421.94 453.42H38.29C33.4416 453.412 28.7941 451.482 25.3658 448.054C21.9375 444.626 20.0079 439.978 20 435.13V148.84C20.0053 143.991 21.934 139.342 25.3629 135.913C28.7918 132.484 33.4408 130.555 38.29 130.55H157.86L162.05 110.55H38.29C28.1389 110.563 18.4074 114.601 11.2295 121.779C4.05159 128.957 0.0132296 138.689 0 148.84L0 435.13C0.0132296 445.281 4.05159 455.012 11.2295 462.19C18.4074 469.368 28.1389 473.407 38.29 473.42H421.94C432.092 473.409 441.825 469.372 449.003 462.193C456.182 455.015 460.219 445.282 460.23 435.13V148.84C460.219 138.688 456.182 128.955 449.003 121.776C441.825 114.598 432.092 110.56 421.94 110.55ZM230.12 112.22C226.372 112.238 222.784 113.739 220.138 116.394C217.493 119.048 216.005 122.642 216 126.39C215.999 127.8 216.212 129.203 216.63 130.55H243.71C244.128 129.203 244.341 127.8 244.34 126.39C244.337 124.526 243.967 122.68 243.251 120.959C242.535 119.237 241.487 117.674 240.166 116.358C238.846 115.042 237.279 114 235.555 113.289C233.831 112.579 231.984 112.216 230.12 112.22ZM292.24 130.55C291.02 123.81 289.577 117.143 287.91 110.55H248.36C252.193 114.935 254.301 120.565 254.29 126.39C254.292 127.784 254.172 129.176 253.93 130.55H292.24Z" fill="black"/>
<path d="M200.16 398.52H16.1599C13.5077 398.52 10.9642 397.466 9.08884 395.591C7.21348 393.716 6.15991 391.172 6.15991 388.52C6.15991 385.868 7.21348 383.324 9.08884 381.449C10.9642 379.574 13.5077 378.52 16.1599 378.52H191.16C193.9 385.32 197 392.11 200.16 398.52Z" fill="black"/>
<path d="M258.24 378.52C255.39 385.38 252.14 392.19 248.87 398.52H211.36C208.1 392.19 204.85 385.38 201.99 378.52H258.24Z" fill="black"/>
<path d="M454.06 388.52C454.06 391.172 453.007 393.716 451.131 395.591C449.256 397.466 446.712 398.52 444.06 398.52H260.06C263.22 392.11 266.31 385.32 268.99 378.52H444.06C446.712 378.52 449.256 379.574 451.131 381.449C453.007 383.324 454.06 385.868 454.06 388.52Z" fill="black"/>
<path d="M333.64 554.47H126.64C125.033 554.471 123.448 554.085 122.022 553.345C120.595 552.604 119.368 551.53 118.445 550.214C117.522 548.898 116.929 547.379 116.718 545.786C116.506 544.192 116.682 542.571 117.23 541.06L145.84 462.06C146.539 460.127 147.816 458.457 149.498 457.276C151.18 456.095 153.185 455.461 155.24 455.46H305.78C307.85 455.461 309.869 456.103 311.558 457.3C313.247 458.496 314.523 460.188 315.21 462.14L343.07 541.19C343.603 542.698 343.766 544.312 343.546 545.897C343.325 547.481 342.728 548.989 341.804 550.295C340.881 551.601 339.657 552.666 338.236 553.401C336.816 554.136 335.24 554.52 333.64 554.52V554.47ZM140.85 534.47H319.51L298.7 475.41H162.22L140.85 534.47Z" fill="black"/>
<path d="M230.12 112.22C226.372 112.238 222.784 113.739 220.138 116.394C217.493 119.049 216.005 122.642 216 126.39C215.999 127.8 216.212 129.203 216.63 130.55C217.517 133.449 219.312 135.987 221.749 137.79C224.187 139.593 227.138 140.566 230.17 140.566C233.202 140.566 236.154 139.593 238.591 137.79C241.028 135.987 242.823 133.449 243.71 130.55C244.128 129.203 244.341 127.8 244.34 126.39C244.337 124.526 243.967 122.68 243.251 120.959C242.535 119.238 241.487 117.674 240.166 116.358C238.846 115.043 237.279 114 235.555 113.29C233.831 112.58 231.984 112.216 230.12 112.22ZM230.12 112.22C226.372 112.238 222.784 113.739 220.138 116.394C217.493 119.049 216.005 122.642 216 126.39C215.999 127.8 216.212 129.203 216.63 130.55C217.517 133.449 219.312 135.987 221.749 137.79C224.187 139.593 227.138 140.566 230.17 140.566C233.202 140.566 236.154 139.593 238.591 137.79C241.028 135.987 242.823 133.449 243.71 130.55C244.128 129.203 244.341 127.8 244.34 126.39C244.337 124.526 243.967 122.68 243.251 120.959C242.535 119.238 241.487 117.674 240.166 116.358C238.846 115.043 237.279 114 235.555 113.29C233.831 112.58 231.984 112.216 230.12 112.22ZM230.12 112.22C226.372 112.238 222.784 113.739 220.138 116.394C217.493 119.049 216.005 122.642 216 126.39C215.999 127.8 216.212 129.203 216.63 130.55C217.517 133.449 219.312 135.987 221.749 137.79C224.187 139.593 227.138 140.566 230.17 140.566C233.202 140.566 236.154 139.593 238.591 137.79C241.028 135.987 242.823 133.449 243.71 130.55C244.128 129.203 244.341 127.8 244.34 126.39C244.337 124.526 243.967 122.68 243.251 120.959C242.535 119.238 241.487 117.674 240.166 116.358C238.846 115.043 237.279 114 235.555 113.29C233.831 112.58 231.984 112.216 230.12 112.22ZM230.12 112.22C226.372 112.238 222.784 113.739 220.138 116.394C217.493 119.049 216.005 122.642 216 126.39C215.999 127.8 216.212 129.203 216.63 130.55C217.517 133.449 219.312 135.987 221.749 137.79C224.187 139.593 227.138 140.566 230.17 140.566C233.202 140.566 236.154 139.593 238.591 137.79C241.028 135.987 242.823 133.449 243.71 130.55C244.128 129.203 244.341 127.8 244.34 126.39C244.337 124.526 243.967 122.68 243.251 120.959C242.535 119.238 241.487 117.674 240.166 116.358C238.846 115.043 237.279 114 235.555 113.29C233.831 112.58 231.984 112.216 230.12 112.22ZM230.12 112.22C226.372 112.238 222.784 113.739 220.138 116.394C217.493 119.049 216.005 122.642 216 126.39C215.999 127.8 216.212 129.203 216.63 130.55C217.517 133.449 219.312 135.987 221.749 137.79C224.187 139.593 227.138 140.566 230.17 140.566C233.202 140.566 236.154 139.593 238.591 137.79C241.028 135.987 242.823 133.449 243.71 130.55C244.128 129.203 244.341 127.8 244.34 126.39C244.337 124.526 243.967 122.68 243.251 120.959C242.535 119.238 241.487 117.674 240.166 116.358C238.846 115.043 237.279 114 235.555 113.29C233.831 112.58 231.984 112.216 230.12 112.22ZM230.12 112.22C226.372 112.238 222.784 113.739 220.138 116.394C217.493 119.049 216.005 122.642 216 126.39C215.999 127.8 216.212 129.203 216.63 130.55C217.517 133.449 219.312 135.987 221.749 137.79C224.187 139.593 227.138 140.566 230.17 140.566C233.202 140.566 236.154 139.593 238.591 137.79C241.028 135.987 242.823 133.449 243.71 130.55C244.128 129.203 244.341 127.8 244.34 126.39C244.337 124.526 243.967 122.68 243.251 120.959C242.535 119.238 241.487 117.674 240.166 116.358C238.846 115.043 237.279 114 235.555 113.29C233.831 112.58 231.984 112.216 230.12 112.22ZM296.91 171.44C296.22 157.725 294.66 144.067 292.24 130.55C291.02 123.81 289.577 117.143 287.91 110.55C277.633 69.6586 257.831 31.7775 230.12 0C202.402 31.7726 182.598 69.6555 172.33 110.55C170.65 117.143 169.203 123.81 167.99 130.55C165.575 144.068 164.015 157.725 163.32 171.44C133.5 194.667 117.99 228.077 116.79 271.67L167.1 250.87C168.247 259.397 169.623 267.997 171.23 276.67H289C290.593 268.003 291.97 259.403 293.13 250.87L343.44 271.67C342.247 228.09 326.737 194.68 296.91 171.44ZM230.12 150.56C224.432 150.561 218.927 148.555 214.572 144.897C210.217 141.239 207.291 136.162 206.31 130.56C206.068 129.187 205.948 127.795 205.95 126.4C205.95 119.99 208.497 113.842 213.029 109.309C217.562 104.776 223.71 102.23 230.12 102.23C236.53 102.23 242.678 104.776 247.211 109.309C251.744 113.842 254.29 119.99 254.29 126.4C254.292 127.795 254.172 129.187 253.93 130.56C252.947 136.161 250.021 141.237 245.666 144.895C241.312 148.553 235.807 150.559 230.12 150.56ZM230.12 112.22C226.372 112.238 222.784 113.739 220.138 116.394C217.493 119.049 216.005 122.642 216 126.39C215.999 127.8 216.212 129.203 216.63 130.55C217.517 133.449 219.312 135.987 221.749 137.79C224.187 139.593 227.138 140.566 230.17 140.566C233.202 140.566 236.154 139.593 238.591 137.79C241.028 135.987 242.823 133.449 243.71 130.55C244.128 129.203 244.341 127.8 244.34 126.39C244.337 124.526 243.967 122.68 243.251 120.959C242.535 119.238 241.487 117.674 240.166 116.358C238.846 115.043 237.279 114 235.555 113.29C233.831 112.58 231.984 112.216 230.12 112.22ZM230.12 112.22C226.372 112.238 222.784 113.739 220.138 116.394C217.493 119.049 216.005 122.642 216 126.39C215.999 127.8 216.212 129.203 216.63 130.55C217.517 133.449 219.312 135.987 221.749 137.79C224.187 139.593 227.138 140.566 230.17 140.566C233.202 140.566 236.154 139.593 238.591 137.79C241.028 135.987 242.823 133.449 243.71 130.55C244.128 129.203 244.341 127.8 244.34 126.39C244.337 124.526 243.967 122.68 243.251 120.959C242.535 119.238 241.487 117.674 240.166 116.358C238.846 115.043 237.279 114 235.555 113.29C233.831 112.58 231.984 112.216 230.12 112.22ZM230.12 112.22C226.372 112.238 222.784 113.739 220.138 116.394C217.493 119.049 216.005 122.642 216 126.39C215.999 127.8 216.212 129.203 216.63 130.55C217.517 133.449 219.312 135.987 221.749 137.79C224.187 139.593 227.138 140.566 230.17 140.566C233.202 140.566 236.154 139.593 238.591 137.79C241.028 135.987 242.823 133.449 243.71 130.55C244.128 129.203 244.341 127.8 244.34 126.39C244.337 124.526 243.967 122.68 243.251 120.959C242.535 119.238 241.487 117.674 240.166 116.358C238.846 115.043 237.279 114 235.555 113.29C233.831 112.58 231.984 112.216 230.12 112.22ZM230.12 112.22C226.372 112.238 222.784 113.739 220.138 116.394C217.493 119.049 216.005 122.642 216 126.39C215.999 127.8 216.212 129.203 216.63 130.55C217.517 133.449 219.312 135.987 221.749 137.79C224.187 139.593 227.138 140.566 230.17 140.566C233.202 140.566 236.154 139.593 238.591 137.79C241.028 135.987 242.823 133.449 243.71 130.55C244.128 129.203 244.341 127.8 244.34 126.39C244.337 124.526 243.967 122.68 243.251 120.959C242.535 119.238 241.487 117.674 240.166 116.358C238.846 115.043 237.279 114 235.555 113.29C233.831 112.58 231.984 112.216 230.12 112.22Z" fill="black"/>
<path d="M230.12 291.18C202.59 291.18 189.53 315.76 193.12 348.02C194.12 357.22 197.59 367.92 201.99 378.52C204.85 385.38 208.1 392.19 211.36 398.52C220.72 416.73 230.12 430.99 230.12 430.99C230.12 430.99 239.52 416.73 248.87 398.52C252.14 392.19 255.39 385.38 258.24 378.52C262.65 367.92 266.09 357.22 267.12 348.02C270.7 315.76 257.64 291.18 230.12 291.18ZM230.12 301.94C239.7 301.94 244.24 310.49 242.99 321.71C241.74 332.93 230.12 350.58 230.12 350.58C230.12 350.58 218.49 332.94 217.24 321.71C215.99 310.48 220.54 301.94 230.12 301.94Z" fill="black"/>
</g>
<defs>
<clipPath id="clip0_381_399">
<rect width="460.23" height="554.47" fill="white"/>
</clipPath>
</defs>
</svg>
