<svg width="602" height="566" viewBox="0 0 602 566" fill="none" xmlns="http://www.w3.org/2000/svg">
<g clip-path="url(#clip0_381_442)">
<path d="M277.59 552.89H233C230.306 552.891 227.639 552.361 225.15 551.331C222.661 550.301 220.399 548.79 218.495 546.885C216.59 544.981 215.079 542.719 214.049 540.23C213.019 537.741 212.489 535.074 212.49 532.38V513.32C212.496 512.136 212.603 510.955 212.81 509.79C197.571 505.028 182.863 498.708 168.92 490.93C168.241 491.865 167.492 492.747 166.68 493.57L153.18 507.07C151.276 508.975 149.016 510.486 146.528 511.517C144.04 512.548 141.373 513.078 138.68 513.078C135.987 513.078 133.32 512.548 130.832 511.517C128.344 510.486 126.084 508.975 124.18 507.07L54.0002 436.94C52.0941 435.037 50.582 432.776 49.5502 430.288C48.5185 427.8 47.9875 425.133 47.9875 422.44C47.9875 419.746 48.5185 417.079 49.5502 414.591C50.582 412.103 52.0941 409.843 54.0002 407.94L72.2602 388.67C72.2602 388.67 60.6502 365.57 56.5602 352.07C54.9834 352.439 53.3696 352.626 51.7502 352.63H32.7202C30.0269 352.631 27.3598 352.101 24.8713 351.071C22.3829 350.041 20.1221 348.53 18.2181 346.625C16.3141 344.72 14.8043 342.458 13.7751 339.969C12.746 337.48 12.2176 334.813 12.2202 332.12V233C12.2189 230.307 12.7482 227.64 13.7778 225.152C14.8075 222.663 16.3173 220.402 18.221 218.498C20.1247 216.593 22.3851 215.082 24.8729 214.051C27.3607 213.02 30.0273 212.49 32.7202 212.49H51.7802C53.4003 212.491 55.0146 212.683 56.5902 213.06C62.2002 194.44 80.3002 164.4 80.3002 164.4L54.0002 141.14C52.0953 139.236 50.5842 136.976 49.5532 134.488C48.5223 132 47.9916 129.333 47.9916 126.64C47.9916 123.947 48.5223 121.28 49.5532 118.792C50.5842 116.304 52.0953 114.044 54.0002 112.14L124.15 41.9998C126.054 40.0949 128.314 38.5838 130.802 37.5528C133.29 36.5218 135.957 35.9911 138.65 35.9911C141.343 35.9911 144.01 36.5218 146.498 37.5528C148.986 38.5838 151.246 40.0949 153.15 41.9998L180.42 68.2698C180.42 68.2698 214.47 52.7798 214.47 51.7698V32.7198C214.469 30.0248 214.999 27.356 216.031 24.8663C217.063 22.3765 218.575 20.1148 220.482 18.2105C222.389 16.3063 224.653 14.7969 227.144 13.7689C229.636 12.7409 232.305 12.2145 235 12.2198H277.62L277.59 552.89Z" stroke="black" stroke-width="24.43" stroke-linecap="round" stroke-linejoin="round"/>
<path d="M277.59 440.59C236.888 438.786 198.45 421.348 170.286 391.909C142.121 362.469 126.401 323.297 126.401 282.555C126.401 241.812 142.121 202.64 170.286 173.201C198.45 143.761 236.888 126.323 277.59 124.52V440.59Z" fill="black"/>
<path d="M188.56 176.09H322.05L399.39 122.44" stroke="black" stroke-width="24.43" stroke-linecap="round" stroke-linejoin="round"/>
<path d="M213.51 227.86H344.19L477.67 134.3H537.87" stroke="black" stroke-width="24.43" stroke-linecap="round" stroke-linejoin="round"/>
<path d="M188.56 389.01H322.05L399.39 442.66" stroke="black" stroke-width="24.43" stroke-linecap="round" stroke-linejoin="round"/>
<path d="M213.51 337.24H344.19L477.67 430.81H537.87" stroke="black" stroke-width="24.43" stroke-linecap="round" stroke-linejoin="round"/>
<path d="M243.59 283.06H443.99" stroke="black" stroke-width="24.43" stroke-linecap="round" stroke-linejoin="round"/>
<path d="M477.67 325.16C500.06 325.16 518.21 307.009 518.21 284.62C518.21 262.23 500.06 244.08 477.67 244.08C455.281 244.08 437.13 262.23 437.13 284.62C437.13 307.009 455.281 325.16 477.67 325.16Z" fill="black"/>
<path d="M560.63 471.35C583.02 471.35 601.17 453.199 601.17 430.81C601.17 408.42 583.02 390.27 560.63 390.27C538.241 390.27 520.09 408.42 520.09 430.81C520.09 453.199 538.241 471.35 560.63 471.35Z" fill="black"/>
<path d="M560.63 174.84C583.02 174.84 601.17 156.689 601.17 134.3C601.17 111.91 583.02 93.7598 560.63 93.7598C538.241 93.7598 520.09 111.91 520.09 134.3C520.09 156.689 538.241 174.84 560.63 174.84Z" fill="black"/>
<path d="M409.68 149.26C432.07 149.26 450.22 131.109 450.22 108.72C450.22 86.3301 432.07 68.1797 409.68 68.1797C387.29 68.1797 369.14 86.3301 369.14 108.72C369.14 131.109 387.29 149.26 409.68 149.26Z" fill="black"/>
<path d="M409.68 496.92C432.07 496.92 450.22 478.769 450.22 456.38C450.22 433.99 432.07 415.84 409.68 415.84C387.29 415.84 369.14 433.99 369.14 456.38C369.14 478.769 387.29 496.92 409.68 496.92Z" fill="black"/>
</g>
<defs>
<clipPath id="clip0_381_442">
<rect width="601.17" height="565.1" fill="white"/>
</clipPath>
</defs>
</svg>
