<svg width="579" height="514" viewBox="0 0 579 514" fill="none" xmlns="http://www.w3.org/2000/svg">
<g clip-path="url(#clip0_381_419)">
<path d="M99.7002 24.42V9.47998" stroke="black" stroke-width="18.97" stroke-linecap="round" stroke-linejoin="round"/>
<path d="M174.99 100.32H189.93" stroke="black" stroke-width="18.97" stroke-linecap="round" stroke-linejoin="round"/>
<path d="M9.47998 100.32H24.42" stroke="black" stroke-width="18.97" stroke-linecap="round" stroke-linejoin="round"/>
<path d="M41.0901 47.82L29.5601 36.29" stroke="black" stroke-width="18.97" stroke-linecap="round" stroke-linejoin="round"/>
<path d="M158.32 47.82L169.85 36.29" stroke="black" stroke-width="18.97" stroke-linecap="round" stroke-linejoin="round"/>
<path d="M41.0901 152.82L29.5601 164.36" stroke="black" stroke-width="18.97" stroke-linecap="round" stroke-linejoin="round"/>
<path d="M158.32 152.82L169.85 164.36" stroke="black" stroke-width="18.97" stroke-linecap="round" stroke-linejoin="round"/>
<path d="M161.25 100.28C161.248 89.0722 158.186 78.0774 152.394 68.482C146.602 58.8866 138.3 51.0548 128.384 45.8316C118.467 40.6084 107.313 38.1921 96.1239 38.8432C84.9348 39.4944 74.136 43.1884 64.8924 49.5267C55.6488 55.865 48.3113 64.607 43.6715 74.8095C39.0318 85.012 37.2659 96.2878 38.5644 107.42C39.8629 118.553 44.1765 129.119 51.0399 137.98C57.9032 146.841 67.0557 153.659 77.5099 157.7V181.3H121.9V157.7C133.487 153.218 143.447 145.334 150.47 135.086C157.493 124.838 161.251 112.704 161.25 100.28Z" fill="black"/>
<path d="M75.3599 195.63L124.05 196.02" stroke="black" stroke-width="18.97" stroke-linecap="round" stroke-linejoin="round"/>
<path d="M75.3599 210.22L124.05 210.61" stroke="black" stroke-width="18.97" stroke-linecap="round" stroke-linejoin="round"/>
<path d="M81.1802 224.98L118.96 225.37" stroke="black" stroke-width="18.97" stroke-linecap="round" stroke-linejoin="round"/>
<path d="M391.65 433.57V406.57C393.04 403.83 395.25 402.65 398.34 402.43C402.75 402.12 407.14 401.37 411.54 400.89C411.977 400.873 412.397 400.714 412.735 400.436C413.072 400.157 413.31 399.776 413.41 399.35C415.41 394.224 417.513 389.134 419.72 384.08C419.955 383.707 420.06 383.266 420.019 382.826C419.977 382.386 419.791 381.973 419.49 381.65C416.44 377.86 413.49 374.03 410.49 370.19C408.29 367.36 408.49 364.61 411 362.06C416.333 356.727 421.667 351.394 427 346.06C429.63 343.45 432.34 343.29 435.26 345.56C439.05 348.51 442.84 351.46 446.58 354.47C446.892 354.779 447.297 354.977 447.732 355.033C448.168 355.089 448.61 355 448.99 354.78C454.11 352.567 459.257 350.437 464.43 348.39C464.828 348.299 465.184 348.077 465.441 347.76C465.699 347.443 465.842 347.049 465.85 346.64C466.37 341.87 467.02 337.12 467.56 332.35C467.98 328.64 470.07 326.69 473.8 326.68H496.2C500.06 326.68 502.14 328.62 502.56 332.42C503.09 337.19 503.75 341.94 504.26 346.71C504.37 347.71 504.86 348.06 505.74 348.41C510.86 350.46 515.96 352.54 521.01 354.73C521.417 354.966 521.889 355.062 522.356 355.002C522.822 354.942 523.256 354.731 523.59 354.4C527.32 351.4 531.11 348.4 534.9 345.49C537.72 343.29 540.5 343.49 543.03 345.98C548.41 351.314 553.78 356.687 559.14 362.1C561.65 364.62 561.78 367.39 559.56 370.23C556.56 374.06 553.56 377.89 550.56 381.68C550.277 381.979 550.102 382.363 550.062 382.772C550.023 383.182 550.12 383.593 550.34 383.94C552.527 389.06 554.657 394.207 556.73 399.38C557.09 400.28 557.42 400.73 558.45 400.84C563.22 401.35 567.98 402.01 572.74 402.54C576.48 402.96 578.45 405.03 578.45 408.74C578.45 416.28 578.45 423.817 578.45 431.35C578.45 435.07 576.45 437.15 572.77 437.57C568.06 438.1 563.37 438.74 558.66 439.25C558.193 439.261 557.742 439.427 557.38 439.722C557.018 440.017 556.764 440.425 556.66 440.88C554.66 445.94 552.573 450.974 550.4 455.98C550.152 456.377 550.044 456.844 550.091 457.31C550.138 457.775 550.338 458.211 550.66 458.55C553.72 462.33 556.71 466.16 559.66 470C561.78 472.73 561.6 475.52 559.15 478C553.817 483.387 548.447 488.764 543.04 494.13C540.5 496.66 537.73 496.83 534.91 494.64C531.07 491.64 527.25 488.64 523.45 485.64C523.158 485.349 522.78 485.162 522.372 485.106C521.964 485.05 521.549 485.129 521.19 485.33C516.02 487.56 510.79 489.64 505.61 491.86C505.295 492.011 505.016 492.229 504.793 492.498C504.57 492.768 504.409 493.082 504.32 493.42C503.68 497.86 503 502.32 502.67 506.79C502.44 509.87 501.3 512.11 498.52 513.46H471.52C468.75 512.1 467.59 509.88 467.36 506.79C467.05 502.38 466.3 498 465.82 493.6C465.806 493.164 465.651 492.744 465.376 492.405C465.102 492.065 464.724 491.825 464.3 491.72C459.173 489.72 454.083 487.62 449.03 485.42C448.627 485.18 448.155 485.082 447.69 485.139C447.225 485.197 446.792 485.409 446.46 485.74C442.73 488.74 438.94 491.74 435.16 494.65C432.31 496.87 429.57 496.72 427.03 494.2C421.657 488.867 416.297 483.49 410.95 478.07C408.45 475.55 408.29 472.75 410.48 469.94C413.42 466.15 416.36 462.36 419.38 458.63C419.708 458.296 419.917 457.863 419.973 457.398C420.029 456.933 419.929 456.463 419.69 456.06C417.52 451.06 415.45 446.06 413.43 440.97C413.03 439.97 412.68 439.41 411.49 439.29C407.08 438.84 402.7 438.07 398.29 437.74C395.24 437.5 393 436.35 391.65 433.57ZM485.06 466.76C494.288 466.756 503.308 464.017 510.98 458.889C518.652 453.761 524.632 446.474 528.165 437.948C531.697 429.423 532.623 420.042 530.826 410.991C529.029 401.939 524.59 393.623 518.069 387.094C511.548 380.564 503.238 376.114 494.188 374.305C485.139 372.497 475.757 373.411 467.227 376.932C458.697 380.454 451.402 386.425 446.264 394.09C441.126 401.756 438.376 410.772 438.36 420C438.373 432.387 443.296 444.264 452.049 453.029C460.802 461.793 472.673 466.731 485.06 466.76Z" fill="black"/>
<path d="M205.72 206.4V324.8L312.68 386.75V262.85L205.72 206.4Z" stroke="black" stroke-width="18.97" stroke-linecap="round" stroke-linejoin="round"/>
<path d="M312.68 262.85L420.49 200.21V322.73L312.68 386.75" stroke="black" stroke-width="18.97" stroke-linecap="round" stroke-linejoin="round"/>
<path d="M205.72 206.4L312.68 141.69L420.49 200.21" stroke="black" stroke-width="18.97" stroke-linecap="round" stroke-linejoin="round"/>
<path d="M253.69 187.13L346.15 239.44L348.21 293.82L385.39 273.17V220.6L288.33 163.72" fill="black"/>
<path d="M205.72 67.3702C245.601 45.6351 291.139 36.5163 336.314 41.2194C381.489 45.9226 424.172 64.2263 458.72 93.7102" stroke="black" stroke-width="18.97" stroke-linecap="round" stroke-linejoin="round"/>
<path d="M379.46 478.44C357.97 485.08 335.603 488.451 313.11 488.44C189.29 488.44 88.9102 388.06 88.9102 264.24" stroke="black" stroke-width="18.97" stroke-linecap="round" stroke-linejoin="round"/>
<path d="M537.3 264.22C537.328 283.498 534.874 302.699 530 321.35" stroke="black" stroke-width="18.97" stroke-linecap="round" stroke-linejoin="round"/>
<path d="M478.93 59.16L421.77 116.32C421.145 116.945 420.702 117.729 420.49 118.588C420.278 119.446 420.305 120.346 420.567 121.19C420.83 122.035 421.318 122.791 421.98 123.378C422.641 123.965 423.45 124.36 424.32 124.52L493.6 137.3C494.369 137.442 495.161 137.396 495.909 137.166C496.656 136.936 497.337 136.529 497.893 135.979C498.449 135.428 498.863 134.752 499.102 134.007C499.34 133.262 499.394 132.471 499.26 131.7L487.14 61.76C486.988 60.8844 486.599 60.0672 486.014 59.3978C485.43 58.7284 484.673 58.2324 483.825 57.9641C482.978 57.6958 482.073 57.6654 481.21 57.8763C480.347 58.0872 479.558 58.5313 478.93 59.16Z" fill="black"/>
</g>
<defs>
<clipPath id="clip0_381_419">
<rect width="578.44" height="513.45" fill="white"/>
</clipPath>
</defs>
</svg>
