<svg width="577" height="429" viewBox="0 0 577 429" fill="none" xmlns="http://www.w3.org/2000/svg">
<g clip-path="url(#clip0_381_409)">
<path d="M239.61 105.86H11.28C8.28917 105.863 5.4216 107.052 3.30676 109.167C1.19192 111.281 0.00264792 114.149 0 117.14L0 416.82C0 418.301 0.291766 419.768 0.858639 421.137C1.42551 422.505 2.25639 423.749 3.30384 424.796C4.35128 425.843 5.59478 426.674 6.96333 427.241C8.33188 427.808 9.79869 428.1 11.28 428.1H239.61C241.092 428.101 242.559 427.81 243.928 427.244C245.297 426.677 246.541 425.847 247.589 424.799C248.637 423.751 249.468 422.507 250.034 421.138C250.6 419.769 250.891 418.302 250.89 416.82V117.14C250.89 114.148 249.702 111.279 247.586 109.164C245.471 107.048 242.602 105.86 239.61 105.86ZM214.74 209.86C214.74 212.852 213.552 215.721 211.436 217.836C209.321 219.951 206.452 221.14 203.46 221.14H47.46C44.4684 221.14 41.5992 219.951 39.4838 217.836C37.3684 215.721 36.18 212.852 36.18 209.86V155.77C36.1787 154.288 36.4696 152.821 37.036 151.452C37.6024 150.082 38.4332 148.838 39.4809 147.791C40.5286 146.743 41.7726 145.912 43.1418 145.346C44.5109 144.779 45.9783 144.489 47.46 144.49H203.46C204.942 144.489 206.409 144.779 207.778 145.346C209.147 145.912 210.391 146.743 211.439 147.791C212.487 148.838 213.318 150.082 213.884 151.452C214.45 152.821 214.741 154.288 214.74 155.77V209.86Z" fill="black"/>
<path d="M537.87 180.08V41.08C537.865 32.8352 534.586 24.93 528.754 19.1019C522.922 13.2739 515.015 10 506.77 10H156.55C148.299 10 140.386 13.2777 134.552 19.1119C128.718 24.9462 125.44 32.8591 125.44 41.11V105.86" stroke="black" stroke-width="20" stroke-linecap="round" stroke-linejoin="round"/>
<path d="M125.44 243.78V330.27C125.44 334.355 126.245 338.4 127.808 342.174C129.372 345.947 131.663 349.376 134.552 352.264C137.441 355.152 140.871 357.443 144.645 359.005C148.42 360.568 152.465 361.371 156.55 361.37H506.77C510.854 361.371 514.899 360.568 518.673 359.005C522.447 357.443 525.876 355.152 528.764 352.264C531.652 349.376 533.943 345.947 535.505 342.173C537.068 338.399 537.871 334.354 537.87 330.27V294.14" stroke="black" stroke-width="20" stroke-linecap="round" stroke-linejoin="round"/>
<path d="M537.88 180.08V45.8101H537.87H198.03V105.86" stroke="black" stroke-width="20" stroke-linecap="round" stroke-linejoin="round"/>
<path d="M198 249V360.31H506.15C514.491 360.308 522.496 357.022 528.433 351.162C534.369 345.302 537.76 337.341 537.87 329C537.87 328.87 537.87 328.73 537.87 328.6V297.43" stroke="black" stroke-width="20" stroke-linecap="round" stroke-linejoin="round"/>
<path d="M469.5 180.08H566.85V294.08H469.5C454.383 294.08 439.884 288.075 429.195 277.385C418.505 266.696 412.5 252.197 412.5 237.08C412.5 221.963 418.505 207.465 429.195 196.775C439.884 186.085 454.383 180.08 469.5 180.08Z" stroke="black" stroke-width="20" stroke-linecap="round" stroke-linejoin="round"/>
<path d="M472.38 253.07C481.603 253.07 489.08 245.593 489.08 236.37C489.08 227.147 481.603 219.67 472.38 219.67C463.157 219.67 455.68 227.147 455.68 236.37C455.68 245.593 463.157 253.07 472.38 253.07Z" fill="black"/>
</g>
<defs>
<clipPath id="clip0_381_409">
<rect width="576.84" height="428.1" fill="white"/>
</clipPath>
</defs>
</svg>
