<svg width="460" height="580" viewBox="0 0 460 580" fill="none" xmlns="http://www.w3.org/2000/svg">
<g clip-path="url(#clip0_381_472)">
<path d="M230.67 10L278.57 49.03L341.57 42.08L364.37 98.5L420.02 121.31L413.45 183.91L449.39 231.45" stroke="black" stroke-width="20" stroke-linecap="round" stroke-linejoin="round"/>
<path d="M228.72 10L180.82 49.03L117.83 42.08L95.03 98.5L39.37 121.31L45.94 183.91L10 231.45" stroke="black" stroke-width="20" stroke-linecap="round" stroke-linejoin="round"/>
<path d="M228.72 452.9L180.82 413.87L117.83 420.82L95.03 364.4L39.37 341.6L45.94 278.99L10 231.45" stroke="black" stroke-width="20" stroke-linecap="round" stroke-linejoin="round"/>
<path d="M230.67 452.9L278.57 413.87L341.57 420.82L364.37 364.4L420.02 341.6L413.45 278.99L449.39 231.45" stroke="black" stroke-width="20" stroke-linecap="round" stroke-linejoin="round"/>
<path d="M245.31 459.8L203 571.23C202.216 573.303 200.884 575.123 199.146 576.498C197.407 577.872 195.328 578.748 193.131 579.033C190.933 579.317 188.7 578.999 186.669 578.113C184.638 577.226 182.886 575.805 181.6 574L145.78 523.42L81.4601 536.8C79.3121 537.247 77.0835 537.108 75.0074 536.399C72.9313 535.689 71.0841 534.435 69.6591 532.766C68.2341 531.098 67.2838 529.078 66.9075 526.916C66.5312 524.755 66.7428 522.532 67.5201 520.48L110.04 408.48L117.76 416.4C117.76 416.4 168.63 411.77 170.17 411.77C171.71 411.77 219.64 454 219.64 454" fill="black"/>
<path d="M214.09 459.8L256.38 571.23C257.163 573.305 258.495 575.128 260.234 576.504C261.973 577.88 264.054 578.757 266.253 579.042C268.453 579.326 270.688 579.008 272.72 578.119C274.752 577.231 276.505 575.807 277.79 574L313.61 523.42L377.94 536.84C380.087 537.285 382.314 537.145 384.389 536.434C386.464 535.724 388.309 534.469 389.733 532.801C391.156 531.133 392.106 529.113 392.482 526.953C392.858 524.793 392.646 522.571 391.87 520.52L349.35 408.52L341.63 416.44C341.63 416.44 290.77 411.81 289.22 411.81C287.67 411.81 239.75 454 239.75 454" fill="black"/>
<path d="M238.46 119.31L271.21 185.68L344.46 196.32C346.267 196.581 347.965 197.342 349.361 198.519C350.757 199.695 351.795 201.239 352.358 202.976C352.922 204.712 352.987 206.572 352.547 208.343C352.107 210.115 351.18 211.728 349.87 213L296.87 264.66L309.38 337.6C309.688 339.396 309.487 341.242 308.8 342.93C308.114 344.618 306.969 346.08 305.495 347.152C304.021 348.223 302.277 348.861 300.459 348.993C298.642 349.125 296.824 348.747 295.21 347.9L229.7 313.45L164.19 347.89C162.576 348.742 160.756 349.125 158.935 348.996C157.114 348.866 155.366 348.229 153.889 347.157C152.412 346.085 151.264 344.62 150.577 342.929C149.89 341.238 149.69 339.389 150 337.59L162.51 264.65L109.51 212.99C108.203 211.717 107.278 210.104 106.841 208.333C106.403 206.562 106.47 204.704 107.034 202.969C107.599 201.234 108.637 199.692 110.033 198.517C111.428 197.341 113.125 196.581 114.93 196.32L188.17 185.68L220.92 119.31C221.728 117.674 222.977 116.296 224.527 115.332C226.077 114.369 227.865 113.858 229.69 113.858C231.515 113.858 233.304 114.369 234.853 115.332C236.403 116.296 237.653 117.674 238.46 119.31Z" fill="black"/>
</g>
<defs>
<clipPath id="clip0_381_472">
<rect width="459.39" height="579.12" fill="white"/>
</clipPath>
</defs>
</svg>
