<svg width="505" height="583" viewBox="0 0 505 583" fill="none" xmlns="http://www.w3.org/2000/svg">
<g clip-path="url(#clip0_381_120)">
<path d="M493.75 334.93V374.77C493.751 377.175 493.279 379.557 492.359 381.779C491.439 384.001 490.09 386.02 488.39 387.72C486.689 389.421 484.67 390.769 482.448 391.689C480.226 392.609 477.845 393.081 475.44 393.08H458.44C457.384 393.078 456.33 392.984 455.29 392.8C451.03 406.412 445.377 419.549 438.42 432C439.259 432.602 440.048 433.271 440.78 434L452.84 446.05C456.273 449.485 458.202 454.143 458.202 459C458.202 463.857 456.273 468.515 452.84 471.95L390.21 534.57C388.511 536.272 386.493 537.622 384.272 538.544C382.051 539.465 379.67 539.939 377.265 539.939C374.86 539.939 372.479 539.465 370.258 538.544C368.037 537.622 366.019 536.272 364.32 534.57L347.11 518.27C347.11 518.27 326.48 528.64 314.42 532.27C314.749 533.677 314.916 535.116 314.92 536.56V553.56C314.921 555.965 314.449 558.347 313.529 560.569C312.609 562.791 311.26 564.81 309.56 566.51C307.859 568.211 305.84 569.559 303.618 570.479C301.396 571.399 299.015 571.871 296.61 571.87H208.05C205.645 571.871 203.263 571.399 201.041 570.479C198.819 569.559 196.8 568.211 195.1 566.51C193.399 564.81 192.051 562.791 191.131 560.569C190.211 558.347 189.739 555.965 189.74 553.56V536.56C189.744 535.116 189.911 533.677 190.24 532.27C173.65 527.27 146.82 511.09 146.82 511.09L126 534.57C124.301 536.272 122.283 537.622 120.062 538.544C117.841 539.465 115.46 539.939 113.055 539.939C110.65 539.939 108.269 539.465 106.048 538.544C103.827 537.622 101.809 536.272 100.11 534.57L37.5199 472C34.0868 468.565 32.1583 463.907 32.1583 459.05C32.1583 454.193 34.0868 449.536 37.5199 446.1L60.9999 421.7C60.9999 421.7 47.1599 391.29 46.2699 391.29H29.2699C26.8625 391.298 24.4772 390.831 22.2507 389.915C20.0242 389 18.0001 387.654 16.2946 385.955C14.5891 384.256 13.2355 382.237 12.3115 380.014C11.3875 377.791 10.9112 375.408 10.9099 373V334.93H493.75Z" stroke="black" stroke-width="21.82" stroke-linecap="round" stroke-linejoin="round"/>
<path d="M393.47 334.93C391.879 371.294 376.314 405.64 350.021 430.808C323.727 455.977 288.733 470.026 252.335 470.026C215.937 470.026 180.943 455.977 154.649 430.808C128.356 405.64 112.791 371.294 111.2 334.93H393.47Z" fill="black"/>
<path d="M104.76 161.22C137.163 161.22 163.43 134.952 163.43 102.55C163.43 70.1473 137.163 43.8799 104.76 43.8799C72.3575 43.8799 46.0901 70.1473 46.0901 102.55C46.0901 134.952 72.3575 161.22 104.76 161.22Z" fill="black"/>
<path d="M165.28 189.31C138.896 209.56 120.381 238.36 112.91 270.77H3.28003C3.27979 251.963 8.50593 233.526 18.3752 217.516C28.2444 201.506 42.3685 188.554 59.171 180.105C75.9735 171.656 94.7933 168.043 113.53 169.668C132.267 171.294 150.183 178.094 165.28 189.31Z" fill="black"/>
<path d="M206.24 270.77H124.14C131.595 240.99 149.176 214.729 173.87 196.49C184.095 205.971 192.249 217.464 197.82 230.247C203.39 243.03 206.257 256.826 206.24 270.77Z" fill="black"/>
<path d="M399.9 161.22C432.303 161.22 458.57 134.952 458.57 102.55C458.57 70.1473 432.303 43.8799 399.9 43.8799C367.497 43.8799 341.23 70.1473 341.23 102.55C341.23 134.952 367.497 161.22 399.9 161.22Z" fill="black"/>
<path d="M380.54 270.77H298.43C298.414 256.828 301.28 243.034 306.846 230.251C312.413 217.469 320.562 205.975 330.78 196.49C355.482 214.727 373.073 240.987 380.54 270.77Z" fill="black"/>
<path d="M501.37 270.77H391.74C384.286 238.356 365.772 209.552 339.38 189.31C354.476 178.09 372.393 171.287 391.131 169.659C409.869 168.032 428.691 171.645 445.495 180.095C462.299 188.544 476.423 201.498 486.292 217.51C496.16 233.522 501.384 251.961 501.38 270.77H501.37Z" fill="black"/>
<path d="M384.33 297.24H120.33C120.69 288.31 121.967 279.44 124.14 270.77C131.291 242.182 147.792 216.805 171.02 198.672C194.249 180.538 222.872 170.688 252.34 170.688C281.808 170.688 310.431 180.538 333.66 198.672C356.888 216.805 373.389 242.182 380.54 270.77C382.707 279.44 383.977 288.31 384.33 297.24Z" fill="black"/>
<path d="M331.86 79.52C331.862 95.25 327.199 110.627 318.462 123.707C309.724 136.787 297.304 146.982 282.772 153.003C268.24 159.024 252.249 160.601 236.821 157.533C221.393 154.466 207.221 146.892 196.097 135.77C184.974 124.648 177.398 110.477 174.329 95.0492C171.259 79.6216 172.834 63.6303 178.853 49.0975C184.872 34.5647 195.066 22.1432 208.145 13.4039C221.223 4.66461 236.6 1.24347e-07 252.33 0C273.421 -1.66726e-07 293.648 8.37766 308.563 23.2903C323.477 38.2029 331.857 58.4291 331.86 79.52Z" fill="black"/>
</g>
<defs>
<clipPath id="clip0_381_120">
<rect width="504.66" height="582.82" fill="white"/>
</clipPath>
</defs>
</svg>
