<svg width="572" height="535" viewBox="0 0 572 535" fill="none" xmlns="http://www.w3.org/2000/svg">
<g clip-path="url(#clip0_381_482)">
<path d="M105 395.57C101.81 395.25 98.57 395.08 95.3 395.08C91.3217 395.078 87.3473 395.326 83.4 395.82C94.2898 424.206 111.052 449.972 132.59 471.43C137.888 476.727 143.451 481.75 149.26 486.48H184C148.855 465.127 121.241 433.35 105 395.57ZM476 395.08C472.767 395.081 469.536 395.245 466.32 395.57C450.055 433.363 422.408 465.141 387.23 486.48H422.06C427.868 481.75 433.432 476.727 438.73 471.43C460.268 449.972 477.03 424.206 487.92 395.82C483.966 395.325 479.985 395.078 476 395.08ZM438.75 165.22C409.461 135.774 372.269 115.445 331.67 106.69C325.939 112.052 319.312 116.367 312.09 119.44C319.719 121.404 327.099 124.229 334.09 127.86C366.291 136.128 395.882 152.397 420.116 175.157C444.349 197.917 462.441 226.43 472.71 258.05C473.8 258 474.91 257.97 476.02 257.97C482.235 257.966 488.421 258.824 494.4 260.52C484.444 224.458 465.264 191.613 438.75 165.22ZM497.22 272C490.471 269.334 483.276 267.977 476.02 268H475.62C485.608 305.772 484.128 345.662 471.37 382.59C472.91 382.72 474.46 382.78 476.02 382.78C481.867 382.787 487.681 381.9 493.26 380.15C503.603 345.01 504.978 307.839 497.26 272.03L497.22 272ZM370.36 496.48V495.61C343.901 508.269 314.942 514.84 285.61 514.84C256.278 514.84 227.319 508.269 200.86 495.61V496.48H162.49C198.701 521.462 241.653 534.841 285.645 534.841C329.637 534.841 372.589 521.462 408.8 496.48H370.36ZM285.65 101.81C274.603 101.806 263.572 102.635 252.65 104.29C262.328 111.113 273.879 114.776 285.72 114.776C297.561 114.776 309.112 111.113 318.79 104.29C307.822 102.629 296.743 101.8 285.65 101.81ZM89.13 318.33C89.1204 301.687 91.2307 285.11 95.41 269H95.25C87.9103 268.992 80.6378 270.397 73.83 273.14C66.2858 308.993 67.8432 346.164 78.36 381.26C83.8313 382.945 89.525 383.798 95.25 383.79C96.94 383.79 98.6 383.72 100.25 383.57C92.8666 362.612 89.1062 340.55 89.13 318.33ZM239.84 106.64C201.062 115.074 165.34 133.98 136.559 161.301C107.777 188.623 87.0391 223.314 76.6 261.6C82.6637 259.862 88.9421 258.987 95.25 259C96.25 259 97.25 259 98.25 259.07C108.429 227.127 126.579 198.304 150.989 175.322C175.399 152.34 205.262 135.958 237.76 127.72C244.661 124.15 251.944 121.372 259.47 119.44C252.229 116.354 245.585 112.021 239.84 106.64Z" fill="black"/>
<path d="M286.3 386.19C285.78 386.26 285.3 386.34 284.75 386.44C285.34 386.61 285.94 386.76 286.54 386.91L286.3 386.19Z" fill="white"/>
<path d="M286.54 386.91C285.94 386.76 285.34 386.61 284.75 386.44C285.26 386.34 285.75 386.26 286.3 386.19L286.54 386.91Z" fill="black"/>
<path d="M286.3 386.19C285.78 386.26 285.3 386.34 284.75 386.44C285.34 386.61 285.94 386.76 286.54 386.91L286.3 386.19Z" fill="white"/>
<path d="M190.52 486.48H0C0.521641 473.881 3.54358 461.511 8.89 450.09C15.6403 435.703 25.864 423.222 38.64 413.77C39.41 413.19 40.2 412.63 40.99 412.08C56.9126 400.998 75.8504 395.065 95.25 395.08C98.52 395.08 101.76 395.25 104.95 395.57C120.969 397.195 136.309 402.877 149.52 412.08C150.32 412.63 151.1 413.2 151.87 413.77C164.652 423.221 174.882 435.702 181.64 450.09C186.989 461.509 190.008 473.88 190.52 486.48Z" fill="black"/>
<path d="M152.65 326.36C152.654 340.719 147.274 354.557 137.573 365.143C127.872 375.729 114.555 382.294 100.25 383.54C98.5999 383.69 96.9399 383.76 95.2499 383.76C87.6489 383.86 80.1037 382.45 73.0523 379.61C66.0009 376.771 59.5836 372.559 54.1731 367.22C48.7626 361.88 44.4666 355.519 41.5344 348.506C38.6022 341.492 37.0923 333.966 37.0923 326.365C37.0923 318.763 38.6022 311.237 41.5344 304.224C44.4666 297.211 48.7626 290.85 54.1731 285.51C59.5836 280.17 66.0009 275.959 73.0523 273.119C80.1037 270.28 87.6489 268.87 95.2499 268.97H95.4099C110.605 269.01 125.164 275.074 135.894 285.832C146.624 296.59 152.65 311.165 152.65 326.36Z" fill="black"/>
<path d="M571.29 486.48H380.77C381.282 473.881 384.301 461.509 389.65 450.09C396.407 435.705 406.634 423.224 419.41 413.77C420.18 413.19 420.97 412.63 421.76 412.08C434.972 402.871 450.317 397.188 466.34 395.57C469.556 395.245 472.787 395.081 476.02 395.08C495.423 395.061 514.365 400.994 530.29 412.08C531.09 412.63 531.87 413.2 532.64 413.77C545.422 423.218 555.649 435.7 562.4 450.09C565.011 455.638 567.071 461.429 568.55 467.38C570.111 473.637 571.029 480.037 571.29 486.48Z" fill="black"/>
<path d="M533.42 325.36C533.43 332.901 531.953 340.37 529.072 347.339C526.191 354.307 521.963 360.639 516.631 365.971C511.299 371.304 504.967 375.531 497.998 378.412C491.03 381.293 483.561 382.771 476.02 382.76C474.46 382.76 472.91 382.7 471.37 382.57C456.677 381.32 443.029 374.462 433.257 363.419C423.485 352.376 418.339 337.995 418.886 323.259C419.432 308.524 425.63 294.564 436.193 284.275C446.757 273.986 460.875 268.158 475.62 268H476.02C483.559 267.992 491.026 269.471 497.993 272.352C504.96 275.234 511.29 279.46 516.622 284.791C521.953 290.122 526.181 296.451 529.064 303.418C531.946 310.384 533.426 317.851 533.42 325.39V325.36Z" fill="black"/>
<path d="M380.91 217.51H190.38C190.9 204.907 193.922 192.534 199.27 181.11C206.015 166.728 216.232 154.25 229 144.8C229.77 144.22 230.56 143.66 231.36 143.11C247.291 132.042 266.226 126.11 285.625 126.11C305.024 126.11 323.958 132.042 339.89 143.11C340.68 143.66 341.46 144.23 342.24 144.8C355.016 154.25 365.242 166.728 372 181.11C377.348 192.534 380.37 204.907 380.89 217.51H380.91Z" fill="black"/>
<path d="M343 57.39C343.002 68.7448 339.636 79.8451 333.329 89.2866C327.021 98.7282 318.055 106.087 307.564 110.432C297.073 114.776 285.53 115.912 274.393 113.695C263.257 111.478 253.029 106.008 245.002 97.9773C236.975 89.9462 231.51 79.7148 229.299 68.5773C227.088 57.4399 228.23 45.8969 232.58 35.4086C236.93 24.9202 244.294 15.9577 253.739 9.65491C263.183 3.35209 274.285 -0.0078907 285.64 2.1862e-05C293.177 -0.00656113 300.641 1.4736 307.606 4.35576C314.57 7.23791 320.897 11.4654 326.225 16.7963C331.553 22.1272 335.777 28.4566 338.656 35.4223C341.534 42.388 343.011 49.853 343 57.39Z" fill="black"/>
<path d="M285.65 252.4V234.77" stroke="black" stroke-width="20" stroke-linecap="round" stroke-linejoin="round"/>
<path d="M374.54 342.02H392.18" stroke="black" stroke-width="20" stroke-linecap="round" stroke-linejoin="round"/>
<path d="M179.11 342.02H196.75" stroke="black" stroke-width="20" stroke-linecap="round" stroke-linejoin="round"/>
<path d="M216.44 280.03L202.82 266.41" stroke="black" stroke-width="20" stroke-linecap="round" stroke-linejoin="round"/>
<path d="M354.85 280.03L368.47 266.41" stroke="black" stroke-width="20" stroke-linecap="round" stroke-linejoin="round"/>
<path d="M216.44 404.02L202.82 417.63" stroke="black" stroke-width="20" stroke-linecap="round" stroke-linejoin="round"/>
<path d="M354.85 404.02L368.47 417.63" stroke="black" stroke-width="20" stroke-linecap="round" stroke-linejoin="round"/>
<path d="M346.74 344.42C346.738 333.294 343.699 322.38 337.949 312.855C332.199 303.33 323.958 295.555 314.114 290.37C304.271 285.185 293.198 282.786 282.091 283.433C270.984 284.079 260.264 287.746 251.088 294.038C241.912 300.329 234.628 309.007 230.022 319.135C225.416 329.263 223.663 340.456 224.951 351.507C226.24 362.558 230.522 373.047 237.335 381.843C244.147 390.639 253.233 397.408 263.61 401.42V424.85H307.68V401.42C319.182 396.97 329.068 389.144 336.04 378.971C343.011 368.797 346.741 356.753 346.74 344.42Z" stroke="black" stroke-width="20" stroke-linecap="round" stroke-linejoin="round"/>
<path d="M256.9 447.27L314.39 447.73" stroke="black" stroke-width="20" stroke-linecap="round" stroke-linejoin="round"/>
<path d="M256.9 470.33L314.39 470.79" stroke="black" stroke-width="20" stroke-linecap="round" stroke-linejoin="round"/>
<path d="M263.78 493.38L308.39 493.84" stroke="black" stroke-width="20" stroke-linecap="round" stroke-linejoin="round"/>
</g>
<defs>
<clipPath id="clip0_381_482">
<rect width="571.29" height="534.84" fill="white"/>
</clipPath>
</defs>
</svg>
