<svg width="499" height="567" viewBox="0 0 499 567" fill="none" xmlns="http://www.w3.org/2000/svg">
<g clip-path="url(#clip0_381_506)">
<path d="M235.51 57.54C194.04 42.514 148.315 44.4638 108.274 62.9654C68.2334 81.467 37.1137 115.025 21.6793 156.345C6.24494 197.665 7.74346 243.407 25.8492 283.628C43.9549 323.849 77.2042 355.299 118.37 371.14V435.32H239.07V371.14C277.964 356.049 309.847 327.021 328.51 289.71" stroke="black" stroke-width="22.72" stroke-linecap="round" stroke-linejoin="round"/>
<path d="M112.51 474.27L244.93 475.33" stroke="black" stroke-width="22.72" stroke-linecap="round" stroke-linejoin="round"/>
<path d="M112.51 513.95L244.93 515.01" stroke="black" stroke-width="22.72" stroke-linecap="round" stroke-linejoin="round"/>
<path d="M128.36 554.09L231.09 555.15" stroke="black" stroke-width="22.72" stroke-linecap="round" stroke-linejoin="round"/>
<path d="M498.42 196.08H437.11C438.353 199.17 438.994 202.469 439 205.8C439.069 209.328 438.433 212.834 437.13 216.114C435.827 219.393 433.884 222.38 431.413 224.899C428.942 227.418 425.994 229.419 422.74 230.785C419.487 232.151 415.994 232.855 412.465 232.855C408.936 232.855 405.443 232.151 402.19 230.785C398.936 229.419 395.988 227.418 393.517 224.899C391.046 222.38 389.103 219.393 387.8 216.114C386.497 212.834 385.862 209.328 385.93 205.8C385.92 202.473 386.545 199.174 387.77 196.08H316.26V123.87C312.64 127.374 308.069 129.734 303.117 130.656C298.165 131.579 293.05 131.022 288.412 129.057C283.774 127.091 279.817 123.803 277.035 119.604C274.254 115.404 272.77 110.478 272.77 105.44C272.77 100.402 274.254 95.4764 277.035 91.2765C279.817 87.0766 283.774 83.7887 288.412 81.8231C293.05 79.8575 298.165 79.3013 303.117 80.2237C308.069 81.1461 312.64 83.5063 316.26 87.01V0C418.5 0 505.19 83.88 498.42 196.08Z" fill="black"/>
<path d="M235.51 57.54H235.32V144.54C231.7 141.028 227.125 138.66 222.167 137.733C217.209 136.805 212.088 137.359 207.443 139.324C202.798 141.29 198.835 144.58 196.049 148.785C193.262 152.989 191.776 157.921 191.776 162.965C191.776 168.009 193.262 172.941 196.049 177.145C198.835 181.35 202.798 184.64 207.443 186.606C212.088 188.571 217.209 189.125 222.167 188.197C227.125 187.27 231.7 184.902 235.32 181.39V253.6H306.78C305.291 257.391 304.694 261.474 305.035 265.532C305.376 269.591 306.646 273.517 308.746 277.007C310.847 280.496 313.722 283.456 317.149 285.657C320.576 287.858 324.463 289.241 328.51 289.7" stroke="black" stroke-width="22.72" stroke-linecap="round" stroke-linejoin="round"/>
<path d="M301.26 300.15C284.545 300.15 268.206 305.107 254.308 314.393C240.41 323.68 229.578 336.879 223.182 352.322C216.786 367.764 215.113 384.757 218.375 401.151C221.636 417.544 229.686 432.603 241.506 444.421C253.326 456.24 268.385 464.288 284.779 467.547C301.173 470.807 318.166 469.132 333.608 462.734C349.05 456.336 362.247 445.503 371.532 431.604C380.817 417.705 385.772 401.365 385.77 384.65C385.77 373.552 383.584 362.564 379.337 352.311C375.09 342.058 368.865 332.743 361.017 324.896C353.169 317.049 343.853 310.825 333.6 306.579C323.347 302.333 312.358 300.149 301.26 300.15ZM358.68 363.37L298.92 432.37C297.902 433.553 296.649 434.513 295.241 435.188C293.833 435.862 292.3 436.238 290.74 436.29H290.33C287.329 436.276 284.454 435.08 282.33 432.96L256.52 407.13C255.42 406.086 254.54 404.832 253.932 403.442C253.325 402.052 253.001 400.555 252.981 399.039C252.962 397.522 253.246 396.017 253.817 394.612C254.388 393.207 255.235 391.93 256.308 390.858C257.38 389.785 258.657 388.938 260.062 388.367C261.467 387.796 262.972 387.512 264.489 387.531C266.005 387.551 267.503 387.874 268.892 388.482C270.282 389.09 271.536 389.97 272.58 391.07L289.76 408.26L341.53 348.45C343.521 346.244 346.297 344.905 349.263 344.722C352.229 344.538 355.148 345.524 357.396 347.468C359.644 349.412 361.04 352.159 361.286 355.121C361.531 358.082 360.607 361.022 358.71 363.31L358.68 363.37Z" fill="black"/>
</g>
<defs>
<clipPath id="clip0_381_506">
<rect width="498.79" height="566.51" fill="white"/>
</clipPath>
</defs>
</svg>
