<svg width="433" height="581" viewBox="0 0 433 581" fill="none" xmlns="http://www.w3.org/2000/svg">
<g clip-path="url(#clip0_381_133)">
<path d="M128.16 388.76H88.4701C81.9145 388.76 76.6001 394.075 76.6001 400.63V516.76C76.6001 523.316 81.9145 528.63 88.4701 528.63H128.16C134.716 528.63 140.03 523.316 140.03 516.76V400.63C140.03 394.075 134.716 388.76 128.16 388.76Z" fill="black"/>
<path d="M198.21 347.98H161.76C154.31 347.98 148.27 354.02 148.27 361.47V515.14C148.27 522.59 154.31 528.63 161.76 528.63H198.21C205.66 528.63 211.7 522.59 211.7 515.14V361.47C211.7 354.02 205.66 347.98 198.21 347.98Z" fill="black"/>
<path d="M268.26 301.76H235.05C226.705 301.76 219.94 308.525 219.94 316.87V513.52C219.94 521.865 226.705 528.63 235.05 528.63H268.26C276.605 528.63 283.37 521.865 283.37 513.52V316.87C283.37 308.525 276.605 301.76 268.26 301.76Z" fill="black"/>
<path d="M388.17 275L327.83 204.6C327.459 204.138 326.991 203.764 326.458 203.505C325.925 203.247 325.341 203.109 324.749 203.104C324.157 203.098 323.571 203.224 323.033 203.472C322.495 203.721 322.02 204.085 321.64 204.54L258.92 274.93C256.18 278 258.12 283.24 261.98 283.24H291.8V511.59C291.8 516.099 293.591 520.423 296.779 523.611C299.967 526.799 304.291 528.59 308.8 528.59H338.14C340.377 528.596 342.593 528.162 344.661 527.31C346.729 526.459 348.609 525.208 350.193 523.628C351.777 522.049 353.034 520.173 353.891 518.107C354.749 516.041 355.19 513.827 355.19 511.59V283.2H385.01C388.87 283.2 390.82 278.05 388.17 275Z" fill="black"/>
<path d="M421.84 10.5601H10.5601V570.22H421.84V10.5601Z" stroke="black" stroke-width="21.12" stroke-linecap="round" stroke-linejoin="round"/>
<path d="M175.546 264.747L118.847 226.488C113.353 222.781 105.894 224.229 102.187 229.723C98.4804 235.217 99.9289 242.676 105.423 246.382L162.122 284.641C167.616 288.348 175.074 286.9 178.781 281.406C182.488 275.912 181.04 268.454 175.546 264.747Z" fill="black"/>
<path d="M190.802 218.494L167.211 181.293C164.147 176.461 157.746 175.028 152.914 178.092L150.144 179.849C145.312 182.913 143.879 189.314 146.943 194.146L170.533 231.347C173.597 236.179 179.999 237.612 184.831 234.548L187.601 232.791C192.433 229.727 193.866 223.326 190.802 218.494Z" fill="black"/>
<path d="M93.838 213.686L140.886 188.617C146.209 185.781 148.224 179.168 145.388 173.845L144.373 171.939C141.537 166.616 134.923 164.601 129.6 167.437L82.5522 192.505C77.2297 195.341 75.214 201.955 78.05 207.278L79.0657 209.184C81.9017 214.506 88.5155 216.522 93.838 213.686Z" fill="black"/>
<path d="M105.88 336.562L131.535 282.921C134.237 277.271 131.847 270.5 126.197 267.798L125.006 267.228C119.356 264.526 112.585 266.916 109.883 272.566L84.2289 326.207C81.5268 331.857 83.9164 338.627 89.5664 341.329L90.7573 341.899C96.4072 344.601 103.178 342.211 105.88 336.562Z" fill="black"/>
<path d="M191.123 324.515L181.004 272.409C179.866 266.548 174.193 262.72 168.332 263.858L165.995 264.311C160.135 265.45 156.306 271.123 157.445 276.984L167.564 329.09C168.702 334.951 174.375 338.78 180.236 337.641L182.572 337.188C188.433 336.05 192.262 330.376 191.123 324.515Z" fill="black"/>
<path d="M161.426 176.417L140.185 167.062C134.792 164.687 128.494 167.133 126.119 172.526L100.484 230.731C98.109 236.124 100.555 242.421 105.948 244.797L127.189 254.152C132.582 256.527 138.88 254.081 141.255 248.688L166.89 190.483C169.265 185.09 166.819 178.792 161.426 176.417Z" fill="black"/>
<path d="M160.45 166.15C171.07 166.15 179.68 157.54 179.68 146.92C179.68 136.3 171.07 127.69 160.45 127.69C149.83 127.69 141.22 136.3 141.22 146.92C141.22 157.54 149.83 166.15 160.45 166.15Z" fill="black"/>
<path d="M66.53 57.4102H367.18" stroke="black" stroke-width="21.12" stroke-linecap="round" stroke-linejoin="round"/>
<path d="M238.08 111.78H367.18" stroke="black" stroke-width="21.12" stroke-linecap="round" stroke-linejoin="round"/>
<path d="M238.08 166.15H367.18" stroke="black" stroke-width="21.12" stroke-linecap="round" stroke-linejoin="round"/>
</g>
<defs>
<clipPath id="clip0_381_133">
<rect width="432.4" height="580.78" fill="white"/>
</clipPath>
</defs>
</svg>
