<svg width="506" height="569" viewBox="0 0 506 569" fill="none" xmlns="http://www.w3.org/2000/svg">
<g clip-path="url(#clip0_381_151)">
<path d="M222.63 381.82C212.05 382.57 206.68 388.38 204 393.36C201.587 393.447 199.167 393.49 196.74 393.49C88.26 393.49 0 305.23 0 196.74C0 88.25 88.26 0 196.74 0C243.573 0.000237355 288.87 16.7043 324.49 47.11C326.497 48.9111 327.72 51.4254 327.898 54.116C328.076 56.8066 327.195 59.4601 325.443 61.5098C323.691 63.5595 321.206 64.8429 318.521 65.0858C315.835 65.3288 313.161 64.512 311.07 62.81C279.188 35.6063 238.651 20.6615 196.74 20.66C99.65 20.66 20.66 99.66 20.66 196.74C20.66 293.82 99.66 372.83 196.74 372.83C212.849 372.844 228.883 370.64 244.39 366.28C242.39 370.94 240.57 375.46 238.78 379.92L234.78 380.44C230.59 381 226.6 381.53 222.63 381.82Z" fill="black"/>
<path d="M377.85 273.61C366.088 301.19 348.204 325.733 325.553 345.378C302.902 365.024 276.077 379.257 247.11 387C250.22 379.09 253.49 371.24 256.85 363.43C257.038 363.028 257.176 362.605 257.26 362.17C300.102 346.381 335.186 314.648 355.18 273.6H376.57C377 273.55 377.44 273.57 377.85 273.61Z" fill="black"/>
<path d="M393.49 196.74C393.51 219.588 389.53 242.264 381.73 263.74C380.038 263.372 378.311 263.191 376.58 263.2H359.8C368.421 242.101 372.837 219.522 372.8 196.73C372.8 193.99 373.888 191.363 375.826 189.425C377.763 187.488 380.39 186.4 383.13 186.4C385.87 186.4 388.497 187.488 390.434 189.425C392.372 191.363 393.46 193.99 393.46 196.73L393.49 196.74Z" fill="black"/>
<path d="M334.62 26.2401L287.1 73.7601C286.568 74.2748 286.189 74.9271 286.006 75.6443C285.822 76.3615 285.842 77.1156 286.061 77.8225C286.281 78.5294 286.693 79.1615 287.25 79.6483C287.808 80.1352 288.49 80.4578 289.22 80.5801L346.82 91.2101C347.461 91.3355 348.122 91.3021 348.747 91.113C349.372 90.9238 349.941 90.5846 350.404 90.125C350.868 89.6654 351.212 89.0993 351.406 88.4762C351.601 87.8531 351.64 87.1918 351.52 86.5501L341.45 28.4001C341.335 27.6647 341.017 26.9759 340.532 26.4113C340.047 25.8467 339.414 25.4287 338.704 25.2042C337.994 24.9798 337.236 24.9578 336.515 25.1408C335.793 25.3238 335.137 25.7045 334.62 26.2401Z" fill="black"/>
<path d="M274.93 300.61C272.63 300.61 270.39 301.7 268.19 303.89L260.31 311.75C266.098 308.548 271.633 304.911 276.87 300.87C276.238 300.696 275.585 300.609 274.93 300.61ZM196.74 65.3501C177.855 65.362 159.194 69.4449 142.03 77.3205C124.865 85.1962 109.6 96.6795 97.2744 110.988C84.9489 125.296 75.8528 142.094 70.6059 160.235C65.3589 178.377 64.0844 197.436 66.8693 216.115C69.6541 234.794 76.4328 252.653 86.7435 268.475C97.0541 284.297 110.654 297.71 126.618 307.801C142.581 317.892 160.532 324.423 179.247 326.949C197.963 329.475 217.003 327.937 235.07 322.44C235.32 322.16 235.58 321.9 235.84 321.63C243.76 313.68 251.96 305.48 260.91 296.57C266.13 291.38 271.41 290.28 274.91 290.28C278.694 290.321 282.384 291.472 285.52 293.59C305.029 275.698 318.679 252.331 324.682 226.55C330.685 200.769 328.762 173.776 319.164 149.106C309.566 124.436 292.741 103.241 270.892 88.2959C249.044 73.3508 223.191 65.353 196.72 65.3501H196.74ZM261.09 217.77H196.74C193.755 217.767 190.894 216.58 188.784 214.469C186.675 212.357 185.49 209.495 185.49 206.51V143.32C185.49 140.336 186.675 137.475 188.785 135.365C190.895 133.255 193.756 132.07 196.74 132.07C199.724 132.07 202.585 133.255 204.695 135.365C206.805 137.475 207.99 140.336 207.99 143.32V195.26H261.09C264.017 195.347 266.795 196.571 268.834 198.673C270.874 200.774 272.014 203.587 272.014 206.515C272.014 209.443 270.874 212.256 268.834 214.358C266.795 216.459 264.017 217.683 261.09 217.77Z" fill="black"/>
<path d="M496.37 392.31C488.91 391.47 481.46 390.44 474 389.64C472.38 389.47 471.86 388.76 471.3 387.36C468.067 379.26 464.733 371.203 461.3 363.19C460.956 362.644 460.804 361.999 460.865 361.357C460.927 360.715 461.199 360.111 461.64 359.64C466.41 353.71 471.09 347.71 475.77 341.72C479.24 337.28 479.03 332.94 475.11 328.99C466.723 320.55 458.313 312.137 449.88 303.75C449.042 302.805 448.022 302.038 446.881 301.495C445.74 300.953 444.502 300.645 443.24 300.59C441.001 300.682 438.858 301.528 437.16 302.99C431.22 307.6 425.3 312.22 419.45 316.94C418.838 317.53 418.038 317.884 417.19 317.94C416.572 317.916 415.965 317.762 415.41 317.49C407.51 314.06 399.52 310.8 391.51 307.6C390.13 307.05 389.36 306.6 389.19 304.93C388.39 297.46 387.37 290.02 386.54 282.56C385.92 277.05 383.07 274.05 377.85 273.64C377.44 273.64 377.01 273.58 376.57 273.58H341.46C335.62 273.58 332.35 276.65 331.69 282.45C330.85 289.91 329.84 297.36 329.02 304.82C329.008 305.459 328.783 306.075 328.38 306.571C327.978 307.068 327.422 307.416 326.8 307.56C318.7 310.78 310.643 314.113 302.63 317.56C302.122 317.816 301.568 317.966 301 318C300.211 317.958 299.462 317.636 298.89 317.09C293.03 312.38 287.1 307.77 281.17 303.15C279.92 302.12 278.469 301.36 276.91 300.92C276.278 300.746 275.625 300.659 274.97 300.66C272.67 300.66 270.43 301.75 268.23 303.94L260.35 311.8C254.63 317.507 248.913 323.23 243.2 328.97C239.2 332.97 238.97 337.27 242.4 341.69C247.07 347.69 251.75 353.69 256.52 359.63C256.841 359.96 257.08 360.361 257.215 360.801C257.351 361.241 257.38 361.707 257.3 362.16C257.216 362.595 257.078 363.019 256.89 363.42C253.53 371.23 250.26 379.08 247.15 386.99C247.1 387.1 247.05 387.22 247.01 387.33C246.4 388.88 245.75 389.56 244.09 389.74C237.19 390.49 230.33 391.66 223.41 392.16C218.58 392.5 215.12 394.34 212.95 398.64V440.89C215.07 445.24 218.56 447.05 223.38 447.41C230.29 447.92 237.15 449.12 244.04 449.83C245.92 450.02 246.47 450.91 247.09 452.46C250.25 460.37 253.49 468.26 256.89 476.08C257.258 476.708 257.41 477.44 257.321 478.163C257.233 478.886 256.909 479.559 256.4 480.08C251.68 485.93 247.07 491.86 242.46 497.78C239.04 502.18 239.29 506.57 243.2 510.51C251.573 518.95 259.967 527.367 268.38 535.76C269.212 536.7 270.223 537.463 271.355 538.004C272.487 538.545 273.717 538.853 274.97 538.91C277.229 538.816 279.39 537.96 281.1 536.48C287.03 531.86 292.95 527.24 298.79 522.48C299.393 521.889 300.188 521.534 301.03 521.48C301.651 521.504 302.261 521.657 302.82 521.93C310.733 525.357 318.7 528.643 326.72 531.79C327.387 531.946 327.983 532.319 328.414 532.852C328.845 533.384 329.087 534.045 329.1 534.73C329.86 541.62 331.02 548.48 331.52 555.39C331.87 560.22 333.69 563.69 338.02 565.83H380.28C384.64 563.71 386.42 560.21 386.78 555.39C387.3 548.39 388.35 541.39 389.36 534.45C389.499 533.924 389.749 533.433 390.094 533.012C390.439 532.591 390.871 532.249 391.36 532.01C399.46 528.54 407.65 525.28 415.75 521.8C416.224 521.567 416.742 521.437 417.27 521.42C418.018 521.459 418.727 521.764 419.27 522.28C425.217 527.033 431.2 531.737 437.22 536.39C438.913 537.847 441.048 538.689 443.28 538.78C444.549 538.723 445.794 538.412 446.939 537.864C448.085 537.316 449.109 536.542 449.95 535.59C458.37 527.203 466.773 518.79 475.16 510.35C479 506.48 479.28 502.11 475.97 497.84C471.3 491.84 466.62 485.84 461.83 479.92C460.69 478.51 460.73 477.5 461.43 475.92C464.817 468.093 468.08 460.213 471.22 452.28C471.86 450.65 472.54 449.91 474.33 449.72C481.7 448.94 489.05 447.93 496.42 447.1C502.24 446.44 505.31 443.18 505.32 437.36C505.32 425.56 505.32 413.763 505.32 401.97C505.3 396.21 502.21 393 496.37 392.31ZM359.13 492.8C318.86 492.8 285.89 459.8 286.04 419.59C286.114 400.244 293.842 381.713 307.535 368.046C321.228 354.379 339.773 346.687 359.12 346.65C378.353 346.875 396.721 354.673 410.242 368.353C423.763 382.033 431.345 400.491 431.345 419.725C431.345 438.959 423.763 457.418 410.242 471.097C396.721 484.777 378.353 492.575 359.12 492.8H359.13Z" fill="black"/>
<path d="M209.85 471.05C205.64 470.57 201.45 470 197.24 469.55C196.33 469.45 196.04 469.05 195.72 468.26C193.9 463.687 192.02 459.147 190.08 454.64C189.89 454.331 189.806 453.969 189.841 453.608C189.875 453.248 190.026 452.908 190.27 452.64C192.96 449.3 195.6 445.92 198.27 442.54C200.27 440.03 200.11 437.54 197.9 435.36C193.167 430.613 188.427 425.873 183.68 421.14C183.209 420.606 182.635 420.173 181.992 419.865C181.35 419.557 180.652 419.382 179.94 419.35C178.676 419.402 177.467 419.882 176.51 420.71C173.16 423.31 169.83 425.91 166.51 428.57C166.161 428.897 165.708 429.092 165.23 429.12C164.884 429.102 164.544 429.017 164.23 428.87C159.78 426.93 155.23 425.09 150.76 423.29C149.98 422.98 149.55 422.71 149.45 421.79C149 417.58 148.45 413.38 147.96 409.18C147.58 405.83 145.75 404.12 142.34 404.12H122.54C119.25 404.12 117.41 405.84 117.04 409.12C116.56 413.32 115.99 417.52 115.53 421.72C115.524 422.081 115.398 422.429 115.171 422.71C114.945 422.991 114.631 423.188 114.28 423.27C109.707 425.083 105.167 426.96 100.66 428.9C100.367 429.045 100.047 429.127 99.7201 429.14C99.2725 429.117 98.8474 428.936 98.5201 428.63C95.2201 425.97 91.8801 423.38 88.5201 420.77C87.5466 419.925 86.3175 419.432 85.0301 419.37C84.3049 419.407 83.5945 419.59 82.9416 419.908C82.2887 420.226 81.7066 420.672 81.2301 421.22C76.5234 425.887 71.8201 430.587 67.1201 435.32C64.8801 437.57 64.7301 440 66.6701 442.49C69.3001 445.88 71.9401 449.26 74.6701 452.6C74.9345 452.887 75.0972 453.253 75.1333 453.641C75.1695 454.03 75.077 454.419 74.8701 454.75C72.9501 459.21 71.0968 463.7 69.3101 468.22C69.2241 468.597 69.0155 468.935 68.717 469.181C68.4184 469.427 68.0468 469.568 67.6601 469.58C63.7701 470 59.9001 470.66 56.0101 470.94C53.2801 471.14 51.3301 472.17 50.1101 474.59V498.41C51.3001 500.86 53.2701 501.88 55.9901 502.08C59.8801 502.37 63.7501 503.08 67.6401 503.44C68.6401 503.55 69.0001 504.05 69.3501 504.93C71.1301 509.39 72.9701 513.827 74.8701 518.24C75.0825 518.595 75.1712 519.01 75.1224 519.421C75.0735 519.832 74.8898 520.215 74.6001 520.51C71.9401 523.8 69.3401 527.15 66.7401 530.51C64.8101 532.98 64.9501 535.51 67.1601 537.68C71.8801 542.433 76.6101 547.177 81.3501 551.91C81.8119 552.43 82.3723 552.854 82.9988 553.156C83.6253 553.458 84.3056 553.633 85.0001 553.67C86.2764 553.615 87.4963 553.129 88.4601 552.29C91.8001 549.69 95.1401 547.09 98.4601 544.43C98.7999 544.102 99.2482 543.91 99.7201 543.89C100.067 543.903 100.408 543.988 100.72 544.14C105.18 546.08 109.67 547.933 114.19 549.7C114.567 549.787 114.904 549.998 115.146 550.299C115.389 550.6 115.524 550.973 115.53 551.36C115.96 555.24 116.62 559.11 116.9 563C117.09 565.73 118.12 567.68 120.56 568.89H144.4C146.85 567.69 147.86 565.72 148.06 563C148.35 559 148.95 555.12 149.51 551.2C149.593 550.904 149.737 550.629 149.934 550.393C150.13 550.157 150.374 549.965 150.65 549.83C155.22 547.83 159.84 546.03 164.4 544.07C164.67 543.943 164.962 543.872 165.26 543.86C165.682 543.88 166.083 544.05 166.39 544.34C169.74 547.02 173.12 549.66 176.51 552.34C177.464 553.157 178.665 553.628 179.92 553.68C180.635 553.648 181.335 553.473 181.981 553.165C182.627 552.858 183.204 552.424 183.68 551.89C188.433 547.15 193.17 542.407 197.89 537.66C200.06 535.48 200.22 533.02 198.35 530.66C195.71 527.27 193.08 523.89 190.35 520.56C190.064 520.259 189.887 519.872 189.845 519.459C189.803 519.047 189.9 518.632 190.12 518.28C192.027 513.867 193.867 509.427 195.64 504.96C195.731 504.56 195.952 504.201 196.269 503.941C196.586 503.68 196.98 503.532 197.39 503.52C201.55 503.08 205.69 502.52 209.84 502.04C213.13 501.67 214.84 499.84 214.84 496.55C214.84 489.883 214.84 483.237 214.84 476.61C214.88 473.25 213.14 471.42 209.85 471.05ZM132.5 527.69C121.576 527.69 111.099 523.35 103.374 515.626C95.6498 507.901 91.3101 497.424 91.3101 486.5C91.3101 475.576 95.6498 465.099 103.374 457.374C111.099 449.65 121.576 445.31 132.5 445.31C143.424 445.31 153.901 449.65 161.626 457.374C169.35 465.099 173.69 475.576 173.69 486.5C173.69 497.424 169.35 507.901 161.626 515.626C153.901 523.35 143.424 527.69 132.5 527.69Z" fill="black"/>
</g>
<defs>
<clipPath id="clip0_381_151">
<rect width="505.32" height="568.89" fill="white"/>
</clipPath>
</defs>
</svg>
