<svg width="576" height="534" viewBox="0 0 576 534" fill="none" xmlns="http://www.w3.org/2000/svg">
<g clip-path="url(#clip0_381_161)">
<path d="M474.29 534H0C0.650565 517.954 2.94252 502.018 6.84 486.44C19.686 435.08 49.3301 389.489 91.0606 356.91C132.791 324.332 184.214 306.636 237.155 306.636C290.096 306.636 341.519 324.332 383.249 356.91C424.98 389.489 454.624 435.08 467.47 486.44C471.361 502.019 473.646 517.955 474.29 534Z" fill="black"/>
<path d="M309.21 266.26C287.25 279.079 262.267 285.806 236.839 285.744C211.411 285.683 186.46 278.837 164.562 265.912C142.664 252.987 124.612 234.452 112.27 212.22C99.9282 189.988 93.7432 164.865 94.3537 139.445C94.9642 114.024 102.348 89.227 115.743 67.6133C129.138 45.9996 148.059 28.3524 170.552 16.4936C193.045 4.63476 218.296 -1.00603 243.698 0.153539C269.099 1.31311 293.731 9.231 315.05 23.0899H296.69C286.15 23.0899 277.44 25.4099 270.81 29.9799C265 33.9999 258 41.7099 258 55.6099C258 56.8299 258 58.8499 258 62.5399C258 66.9199 258 73.1599 258 80.6499C258 95.6499 258.07 115.58 258.12 135.56C258.18 157.99 258.24 177.03 258.3 190.64C258.38 207.1 258.41 213.34 258.53 216.11C258.53 225.44 263.15 232.9 270 238.03C277.246 243.25 285.96 246.04 294.89 246H297.63C297.642 246.274 297.668 246.548 297.71 246.82C298.72 254.1 303.09 261.11 309.21 266.26Z" fill="black"/>
<path d="M336.05 246C330.641 251.194 324.83 255.952 318.67 260.23C313.34 256.78 309.22 251.42 308.22 246H336.05Z" fill="black"/>
<path d="M296.92 62.0698C297.02 62.1465 297.105 62.2415 297.17 62.3498C297.094 62.4462 297.006 62.5334 296.91 62.6098C296.802 62.5446 296.709 62.4557 296.64 62.3498C296.71 62.2353 296.806 62.1392 296.92 62.0698Z" fill="black"/>
<path d="M335.42 62.0901C335.317 62.1501 335.226 62.228 335.15 62.3201C335.224 62.425 335.311 62.5192 335.41 62.6001C335.513 62.5354 335.601 62.4503 335.67 62.3501C335.603 62.249 335.519 62.1609 335.42 62.0901ZM335.42 62.0901C335.317 62.1501 335.226 62.228 335.15 62.3201C335.224 62.425 335.311 62.5192 335.41 62.6001C335.513 62.5354 335.601 62.4503 335.67 62.3501C335.603 62.249 335.519 62.1609 335.42 62.0901ZM335.42 62.0901C335.317 62.1501 335.226 62.228 335.15 62.3201C335.224 62.425 335.311 62.5192 335.41 62.6001C335.513 62.5354 335.601 62.4503 335.67 62.3501C335.603 62.249 335.519 62.1609 335.42 62.0901ZM335.42 62.0901C335.317 62.1501 335.226 62.228 335.15 62.3201C335.224 62.425 335.311 62.5192 335.41 62.6001C335.513 62.5354 335.601 62.4503 335.67 62.3501C335.603 62.249 335.519 62.1609 335.42 62.0901ZM335.42 62.0901C335.317 62.1501 335.226 62.228 335.15 62.3201C335.224 62.425 335.311 62.5192 335.41 62.6001C335.513 62.5354 335.601 62.4503 335.67 62.3501C335.603 62.249 335.519 62.1609 335.42 62.0901ZM335.42 62.0901C335.317 62.1501 335.226 62.228 335.15 62.3201C335.224 62.425 335.311 62.5192 335.41 62.6001C335.513 62.5354 335.601 62.4503 335.67 62.3501C335.603 62.249 335.519 62.1609 335.42 62.0901ZM335.42 62.0901C335.317 62.1501 335.226 62.228 335.15 62.3201C335.224 62.425 335.311 62.5192 335.41 62.6001C335.513 62.5354 335.601 62.4503 335.67 62.3501C335.603 62.249 335.519 62.1609 335.42 62.0901ZM335.42 62.0901C335.317 62.1501 335.226 62.228 335.15 62.3201C335.224 62.425 335.311 62.5192 335.41 62.6001C335.513 62.5354 335.601 62.4503 335.67 62.3501C335.603 62.249 335.519 62.1609 335.42 62.0901ZM335.42 62.0901C335.317 62.1501 335.226 62.228 335.15 62.3201C335.224 62.425 335.311 62.5192 335.41 62.6001C335.513 62.5354 335.601 62.4503 335.67 62.3501C335.603 62.249 335.519 62.1609 335.42 62.0901ZM335.42 62.0901C335.317 62.1501 335.226 62.228 335.15 62.3201C335.224 62.425 335.311 62.5192 335.41 62.6001C335.513 62.5354 335.601 62.4503 335.67 62.3501C335.603 62.249 335.519 62.1609 335.42 62.0901ZM335.42 62.0901C335.317 62.1501 335.226 62.228 335.15 62.3201C335.224 62.425 335.311 62.5192 335.41 62.6001C335.513 62.5354 335.601 62.4503 335.67 62.3501C335.603 62.249 335.519 62.1609 335.42 62.0901ZM335.42 62.0901C335.317 62.1501 335.226 62.228 335.15 62.3201C335.224 62.425 335.311 62.5192 335.41 62.6001C335.513 62.5354 335.601 62.4503 335.67 62.3501C335.603 62.249 335.519 62.1609 335.42 62.0901ZM335.42 62.0901C335.317 62.1501 335.226 62.228 335.15 62.3201C335.224 62.425 335.311 62.5192 335.41 62.6001C335.513 62.5354 335.601 62.4503 335.67 62.3501C335.603 62.249 335.519 62.1609 335.42 62.0901ZM335.42 62.0901C335.317 62.1501 335.226 62.228 335.15 62.3201C335.224 62.425 335.311 62.5192 335.41 62.6001C335.513 62.5354 335.601 62.4503 335.67 62.3501C335.603 62.249 335.519 62.1609 335.42 62.0901ZM335.42 62.0901C335.317 62.1501 335.226 62.228 335.15 62.3201C335.224 62.425 335.311 62.5192 335.41 62.6001C335.513 62.5354 335.601 62.4503 335.67 62.3501C335.603 62.249 335.519 62.1609 335.42 62.0901ZM335.42 62.0901C335.317 62.1501 335.226 62.228 335.15 62.3201C335.224 62.425 335.311 62.5192 335.41 62.6001C335.513 62.5354 335.601 62.4503 335.67 62.3501C335.603 62.249 335.519 62.1609 335.42 62.0901ZM287.22 209.59H287.16V94.3701C287.16 93.3101 287.24 92.2601 287.29 91.2201H370.4C361.709 68.8661 347.542 49.0532 329.2 33.6001H296.68C281.13 33.6001 268.52 39.6901 268.52 55.6001C268.46 55.8601 268.75 214.97 269.06 216.1C269.06 228.1 282.21 235.43 294.9 235.45H346L346.53 234.82C351.393 229.055 355.791 222.912 359.68 216.45H295.47C290 216.47 287.62 214.49 287.22 209.59ZM335.32 51.5901H335.47C338.337 51.5662 341.096 52.6822 343.14 54.6926C345.184 56.703 346.346 59.4431 346.37 62.3101C346.394 65.1771 345.278 67.9361 343.268 69.9803C341.257 72.0244 338.517 73.1862 335.65 73.2101H335.35C332.541 73.1246 329.876 71.9488 327.92 69.9318C325.963 67.9148 324.869 65.2152 324.869 62.4051C324.869 59.595 325.963 56.8954 327.92 54.8784C329.876 52.8614 332.541 51.6856 335.35 51.6001L335.32 51.5901ZM296.85 51.5901C299.572 51.7734 302.124 52.9792 303.995 54.9657C305.865 56.9521 306.915 59.5723 306.934 62.3005C306.953 65.0287 305.939 67.6632 304.097 69.6755C302.255 71.6877 299.719 72.9289 297 73.1501H296.84C294.031 73.0646 291.366 71.8888 289.41 69.8718C287.453 67.8548 286.359 65.1552 286.359 62.3451C286.359 59.535 287.453 56.8354 289.41 54.8184C291.366 52.8014 294.031 51.6256 296.84 51.5401L296.85 51.5901ZM335.41 62.6001C335.513 62.5354 335.601 62.4503 335.67 62.3501C335.603 62.249 335.519 62.1609 335.42 62.0901C335.317 62.1501 335.226 62.228 335.15 62.3201C335.224 62.425 335.311 62.5192 335.41 62.6001ZM335.41 62.0901C335.307 62.1501 335.216 62.228 335.14 62.3201C335.214 62.425 335.301 62.5192 335.4 62.6001C335.503 62.5354 335.591 62.4503 335.66 62.3501C335.596 62.2499 335.515 62.1618 335.42 62.0901H335.41ZM335.41 62.0901C335.307 62.1501 335.216 62.228 335.14 62.3201C335.214 62.425 335.301 62.5192 335.4 62.6001C335.503 62.5354 335.591 62.4503 335.66 62.3501C335.596 62.2499 335.515 62.1618 335.42 62.0901H335.41ZM335.41 62.0901C335.307 62.1501 335.216 62.228 335.14 62.3201C335.214 62.425 335.301 62.5192 335.4 62.6001C335.503 62.5354 335.591 62.4503 335.66 62.3501C335.596 62.2499 335.515 62.1618 335.42 62.0901H335.41ZM335.41 62.0901C335.307 62.1501 335.216 62.228 335.14 62.3201C335.214 62.425 335.301 62.5192 335.4 62.6001C335.503 62.5354 335.591 62.4503 335.66 62.3501C335.596 62.2499 335.515 62.1618 335.42 62.0901H335.41ZM335.41 62.0901C335.307 62.1501 335.216 62.228 335.14 62.3201C335.214 62.425 335.301 62.5192 335.4 62.6001C335.503 62.5354 335.591 62.4503 335.66 62.3501C335.596 62.2499 335.515 62.1618 335.42 62.0901H335.41ZM335.41 62.0901C335.307 62.1501 335.216 62.228 335.14 62.3201C335.214 62.425 335.301 62.5192 335.4 62.6001C335.503 62.5354 335.591 62.4503 335.66 62.3501C335.596 62.2499 335.515 62.1618 335.42 62.0901H335.41ZM335.41 62.0901C335.307 62.1501 335.216 62.228 335.14 62.3201C335.214 62.425 335.301 62.5192 335.4 62.6001C335.503 62.5354 335.591 62.4503 335.66 62.3501C335.596 62.2499 335.515 62.1618 335.42 62.0901H335.41ZM335.41 62.0901C335.307 62.1501 335.216 62.228 335.14 62.3201C335.214 62.425 335.301 62.5192 335.4 62.6001C335.503 62.5354 335.591 62.4503 335.66 62.3501C335.596 62.2499 335.515 62.1618 335.42 62.0901H335.41ZM335.41 62.0901C335.307 62.1501 335.216 62.228 335.14 62.3201C335.214 62.425 335.301 62.5192 335.4 62.6001C335.503 62.5354 335.591 62.4503 335.66 62.3501C335.596 62.2499 335.515 62.1618 335.42 62.0901H335.41ZM335.41 62.0901C335.307 62.1501 335.216 62.228 335.14 62.3201C335.214 62.425 335.301 62.5192 335.4 62.6001C335.503 62.5354 335.591 62.4503 335.66 62.3501C335.596 62.2499 335.515 62.1618 335.42 62.0901H335.41ZM335.41 62.0901C335.307 62.1501 335.216 62.228 335.14 62.3201C335.214 62.425 335.301 62.5192 335.4 62.6001C335.503 62.5354 335.591 62.4503 335.66 62.3501C335.596 62.2499 335.515 62.1618 335.42 62.0901H335.41ZM335.41 62.0901C335.307 62.1501 335.216 62.228 335.14 62.3201C335.214 62.425 335.301 62.5192 335.4 62.6001C335.503 62.5354 335.591 62.4503 335.66 62.3501C335.596 62.2499 335.515 62.1618 335.42 62.0901H335.41ZM335.41 62.0901C335.307 62.1501 335.216 62.228 335.14 62.3201C335.214 62.425 335.301 62.5192 335.4 62.6001C335.503 62.5354 335.591 62.4503 335.66 62.3501C335.596 62.2499 335.515 62.1618 335.42 62.0901H335.41ZM335.41 62.0901C335.307 62.1501 335.216 62.228 335.14 62.3201C335.214 62.425 335.301 62.5192 335.4 62.6001C335.503 62.5354 335.591 62.4503 335.66 62.3501C335.596 62.2499 335.515 62.1618 335.42 62.0901H335.41ZM335.41 62.0901C335.307 62.1501 335.216 62.228 335.14 62.3201C335.214 62.425 335.301 62.5192 335.4 62.6001C335.503 62.5354 335.591 62.4503 335.66 62.3501C335.596 62.2499 335.515 62.1618 335.42 62.0901H335.41ZM335.41 62.0901C335.307 62.1501 335.216 62.228 335.14 62.3201C335.214 62.425 335.301 62.5192 335.4 62.6001C335.503 62.5354 335.591 62.4503 335.66 62.3501C335.596 62.2499 335.515 62.1618 335.42 62.0901H335.41Z" fill="black"/>
<path d="M518.14 61.4399C518.14 61.0499 518.14 60.6599 518.14 60.2699C517.66 43.9499 506.95 33.6099 490.38 33.6099H296.68C281.13 33.6099 268.52 39.6999 268.52 55.6099C268.46 55.8699 268.75 214.98 269.06 216.11C269.06 228.11 282.21 235.44 294.9 235.46H490.38C493.642 235.488 496.891 235.033 500.02 234.11C509.02 231.39 515.24 224.67 517.35 215.19C517.895 212.694 518.163 210.145 518.15 207.59C518.15 158.877 518.147 110.16 518.14 61.4399ZM493.89 96.4399V103.44C493.89 138.56 493.89 173.687 493.89 208.82C493.89 210.75 493.89 211.21 491.27 211.21H295.47C294.57 211.291 293.664 211.165 292.82 210.84C292.82 210.84 292.41 210.25 292.41 208.06V96.4799L493.89 96.4399ZM373.78 51.5399H374C376.812 51.6316 379.477 52.8146 381.431 54.838C383.385 56.8615 384.474 59.5663 384.467 62.3791C384.461 65.192 383.359 67.8917 381.396 69.9061C379.432 71.9205 376.762 73.0911 373.95 73.1699C371.083 73.1844 368.328 72.0595 366.29 70.0426C364.253 68.0256 363.1 65.2819 363.085 62.4149C363.071 59.5479 364.195 56.7925 366.212 54.7549C368.229 52.7173 370.973 51.5644 373.84 51.5499L373.78 51.5399ZM335.32 51.5399H335.47C338.337 51.516 341.096 52.632 343.14 54.6424C345.184 56.6528 346.346 59.3929 346.37 62.2599C346.394 65.1269 345.278 67.8859 343.268 69.93C341.257 71.9742 338.517 73.136 335.65 73.1599H335.35C332.541 73.0744 329.876 71.8986 327.92 69.8816C325.963 67.8646 324.869 65.1649 324.869 62.3549C324.869 59.5448 325.963 56.8452 327.92 54.8282C329.876 52.8112 332.541 51.6353 335.35 51.5499L335.32 51.5399ZM296.85 51.5399C299.661 51.6036 302.336 52.76 304.309 54.7636C306.281 56.7673 307.395 59.4606 307.415 62.2721C307.434 65.0836 306.358 67.792 304.413 69.8229C302.469 71.8537 299.81 73.0471 297 73.1499H296.84C294.031 73.0644 291.366 71.8886 289.41 69.8716C287.453 67.8546 286.359 65.1549 286.359 62.3449C286.359 59.5348 287.453 56.8352 289.41 54.8182C291.366 52.8012 294.031 51.6253 296.84 51.5399H296.85Z" fill="black"/>
<path d="M529 263C529.78 262.84 530.54 262.64 531.25 262.42C535.295 261.275 538.892 258.921 541.561 255.673C544.23 252.426 545.841 248.44 546.18 244.25C546.71 241.93 546.99 138.39 546.97 89.1798V89.0998C546.97 77.2198 539.97 67.4298 529.21 63.9798C528.808 63.8909 528.401 63.8308 527.99 63.7998V113.96C527.99 146.96 528.04 179.96 527.99 212.9C527.99 227.42 519.23 239.36 505.48 243.6C501.552 244.758 497.475 245.334 493.38 245.31C456.433 245.37 419.48 245.393 382.52 245.38H308.12C308.12 245.59 308.18 245.8 308.22 246.01C309.22 251.43 313.34 256.79 318.67 260.24C321.325 261.996 324.309 263.197 327.44 263.77C329.34 264.101 331.262 264.288 333.19 264.33L529 263Z" fill="black"/>
<path d="M575.86 267.25C575.902 270.673 575.257 274.07 573.965 277.24C572.672 280.41 570.758 283.288 568.334 285.706C565.911 288.124 563.027 290.032 559.854 291.317C556.681 292.603 553.283 293.239 549.86 293.19C521.113 293.19 492.357 293.19 463.59 293.19H361.59C356.03 293.224 350.609 291.451 346.144 288.138C341.678 284.825 338.41 280.151 336.83 274.82C336.76 274.62 336.7 274.42 336.64 274.21H410.9C448.027 274.21 485.157 274.183 522.29 274.13C525.533 274.133 528.767 273.774 531.93 273.06C544.64 269.23 553.69 259.4 556.54 246.06C556.742 244.588 556.842 243.105 556.84 241.62C556.93 204.62 556.84 167.62 556.84 130.62V92.6196L557.46 92.7896C562.759 94.3034 567.418 97.5057 570.73 101.91C574.042 106.314 575.826 111.679 575.81 117.19C575.937 167.21 575.953 217.23 575.86 267.25Z" fill="black"/>
</g>
<defs>
<clipPath id="clip0_381_161">
<rect width="575.93" height="534" fill="white"/>
</clipPath>
</defs>
</svg>
