<svg width="568" height="504" viewBox="0 0 568 504" fill="none" xmlns="http://www.w3.org/2000/svg">
<g clip-path="url(#clip0_381_172)">
<path d="M563.16 456.14L421.86 342.46C416.21 337.91 406.98 339.51 398.92 345.7L384.47 363.7C380.15 372.9 380.56 382.26 386.22 386.8L527.52 500.48C534.8 506.3 548 502 557 490.77L560 487.03C569 475.83 570.44 462 563.16 456.14Z" fill="black"/>
<path d="M206.73 401.55C314.326 401.55 401.55 314.326 401.55 206.73C401.55 99.134 314.326 11.9102 206.73 11.9102C99.134 11.9102 11.9102 99.134 11.9102 206.73C11.9102 314.326 99.134 401.55 206.73 401.55Z" stroke="black" stroke-width="23.8" stroke-linecap="round" stroke-linejoin="round"/>
<path d="M359.59 328.85L444.51 397.17" stroke="black" stroke-width="23.8" stroke-linecap="round" stroke-linejoin="round"/>
<path d="M206.56 183.75C241.476 183.75 269.78 155.445 269.78 120.53C269.78 85.6146 241.476 57.3101 206.56 57.3101C171.645 57.3101 143.34 85.6146 143.34 120.53C143.34 155.445 171.645 183.75 206.56 183.75Z" fill="black"/>
<path d="M335.39 303C310.32 335.674 273.715 357.538 233.06 364.12C224.273 365.222 215.426 365.773 206.57 365.77C200.11 365.77 193.727 365.484 187.42 364.91C165.833 362.198 145.017 355.149 126.223 344.187C107.43 333.225 91.0473 318.576 78.0601 301.12C82.8701 272.988 96.7759 247.211 117.645 227.742C138.513 208.274 165.192 196.188 193.59 193.34C197.86 192.93 202.15 192.7 206.54 192.7C210.93 192.7 215.25 192.93 219.54 193.34C248.264 196.218 275.222 208.546 296.187 228.391C317.153 248.236 330.941 274.477 335.39 303Z" fill="black"/>
</g>
<defs>
<clipPath id="clip0_381_172">
<rect width="567.82" height="503.05" fill="white"/>
</clipPath>
</defs>
</svg>
