<svg width="509" height="581" viewBox="0 0 509 581" fill="none" xmlns="http://www.w3.org/2000/svg">
<g clip-path="url(#clip0_381_180)">
<path d="M139.3 186L85.9999 123.89C85.6713 123.484 85.257 123.155 84.7866 122.927C84.3163 122.7 83.8015 122.579 83.279 122.573C82.7565 122.567 82.2392 122.677 81.764 122.894C81.2888 123.111 80.8674 123.431 80.5299 123.83L25.2099 186C22.7899 188.71 24.4999 193.34 27.9099 193.34H54.2299V394.94C54.2432 398.923 55.8346 402.738 58.6556 405.549C61.4766 408.361 65.2971 409.94 69.2799 409.94H95.1799C99.1582 409.94 102.973 408.359 105.787 405.546C108.6 402.733 110.18 398.918 110.18 394.94V193.31H136.5C139.92 193.31 141.64 188.76 139.3 186Z" fill="black"/>
<path d="M483.44 184.75L430.18 122.61C429.852 122.203 429.437 121.875 428.967 121.647C428.497 121.419 427.982 121.298 427.459 121.293C426.937 121.287 426.42 121.397 425.944 121.614C425.469 121.831 425.048 122.151 424.71 122.55L369.34 184.69C366.93 187.4 368.64 192.03 372.05 192.03H398.37V393.63C398.37 397.621 399.956 401.449 402.778 404.272C405.601 407.094 409.429 408.68 413.42 408.68H439.32C443.303 408.666 447.118 407.075 449.93 404.254C452.742 401.433 454.32 397.612 454.32 393.63V192H480.64C484.06 192 485.78 187.48 483.44 184.75Z" fill="black"/>
<path d="M285 186.66V75.9398H313.26C316.88 75.9398 318.74 71.0598 316.26 68.1298L259 1.40981C258.648 0.972658 258.204 0.618914 257.699 0.374004C257.194 0.129094 256.641 -0.000900665 256.079 -0.00663742C255.518 -0.0123742 254.962 0.106289 254.453 0.340825C253.943 0.575361 253.491 0.919945 253.13 1.34981L193.71 68.0698C191.13 70.9698 192.96 75.9398 196.62 75.9398H224.88V186.66" fill="black"/>
<path d="M306.4 14.4697L398.4 123.36L419.59 100.65C420.783 99.3726 422.227 98.3564 423.833 97.6654C425.438 96.9744 427.169 96.6234 428.916 96.6347C430.664 96.646 432.39 97.0192 433.986 97.7309C435.582 98.4426 437.014 99.4773 438.19 100.77L506.4 179.33L508.61 14.4697H306.4Z" fill="black"/>
<path d="M202.2 14.4697L110.2 123.36L89 100.65C87.808 99.3728 86.3643 98.3569 84.7599 97.6659C83.1556 96.975 81.4255 96.6241 79.6787 96.6354C77.9319 96.6467 76.2065 97.0199 74.6112 97.7314C73.0159 98.443 71.5854 99.4775 70.41 100.77L2.22 179.33L0 14.4697H202.2Z" fill="black"/>
<path d="M427 568.24H81.5898C82.064 556.552 83.7395 544.944 86.5898 533.6C95.9438 496.194 117.532 462.988 147.924 439.26C178.316 415.533 215.767 402.645 254.325 402.645C292.882 402.645 330.333 415.533 360.725 439.26C391.117 462.988 412.706 496.194 422.06 533.6C424.885 544.947 426.54 556.554 427 568.24Z" stroke="black" stroke-width="25.04" stroke-linecap="round" stroke-linejoin="round"/>
<path d="M358.35 283.38C358.362 303.964 352.269 324.088 340.842 341.209C329.415 358.329 313.167 371.676 294.154 379.562C275.14 387.447 254.215 389.516 234.026 385.508C213.836 381.499 195.289 371.593 180.73 357.043C166.171 342.492 156.254 323.95 152.234 303.763C148.214 283.576 150.271 262.65 158.145 243.632C166.02 224.614 179.357 208.358 196.471 196.921C213.585 185.484 233.706 179.38 254.29 179.38C267.953 179.372 281.483 182.056 294.108 187.279C306.732 192.502 318.204 200.161 327.868 209.82C337.532 219.478 345.197 230.945 350.428 243.567C355.658 256.189 358.35 269.717 358.35 283.38Z" stroke="black" stroke-width="25.04" stroke-linecap="round" stroke-linejoin="round"/>
</g>
<defs>
<clipPath id="clip0_381_180">
<rect width="508.59" height="580.76" fill="white"/>
</clipPath>
</defs>
</svg>
