<svg width="497" height="561" viewBox="0 0 497 561" fill="none" xmlns="http://www.w3.org/2000/svg">
<g clip-path="url(#clip0_381_206)">
<path d="M230.49 83.4799C230.49 83.4799 192.55 53.3799 162.44 74.3199C115.34 118.81 53.8296 105.07 53.8296 105.07" stroke="black" stroke-width="23.01" stroke-linecap="round" stroke-linejoin="round"/>
<path d="M268.64 83.4799C268.64 83.4799 306.59 53.3799 336.69 74.3199C383.8 118.81 445.3 105.07 445.3 105.07" stroke="black" stroke-width="23.01" stroke-linecap="round" stroke-linejoin="round"/>
<path d="M420.16 304.68C405.065 304.68 390.31 309.156 377.759 317.542C365.208 325.928 355.426 337.848 349.649 351.793C343.873 365.739 342.362 381.084 345.306 395.889C348.251 410.694 355.52 424.293 366.193 434.966C376.867 445.64 390.466 452.908 405.271 455.853C420.075 458.798 435.421 457.287 449.366 451.51C463.312 445.734 475.232 435.952 483.618 423.401C492.004 410.85 496.48 396.094 496.48 381C496.48 360.758 488.439 341.346 474.126 327.033C459.814 312.721 440.401 304.68 420.16 304.68ZM415.92 424.8C414.904 425.817 413.697 426.624 412.369 427.174C411.041 427.725 409.618 428.008 408.18 428.008C406.742 428.008 405.319 427.725 403.991 427.174C402.662 426.624 401.456 425.817 400.44 424.8L365.66 390C364.628 388.986 363.808 387.778 363.246 386.445C362.683 385.113 362.391 383.682 362.385 382.236C362.379 380.789 362.659 379.356 363.21 378.019C363.761 376.681 364.571 375.466 365.594 374.444C366.617 373.422 367.833 372.612 369.17 372.062C370.508 371.512 371.942 371.233 373.388 371.24C374.834 371.247 376.265 371.54 377.597 372.103C378.929 372.666 380.137 373.487 381.15 374.52L408.15 401.52L463.1 346.52C465.208 344.756 467.899 343.845 470.645 343.966C473.391 344.087 475.992 345.232 477.936 347.174C479.88 349.117 481.026 351.717 481.149 354.463C481.272 357.209 480.363 359.901 478.6 362.01L415.92 424.8Z" fill="black"/>
<path d="M362.37 488.39H131.91C112.044 488.39 95.9399 504.492 95.9399 524.355C95.9399 544.218 112.044 560.32 131.91 560.32H362.37C382.236 560.32 398.34 544.218 398.34 524.355C398.34 504.492 382.236 488.39 362.37 488.39Z" fill="black"/>
<path d="M260.24 52.0698L247.15 11.5098L234.05 52.0698C234.26 202.19 219.39 340.7 181.71 461.65H312.58C274.9 340.7 260 202.19 260.24 52.0698Z" stroke="black" stroke-width="23.01" stroke-linecap="round" stroke-linejoin="round"/>
<path d="M76.3198 234.13C61.226 234.132 46.4717 238.609 33.9224 246.996C21.3732 255.383 11.5926 267.303 5.8174 281.248C0.04216 295.193 -1.46839 310.538 1.47676 325.342C4.4219 340.145 11.6905 353.743 22.3634 364.416C33.0364 375.089 46.6344 382.358 61.4381 385.303C76.2418 388.248 91.5863 386.738 105.532 380.962C119.477 375.187 131.396 365.406 139.783 352.857C148.17 340.308 152.648 325.554 152.65 310.46C152.651 300.436 150.678 290.509 146.842 281.248C143.007 271.987 137.384 263.572 130.296 256.483C123.208 249.395 114.793 243.773 105.532 239.937C96.2702 236.102 86.344 234.129 76.3198 234.13ZM119.93 338.58C120.992 339.586 121.841 340.795 122.428 342.135C123.015 343.474 123.328 344.918 123.348 346.381C123.367 347.844 123.094 349.296 122.543 350.651C121.993 352.006 121.176 353.237 120.142 354.272C119.107 355.306 117.876 356.123 116.521 356.673C115.166 357.224 113.714 357.498 112.251 357.478C110.788 357.458 109.344 357.145 108.004 356.558C106.665 355.971 105.456 355.122 104.45 354.06L76.3198 325.94L48.1998 354.06C47.1867 355.092 45.9792 355.914 44.647 356.477C43.3147 357.04 41.8841 357.333 40.4378 357.34C38.9915 357.347 37.5581 357.068 36.2204 356.517C34.8827 355.967 33.6673 355.158 32.6442 354.135C31.6212 353.113 30.8108 351.898 30.2599 350.561C29.7091 349.224 29.4286 347.79 29.4347 346.344C29.4407 344.898 29.7333 343.467 30.2955 342.134C30.8576 340.802 31.6782 339.594 32.7098 338.58L60.8398 310.46L32.7098 282.32C31.6782 281.306 30.8576 280.098 30.2955 278.765C29.7333 277.433 29.4407 276.002 29.4347 274.556C29.4286 273.109 29.7091 271.676 30.2599 270.339C30.8108 269.002 31.6212 267.787 32.6442 266.764C33.6673 265.742 34.8827 264.932 36.2204 264.382C37.5581 263.832 38.9915 263.553 40.4378 263.56C41.8841 263.567 43.3147 263.86 44.647 264.423C45.9792 264.986 47.1867 265.808 48.1998 266.84L76.3198 295L104.45 266.87C106.521 264.908 109.276 263.831 112.129 263.87C114.981 263.908 117.706 265.059 119.724 267.076C121.741 269.093 122.891 271.818 122.93 274.671C122.968 277.524 121.892 280.279 119.93 282.35L91.7998 310.46L119.93 338.58Z" fill="black"/>
<path d="M420.16 119.03V276.21" stroke="black" stroke-width="23.01" stroke-linecap="round" stroke-linejoin="round"/>
<path d="M76.3198 119.03V205.77" stroke="black" stroke-width="23.01" stroke-linecap="round" stroke-linejoin="round"/>
</g>
<defs>
<clipPath id="clip0_381_206">
<rect width="496.48" height="560.32" fill="white"/>
</clipPath>
</defs>
</svg>
