<svg width="41" height="42" viewBox="0 0 41 42" fill="none" xmlns="http://www.w3.org/2000/svg">
<g clip-path="url(#clip0_1803_12591)">
<path d="M20.5 42C9.17896 42 0 32.5985 0 21C0 9.40152 9.17896 0 20.5 0C31.8223 0 41 9.40152 41 21C41 32.5985 31.8223 42 20.5 42ZM20.5 5.25C12.0092 5.25 5.125 12.3021 5.125 21C5.125 29.6979 12.0092 36.75 20.5 36.75C28.992 36.75 35.875 29.6979 35.875 21C35.875 12.3021 28.992 5.25 20.5 5.25ZM23.0625 31.5H17.9375V23.625H10.25V18.375H17.9375V10.5H23.0625V18.375H30.75V23.625H23.0625V31.5Z" fill="#06ba00"/>
</g>
<defs>
<clipPath id="clip0_1803_12591">
<rect width="41" height="42" fill="white"/>
</clipPath>
</defs>
</svg>
