<svg width="43" height="33" viewBox="0 0 43 33" fill="none" xmlns="http://www.w3.org/2000/svg">
<path d="M8.56682 17.1671C3.92223 17.1671 0.792316 20.3777 0.792316 25.1348C0.792316 29.4157 4.38965 32.982 9.26203 32.982C14.5989 32.982 18.5423 28.7012 18.5423 22.1624C18.5423 7.30002 7.6379 1.35508 0.792316 0.640625V7.17947C5.43394 8.01153 10.6524 12.6481 10.8861 17.7639C10.6524 17.6463 9.72648 17.1671 8.56682 17.1671ZM32.2305 17.1671C27.5919 17.1671 24.459 20.3777 24.459 25.1348C24.459 29.4157 28.0563 32.982 32.9287 32.982C38.2655 32.982 42.209 28.7012 42.209 22.1624C42.209 7.30002 31.3046 1.35508 24.459 0.640625V7.17947C29.1006 8.01153 34.3191 12.6481 34.5528 17.7639C34.3191 17.6463 33.3932 17.1671 32.2305 17.1671Z" fill="#8D5E20"/>
</svg>
