<svg width="43" height="33" viewBox="0 0 43 33" fill="none" xmlns="http://www.w3.org/2000/svg">
<path d="M34.4332 17.0626C39.0778 17.0626 42.2077 20.2732 42.2077 25.0303C42.2077 29.3112 38.6103 32.8775 33.738 32.8775C28.4011 32.8775 24.4577 28.5967 24.4577 22.0579C24.4577 7.19552 35.3621 1.25058 42.2077 0.536133V7.07498C37.5661 7.90703 32.3476 12.5436 32.1139 17.6594C32.3476 17.5418 33.2735 17.0626 34.4332 17.0626ZM10.7695 17.0626C15.4081 17.0626 18.541 20.2732 18.541 25.0303C18.541 29.3112 14.9437 32.8775 10.0713 32.8775C4.73447 32.8775 0.791016 28.5967 0.791016 22.0579C0.791016 7.19552 11.6954 1.25058 18.541 0.536133V7.07498C13.8994 7.90703 8.68089 12.5436 8.44718 17.6594C8.68089 17.5418 9.60685 17.0626 10.7695 17.0626Z" fill="#8D5E20"/>
</svg>
